<svg xmlns="http://www.w3.org/2000/svg" xmlns:xlink="http://www.w3.org/1999/xlink" width="346" zoomAndPan="magnify" viewBox="0 0 259.5 381.749989" height="509" preserveAspectRatio="xMidYMid meet" version="1.0"><defs><clipPath id="da6c83c4e2"><path d="M 0 0.242188 L 258.253906 0.242188 L 258.253906 381 L 0 381 Z M 0 0.242188 " clip-rule="nonzero"/></clipPath><clipPath id="d022a5daca"><path d="M 248.90625 0.242188 L 9.5 0.242188 C 9.5 5.46875 5.273438 9.742188 0 9.742188 L 0 371.382812 C 5.226562 371.382812 9.5 375.613281 9.5 380.882812 L 248.90625 380.882812 C 248.90625 375.65625 253.132812 371.382812 258.40625 371.382812 L 258.40625 9.742188 C 253.175781 9.742188 248.90625 5.515625 248.90625 0.242188 Z M 248.90625 0.242188 " clip-rule="nonzero"/></clipPath><clipPath id="71f26105ce"><path d="M 2.941406 3.226562 L 255.207031 3.226562 L 255.207031 378 L 2.941406 378 Z M 2.941406 3.226562 " clip-rule="nonzero"/></clipPath><clipPath id="d6e312b839"><path d="M 246.171875 3.226562 L 12.230469 3.226562 C 12.230469 8.339844 8.097656 12.515625 2.941406 12.515625 L 2.941406 368.609375 C 8.050781 368.609375 12.230469 372.746094 12.230469 377.902344 L 246.171875 377.902344 C 246.171875 372.789062 250.304688 368.609375 255.460938 368.609375 L 255.460938 12.515625 C 250.351562 12.515625 246.171875 8.382812 246.171875 3.226562 Z M 246.171875 3.226562 " clip-rule="nonzero"/></clipPath></defs><g clip-path="url(#da6c83c4e2)"><g clip-path="url(#d022a5daca)"><path stroke-linecap="butt" transform="matrix(0.748558, 0, 0, 0.748558, 0, 0.242496)" fill="none" stroke-linejoin="miter" d="M 332.514465 -0.000411856 L 12.691073 -0.000411856 C 12.691073 6.981766 7.044798 12.690661 0 12.690661 L 0 495.807252 C 6.982178 495.807252 12.691073 501.453527 12.691073 508.498325 L 332.514465 508.498325 C 332.514465 501.516147 338.16074 495.807252 345.205538 495.807252 L 345.205538 12.690661 C 338.218142 12.690661 332.514465 7.044386 332.514465 -0.000411856 Z M 332.514465 -0.000411856 " stroke="#113c25" stroke-width="2" stroke-opacity="1" stroke-miterlimit="4"/></g></g><g clip-path="url(#71f26105ce)"><g clip-path="url(#d6e312b839)"><path fill="#113c25" d="M 244.675781 3.976562 L 243.925781 3.976562 L 243.925781 2.476562 L 244.675781 2.476562 Z M 243.179688 3.976562 L 242.429688 3.976562 L 242.429688 2.476562 L 243.179688 2.476562 Z M 241.679688 3.976562 L 240.933594 3.976562 L 240.933594 2.476562 L 241.679688 2.476562 Z M 240.183594 3.976562 L 239.4375 3.976562 L 239.4375 2.476562 L 240.183594 2.476562 Z M 238.6875 3.976562 L 237.9375 3.976562 L 237.9375 2.476562 L 238.6875 2.476562 Z M 237.191406 3.976562 L 236.441406 3.976562 L 236.441406 2.476562 L 237.191406 2.476562 Z M 235.691406 3.976562 L 234.945312 3.976562 L 234.945312 2.476562 L 235.691406 2.476562 Z M 234.195312 3.976562 L 233.449219 3.976562 L 233.449219 2.476562 L 234.195312 2.476562 Z M 232.699219 3.976562 L 231.949219 3.976562 L 231.949219 2.476562 L 232.699219 2.476562 Z M 231.203125 3.976562 L 230.453125 3.976562 L 230.453125 2.476562 L 231.203125 2.476562 Z M 229.703125 3.976562 L 228.957031 3.976562 L 228.957031 2.476562 L 229.703125 2.476562 Z M 228.207031 3.976562 L 227.460938 3.976562 L 227.460938 2.476562 L 228.207031 2.476562 Z M 226.710938 3.976562 L 225.960938 3.976562 L 225.960938 2.476562 L 226.710938 2.476562 Z M 225.214844 3.976562 L 224.464844 3.976562 L 224.464844 2.476562 L 225.214844 2.476562 Z M 223.714844 3.976562 L 222.96875 3.976562 L 222.96875 2.476562 L 223.714844 2.476562 Z M 222.21875 3.976562 L 221.46875 3.976562 L 221.46875 2.476562 L 222.21875 2.476562 Z M 220.722656 3.976562 L 219.972656 3.976562 L 219.972656 2.476562 L 220.722656 2.476562 Z M 219.226562 3.976562 L 218.476562 3.976562 L 218.476562 2.476562 L 219.226562 2.476562 Z M 217.726562 3.976562 L 216.980469 3.976562 L 216.980469 2.476562 L 217.726562 2.476562 Z M 216.230469 3.976562 L 215.480469 3.976562 L 215.480469 2.476562 L 216.230469 2.476562 Z M 214.734375 3.976562 L 213.984375 3.976562 L 213.984375 2.476562 L 214.734375 2.476562 Z M 213.238281 3.976562 L 212.488281 3.976562 L 212.488281 2.476562 L 213.238281 2.476562 Z M 211.738281 3.976562 L 210.992188 3.976562 L 210.992188 2.476562 L 211.738281 2.476562 Z M 210.242188 3.976562 L 209.492188 3.976562 L 209.492188 2.476562 L 210.242188 2.476562 Z M 208.746094 3.976562 L 207.996094 3.976562 L 207.996094 2.476562 L 208.746094 2.476562 Z M 207.246094 3.976562 L 206.5 3.976562 L 206.5 2.476562 L 207.246094 2.476562 Z M 205.75 3.976562 L 205.003906 3.976562 L 205.003906 2.476562 L 205.75 2.476562 Z M 204.253906 3.976562 L 203.503906 3.976562 L 203.503906 2.476562 L 204.253906 2.476562 Z M 202.757812 3.976562 L 202.007812 3.976562 L 202.007812 2.476562 L 202.757812 2.476562 Z M 201.257812 3.976562 L 200.511719 3.976562 L 200.511719 2.476562 L 201.257812 2.476562 Z M 199.761719 3.976562 L 199.015625 3.976562 L 199.015625 2.476562 L 199.761719 2.476562 Z M 198.265625 3.976562 L 197.515625 3.976562 L 197.515625 2.476562 L 198.265625 2.476562 Z M 196.769531 3.976562 L 196.019531 3.976562 L 196.019531 2.476562 L 196.769531 2.476562 Z M 195.269531 3.976562 L 194.523438 3.976562 L 194.523438 2.476562 L 195.269531 2.476562 Z M 193.773438 3.976562 L 193.023438 3.976562 L 193.023438 2.476562 L 193.773438 2.476562 Z M 192.277344 3.976562 L 191.527344 3.976562 L 191.527344 2.476562 L 192.277344 2.476562 Z M 190.78125 3.976562 L 190.03125 3.976562 L 190.03125 2.476562 L 190.78125 2.476562 Z M 189.28125 3.976562 L 188.535156 3.976562 L 188.535156 2.476562 L 189.28125 2.476562 Z M 187.785156 3.976562 L 187.035156 3.976562 L 187.035156 2.476562 L 187.785156 2.476562 Z M 186.289062 3.976562 L 185.539062 3.976562 L 185.539062 2.476562 L 186.289062 2.476562 Z M 184.792969 3.976562 L 184.042969 3.976562 L 184.042969 2.476562 L 184.792969 2.476562 Z M 183.292969 3.976562 L 182.546875 3.976562 L 182.546875 2.476562 L 183.292969 2.476562 Z M 181.796875 3.976562 L 181.046875 3.976562 L 181.046875 2.476562 L 181.796875 2.476562 Z M 180.300781 3.976562 L 179.550781 3.976562 L 179.550781 2.476562 L 180.300781 2.476562 Z M 178.804688 3.976562 L 178.054688 3.976562 L 178.054688 2.476562 L 178.804688 2.476562 Z M 177.304688 3.976562 L 176.558594 3.976562 L 176.558594 2.476562 L 177.304688 2.476562 Z M 175.808594 3.976562 L 175.058594 3.976562 L 175.058594 2.476562 L 175.808594 2.476562 Z M 174.3125 3.976562 L 173.5625 3.976562 L 173.5625 2.476562 L 174.3125 2.476562 Z M 172.8125 3.976562 L 172.066406 3.976562 L 172.066406 2.476562 L 172.8125 2.476562 Z M 171.316406 3.976562 L 170.570312 3.976562 L 170.570312 2.476562 L 171.316406 2.476562 Z M 169.820312 3.976562 L 169.070312 3.976562 L 169.070312 2.476562 L 169.820312 2.476562 Z M 168.324219 3.976562 L 167.574219 3.976562 L 167.574219 2.476562 L 168.324219 2.476562 Z M 166.824219 3.976562 L 166.078125 3.976562 L 166.078125 2.476562 L 166.824219 2.476562 Z M 165.328125 3.976562 L 164.582031 3.976562 L 164.582031 2.476562 L 165.328125 2.476562 Z M 163.832031 3.976562 L 163.082031 3.976562 L 163.082031 2.476562 L 163.832031 2.476562 Z M 162.335938 3.976562 L 161.585938 3.976562 L 161.585938 2.476562 L 162.335938 2.476562 Z M 160.835938 3.976562 L 160.089844 3.976562 L 160.089844 2.476562 L 160.835938 2.476562 Z M 159.339844 3.976562 L 158.589844 3.976562 L 158.589844 2.476562 L 159.339844 2.476562 Z M 157.84375 3.976562 L 157.09375 3.976562 L 157.09375 2.476562 L 157.84375 2.476562 Z M 156.347656 3.976562 L 155.597656 3.976562 L 155.597656 2.476562 L 156.347656 2.476562 Z M 154.847656 3.976562 L 154.101562 3.976562 L 154.101562 2.476562 L 154.847656 2.476562 Z M 153.351562 3.976562 L 152.601562 3.976562 L 152.601562 2.476562 L 153.351562 2.476562 Z M 151.855469 3.976562 L 151.105469 3.976562 L 151.105469 2.476562 L 151.855469 2.476562 Z M 150.359375 3.976562 L 149.609375 3.976562 L 149.609375 2.476562 L 150.359375 2.476562 Z M 148.859375 3.976562 L 148.113281 3.976562 L 148.113281 2.476562 L 148.859375 2.476562 Z M 147.363281 3.976562 L 146.613281 3.976562 L 146.613281 2.476562 L 147.363281 2.476562 Z M 145.867188 3.976562 L 145.117188 3.976562 L 145.117188 2.476562 L 145.867188 2.476562 Z M 144.367188 3.976562 L 143.621094 3.976562 L 143.621094 2.476562 L 144.367188 2.476562 Z M 142.871094 3.976562 L 142.125 3.976562 L 142.125 2.476562 L 142.871094 2.476562 Z M 141.375 3.976562 L 140.625 3.976562 L 140.625 2.476562 L 141.375 2.476562 Z M 139.878906 3.976562 L 139.128906 3.976562 L 139.128906 2.476562 L 139.878906 2.476562 Z M 138.378906 3.976562 L 137.632812 3.976562 L 137.632812 2.476562 L 138.378906 2.476562 Z M 136.882812 3.976562 L 136.136719 3.976562 L 136.136719 2.476562 L 136.882812 2.476562 Z M 135.386719 3.976562 L 134.636719 3.976562 L 134.636719 2.476562 L 135.386719 2.476562 Z M 133.890625 3.976562 L 133.140625 3.976562 L 133.140625 2.476562 L 133.890625 2.476562 Z M 132.390625 3.976562 L 131.644531 3.976562 L 131.644531 2.476562 L 132.390625 2.476562 Z M 130.894531 3.976562 L 130.148438 3.976562 L 130.148438 2.476562 L 130.894531 2.476562 Z M 129.398438 3.976562 L 128.648438 3.976562 L 128.648438 2.476562 L 129.398438 2.476562 Z M 127.902344 3.976562 L 127.152344 3.976562 L 127.152344 2.476562 L 127.902344 2.476562 Z M 126.402344 3.976562 L 125.65625 3.976562 L 125.65625 2.476562 L 126.402344 2.476562 Z M 124.90625 3.976562 L 124.15625 3.976562 L 124.15625 2.476562 L 124.90625 2.476562 Z M 123.410156 3.976562 L 122.660156 3.976562 L 122.660156 2.476562 L 123.410156 2.476562 Z M 121.914062 3.976562 L 121.164062 3.976562 L 121.164062 2.476562 L 121.914062 2.476562 Z M 120.414062 3.976562 L 119.667969 3.976562 L 119.667969 2.476562 L 120.414062 2.476562 Z M 118.917969 3.976562 L 118.167969 3.976562 L 118.167969 2.476562 L 118.917969 2.476562 Z M 117.421875 3.976562 L 116.671875 3.976562 L 116.671875 2.476562 L 117.421875 2.476562 Z M 115.925781 3.976562 L 115.175781 3.976562 L 115.175781 2.476562 L 115.925781 2.476562 Z M 114.425781 3.976562 L 113.679688 3.976562 L 113.679688 2.476562 L 114.425781 2.476562 Z M 112.929688 3.976562 L 112.179688 3.976562 L 112.179688 2.476562 L 112.929688 2.476562 Z M 111.433594 3.976562 L 110.683594 3.976562 L 110.683594 2.476562 L 111.433594 2.476562 Z M 109.933594 3.976562 L 109.1875 3.976562 L 109.1875 2.476562 L 109.933594 2.476562 Z M 108.4375 3.976562 L 107.691406 3.976562 L 107.691406 2.476562 L 108.4375 2.476562 Z M 106.941406 3.976562 L 106.191406 3.976562 L 106.191406 2.476562 L 106.941406 2.476562 Z M 105.445312 3.976562 L 104.695312 3.976562 L 104.695312 2.476562 L 105.445312 2.476562 Z M 103.945312 3.976562 L 103.199219 3.976562 L 103.199219 2.476562 L 103.945312 2.476562 Z M 102.449219 3.976562 L 101.703125 3.976562 L 101.703125 2.476562 L 102.449219 2.476562 Z M 100.953125 3.976562 L 100.203125 3.976562 L 100.203125 2.476562 L 100.953125 2.476562 Z M 99.457031 3.976562 L 98.707031 3.976562 L 98.707031 2.476562 L 99.457031 2.476562 Z M 97.957031 3.976562 L 97.210938 3.976562 L 97.210938 2.476562 L 97.957031 2.476562 Z M 96.460938 3.976562 L 95.710938 3.976562 L 95.710938 2.476562 L 96.460938 2.476562 Z M 94.964844 3.976562 L 94.214844 3.976562 L 94.214844 2.476562 L 94.964844 2.476562 Z M 93.46875 3.976562 L 92.71875 3.976562 L 92.71875 2.476562 L 93.46875 2.476562 Z M 91.96875 3.976562 L 91.222656 3.976562 L 91.222656 2.476562 L 91.96875 2.476562 Z M 90.472656 3.976562 L 89.722656 3.976562 L 89.722656 2.476562 L 90.472656 2.476562 Z M 88.976562 3.976562 L 88.226562 3.976562 L 88.226562 2.476562 L 88.976562 2.476562 Z M 87.480469 3.976562 L 86.730469 3.976562 L 86.730469 2.476562 L 87.480469 2.476562 Z M 85.980469 3.976562 L 85.234375 3.976562 L 85.234375 2.476562 L 85.980469 2.476562 Z M 84.484375 3.976562 L 83.734375 3.976562 L 83.734375 2.476562 L 84.484375 2.476562 Z M 82.988281 3.976562 L 82.238281 3.976562 L 82.238281 2.476562 L 82.988281 2.476562 Z M 81.492188 3.976562 L 80.742188 3.976562 L 80.742188 2.476562 L 81.492188 2.476562 Z M 79.992188 3.976562 L 79.246094 3.976562 L 79.246094 2.476562 L 79.992188 2.476562 Z M 78.496094 3.976562 L 77.746094 3.976562 L 77.746094 2.476562 L 78.496094 2.476562 Z M 77 3.976562 L 76.25 3.976562 L 76.25 2.476562 L 77 2.476562 Z M 75.5 3.976562 L 74.753906 3.976562 L 74.753906 2.476562 L 75.5 2.476562 Z M 74.003906 3.976562 L 73.257812 3.976562 L 73.257812 2.476562 L 74.003906 2.476562 Z M 72.507812 3.976562 L 71.757812 3.976562 L 71.757812 2.476562 L 72.507812 2.476562 Z M 71.011719 3.976562 L 70.261719 3.976562 L 70.261719 2.476562 L 71.011719 2.476562 Z M 69.511719 3.976562 L 68.765625 3.976562 L 68.765625 2.476562 L 69.511719 2.476562 Z M 68.015625 3.976562 L 67.269531 3.976562 L 67.269531 2.476562 L 68.015625 2.476562 Z M 66.519531 3.976562 L 65.769531 3.976562 L 65.769531 2.476562 L 66.519531 2.476562 Z M 65.023438 3.976562 L 64.273438 3.976562 L 64.273438 2.476562 L 65.023438 2.476562 Z M 63.523438 3.976562 L 62.777344 3.976562 L 62.777344 2.476562 L 63.523438 2.476562 Z M 62.027344 3.976562 L 61.277344 3.976562 L 61.277344 2.476562 L 62.027344 2.476562 Z M 60.53125 3.976562 L 59.78125 3.976562 L 59.78125 2.476562 L 60.53125 2.476562 Z M 59.035156 3.976562 L 58.285156 3.976562 L 58.285156 2.476562 L 59.035156 2.476562 Z M 57.535156 3.976562 L 56.789062 3.976562 L 56.789062 2.476562 L 57.535156 2.476562 Z M 56.039062 3.976562 L 55.289062 3.976562 L 55.289062 2.476562 L 56.039062 2.476562 Z M 54.542969 3.976562 L 53.792969 3.976562 L 53.792969 2.476562 L 54.542969 2.476562 Z M 53.046875 3.976562 L 52.296875 3.976562 L 52.296875 2.476562 L 53.046875 2.476562 Z M 51.546875 3.976562 L 50.800781 3.976562 L 50.800781 2.476562 L 51.546875 2.476562 Z M 50.050781 3.976562 L 49.300781 3.976562 L 49.300781 2.476562 L 50.050781 2.476562 Z M 48.554688 3.976562 L 47.804688 3.976562 L 47.804688 2.476562 L 48.554688 2.476562 Z M 47.054688 3.976562 L 46.308594 3.976562 L 46.308594 2.476562 L 47.054688 2.476562 Z M 45.558594 3.976562 L 44.8125 3.976562 L 44.8125 2.476562 L 45.558594 2.476562 Z M 44.0625 3.976562 L 43.3125 3.976562 L 43.3125 2.476562 L 44.0625 2.476562 Z M 42.566406 3.976562 L 41.816406 3.976562 L 41.816406 2.476562 L 42.566406 2.476562 Z M 41.066406 3.976562 L 40.320312 3.976562 L 40.320312 2.476562 L 41.066406 2.476562 Z M 39.570312 3.976562 L 38.824219 3.976562 L 38.824219 2.476562 L 39.570312 2.476562 Z M 38.074219 3.976562 L 37.324219 3.976562 L 37.324219 2.476562 L 38.074219 2.476562 Z M 36.578125 3.976562 L 35.828125 3.976562 L 35.828125 2.476562 L 36.578125 2.476562 Z M 35.078125 3.976562 L 34.332031 3.976562 L 34.332031 2.476562 L 35.078125 2.476562 Z M 33.582031 3.976562 L 32.835938 3.976562 L 32.835938 2.476562 L 33.582031 2.476562 Z M 32.085938 3.976562 L 31.335938 3.976562 L 31.335938 2.476562 L 32.085938 2.476562 Z M 30.589844 3.976562 L 29.839844 3.976562 L 29.839844 2.476562 L 30.589844 2.476562 Z M 29.089844 3.976562 L 28.34375 3.976562 L 28.34375 2.476562 L 29.089844 2.476562 Z M 27.59375 3.976562 L 26.84375 3.976562 L 26.84375 2.476562 L 27.59375 2.476562 Z M 26.097656 3.976562 L 25.347656 3.976562 L 25.347656 2.476562 L 26.097656 2.476562 Z M 24.601562 3.976562 L 23.851562 3.976562 L 23.851562 2.476562 L 24.601562 2.476562 Z M 23.101562 3.976562 L 22.355469 3.976562 L 22.355469 2.476562 L 23.101562 2.476562 Z M 21.605469 3.976562 L 20.855469 3.976562 L 20.855469 2.476562 L 21.605469 2.476562 Z M 20.109375 3.976562 L 19.359375 3.976562 L 19.359375 2.476562 L 20.109375 2.476562 Z M 18.613281 3.976562 L 17.863281 3.976562 L 17.863281 2.476562 L 18.613281 2.476562 Z M 17.113281 3.976562 L 16.367188 3.976562 L 16.367188 2.476562 L 17.113281 2.476562 Z M 15.617188 3.976562 L 14.867188 3.976562 L 14.867188 2.476562 L 15.617188 2.476562 Z M 14.121094 3.976562 L 13.371094 3.976562 L 13.371094 2.476562 L 14.121094 2.476562 Z M 12.621094 3.976562 L 12.230469 3.976562 L 12.230469 3.226562 L 12.980469 3.226562 C 12.980469 3.359375 12.976562 3.492188 12.972656 3.625 L 11.476562 3.566406 C 11.480469 3.453125 11.480469 3.339844 11.480469 3.226562 L 11.480469 2.476562 L 12.621094 2.476562 Z M 12.90625 4.449219 C 12.871094 4.722656 12.828125 4.992188 12.773438 5.257812 L 11.308594 4.957031 C 11.355469 4.730469 11.390625 4.5 11.417969 4.269531 Z M 12.578125 6.042969 C 12.503906 6.296875 12.417969 6.550781 12.324219 6.800781 L 10.925781 6.265625 C 11.007812 6.054688 11.078125 5.839844 11.140625 5.621094 Z M 12.007812 7.542969 C 11.890625 7.789062 11.761719 8.03125 11.625 8.265625 L 10.332031 7.515625 C 10.445312 7.3125 10.554688 7.109375 10.65625 6.898438 Z M 11.1875 8.953125 C 11.035156 9.175781 10.871094 9.390625 10.699219 9.597656 L 9.542969 8.648438 C 9.6875 8.472656 9.828125 8.289062 9.957031 8.097656 Z M 10.160156 10.203125 C 9.972656 10.398438 9.777344 10.585938 9.574219 10.761719 L 8.585938 9.640625 C 8.757812 9.488281 8.921875 9.328125 9.082031 9.164062 Z M 8.945312 11.273438 C 8.730469 11.4375 8.503906 11.589844 8.277344 11.734375 L 7.480469 10.464844 C 7.675781 10.34375 7.863281 10.214844 8.050781 10.074219 Z M 7.566406 12.140625 C 7.324219 12.265625 7.078125 12.382812 6.828125 12.488281 L 6.246094 11.105469 C 6.460938 11.015625 6.671875 10.917969 6.878906 10.8125 Z M 6.082031 12.765625 C 5.824219 12.847656 5.566406 12.921875 5.308594 12.984375 L 4.957031 11.53125 C 5.179688 11.476562 5.398438 11.414062 5.613281 11.34375 Z M 4.511719 13.144531 C 4.238281 13.1875 3.964844 13.21875 3.691406 13.238281 L 3.582031 11.742188 C 3.816406 11.726562 4.046875 11.699219 4.277344 11.664062 Z M 3.691406 12.59375 L 3.691406 13.34375 L 2.191406 13.34375 L 2.191406 12.59375 Z M 3.691406 14.089844 L 3.691406 14.839844 L 2.191406 14.839844 L 2.191406 14.089844 Z M 3.691406 15.585938 L 3.691406 16.335938 L 2.191406 16.335938 L 2.191406 15.585938 Z M 3.691406 17.085938 L 3.691406 17.832031 L 2.191406 17.832031 L 2.191406 17.085938 Z M 3.691406 18.582031 L 3.691406 19.332031 L 2.191406 19.332031 L 2.191406 18.582031 Z M 3.691406 20.078125 L 3.691406 20.828125 L 2.191406 20.828125 L 2.191406 20.078125 Z M 3.691406 21.574219 L 3.691406 22.324219 L 2.191406 22.324219 L 2.191406 21.574219 Z M 3.691406 23.074219 L 3.691406 23.820312 L 2.191406 23.820312 L 2.191406 23.074219 Z M 3.691406 24.570312 L 3.691406 25.320312 L 2.191406 25.320312 L 2.191406 24.570312 Z M 3.691406 26.066406 L 3.691406 26.816406 L 2.191406 26.816406 L 2.191406 26.066406 Z M 3.691406 27.566406 L 3.691406 28.3125 L 2.191406 28.3125 L 2.191406 27.566406 Z M 3.691406 29.0625 L 3.691406 29.808594 L 2.191406 29.808594 L 2.191406 29.0625 Z M 3.691406 30.558594 L 3.691406 31.308594 L 2.191406 31.308594 L 2.191406 30.558594 Z M 3.691406 32.054688 L 3.691406 32.804688 L 2.191406 32.804688 L 2.191406 32.054688 Z M 3.691406 33.554688 L 3.691406 34.300781 L 2.191406 34.300781 L 2.191406 33.554688 Z M 3.691406 35.050781 L 3.691406 35.796875 L 2.191406 35.796875 L 2.191406 35.050781 Z M 3.691406 36.546875 L 3.691406 37.296875 L 2.191406 37.296875 L 2.191406 36.546875 Z M 3.691406 38.042969 L 3.691406 38.792969 L 2.191406 38.792969 L 2.191406 38.042969 Z M 3.691406 39.542969 L 3.691406 40.289062 L 2.191406 40.289062 L 2.191406 39.542969 Z M 3.691406 41.039062 L 3.691406 41.789062 L 2.191406 41.789062 L 2.191406 41.039062 Z M 3.691406 42.535156 L 3.691406 43.285156 L 2.191406 43.285156 L 2.191406 42.535156 Z M 3.691406 44.03125 L 3.691406 44.78125 L 2.191406 44.78125 L 2.191406 44.03125 Z M 3.691406 45.53125 L 3.691406 46.277344 L 2.191406 46.277344 L 2.191406 45.53125 Z M 3.691406 47.027344 L 3.691406 47.777344 L 2.191406 47.777344 L 2.191406 47.027344 Z M 3.691406 48.523438 L 3.691406 49.273438 L 2.191406 49.273438 L 2.191406 48.523438 Z M 3.691406 50.019531 L 3.691406 50.769531 L 2.191406 50.769531 L 2.191406 50.019531 Z M 3.691406 51.519531 L 3.691406 52.265625 L 2.191406 52.265625 L 2.191406 51.519531 Z M 3.691406 53.015625 L 3.691406 53.765625 L 2.191406 53.765625 L 2.191406 53.015625 Z M 3.691406 54.511719 L 3.691406 55.261719 L 2.191406 55.261719 L 2.191406 54.511719 Z M 3.691406 56.011719 L 3.691406 56.757812 L 2.191406 56.757812 L 2.191406 56.011719 Z M 3.691406 57.507812 L 3.691406 58.253906 L 2.191406 58.253906 L 2.191406 57.507812 Z M 3.691406 59.003906 L 3.691406 59.753906 L 2.191406 59.753906 L 2.191406 59.003906 Z M 3.691406 60.5 L 3.691406 61.25 L 2.191406 61.25 L 2.191406 60.5 Z M 3.691406 62 L 3.691406 62.746094 L 2.191406 62.746094 L 2.191406 62 Z M 3.691406 63.496094 L 3.691406 64.242188 L 2.191406 64.242188 L 2.191406 63.496094 Z M 3.691406 64.992188 L 3.691406 65.742188 L 2.191406 65.742188 L 2.191406 64.992188 Z M 3.691406 66.488281 L 3.691406 67.238281 L 2.191406 67.238281 L 2.191406 66.488281 Z M 3.691406 67.988281 L 3.691406 68.734375 L 2.191406 68.734375 L 2.191406 67.988281 Z M 3.691406 69.484375 L 3.691406 70.230469 L 2.191406 70.230469 L 2.191406 69.484375 Z M 3.691406 70.980469 L 3.691406 71.730469 L 2.191406 71.730469 L 2.191406 70.980469 Z M 3.691406 72.476562 L 3.691406 73.226562 L 2.191406 73.226562 L 2.191406 72.476562 Z M 3.691406 73.976562 L 3.691406 74.722656 L 2.191406 74.722656 L 2.191406 73.976562 Z M 3.691406 75.472656 L 3.691406 76.222656 L 2.191406 76.222656 L 2.191406 75.472656 Z M 3.691406 76.96875 L 3.691406 77.71875 L 2.191406 77.71875 L 2.191406 76.96875 Z M 3.691406 78.464844 L 3.691406 79.214844 L 2.191406 79.214844 L 2.191406 78.464844 Z M 3.691406 79.964844 L 3.691406 80.710938 L 2.191406 80.710938 L 2.191406 79.964844 Z M 3.691406 81.460938 L 3.691406 82.210938 L 2.191406 82.210938 L 2.191406 81.460938 Z M 3.691406 82.957031 L 3.691406 83.707031 L 2.191406 83.707031 L 2.191406 82.957031 Z M 3.691406 84.453125 L 3.691406 85.203125 L 2.191406 85.203125 L 2.191406 84.453125 Z M 3.691406 85.953125 L 3.691406 86.699219 L 2.191406 86.699219 L 2.191406 85.953125 Z M 3.691406 87.449219 L 3.691406 88.199219 L 2.191406 88.199219 L 2.191406 87.449219 Z M 3.691406 88.945312 L 3.691406 89.695312 L 2.191406 89.695312 L 2.191406 88.945312 Z M 3.691406 90.445312 L 3.691406 91.191406 L 2.191406 91.191406 L 2.191406 90.445312 Z M 3.691406 91.941406 L 3.691406 92.6875 L 2.191406 92.6875 L 2.191406 91.941406 Z M 3.691406 93.4375 L 3.691406 94.1875 L 2.191406 94.1875 L 2.191406 93.4375 Z M 3.691406 94.933594 L 3.691406 95.683594 L 2.191406 95.683594 L 2.191406 94.933594 Z M 3.691406 96.433594 L 3.691406 97.179688 L 2.191406 97.179688 L 2.191406 96.433594 Z M 3.691406 97.929688 L 3.691406 98.675781 L 2.191406 98.675781 L 2.191406 97.929688 Z M 3.691406 99.425781 L 3.691406 100.175781 L 2.191406 100.175781 L 2.191406 99.425781 Z M 3.691406 100.921875 L 3.691406 101.671875 L 2.191406 101.671875 L 2.191406 100.921875 Z M 3.691406 102.421875 L 3.691406 103.167969 L 2.191406 103.167969 L 2.191406 102.421875 Z M 3.691406 103.917969 L 3.691406 104.667969 L 2.191406 104.667969 L 2.191406 103.917969 Z M 3.691406 105.414062 L 3.691406 106.164062 L 2.191406 106.164062 L 2.191406 105.414062 Z M 3.691406 106.910156 L 3.691406 107.660156 L 2.191406 107.660156 L 2.191406 106.910156 Z M 3.691406 108.410156 L 3.691406 109.15625 L 2.191406 109.15625 L 2.191406 108.410156 Z M 3.691406 109.90625 L 3.691406 110.65625 L 2.191406 110.65625 L 2.191406 109.90625 Z M 3.691406 111.402344 L 3.691406 112.152344 L 2.191406 112.152344 L 2.191406 111.402344 Z M 3.691406 112.898438 L 3.691406 113.648438 L 2.191406 113.648438 L 2.191406 112.898438 Z M 3.691406 114.398438 L 3.691406 115.144531 L 2.191406 115.144531 L 2.191406 114.398438 Z M 3.691406 115.894531 L 3.691406 116.644531 L 2.191406 116.644531 L 2.191406 115.894531 Z M 3.691406 117.390625 L 3.691406 118.140625 L 2.191406 118.140625 L 2.191406 117.390625 Z M 3.691406 118.886719 L 3.691406 119.636719 L 2.191406 119.636719 L 2.191406 118.886719 Z M 3.691406 120.386719 L 3.691406 121.132812 L 2.191406 121.132812 L 2.191406 120.386719 Z M 3.691406 121.882812 L 3.691406 122.632812 L 2.191406 122.632812 L 2.191406 121.882812 Z M 3.691406 123.378906 L 3.691406 124.128906 L 2.191406 124.128906 L 2.191406 123.378906 Z M 3.691406 124.878906 L 3.691406 125.625 L 2.191406 125.625 L 2.191406 124.878906 Z M 3.691406 126.375 L 3.691406 127.121094 L 2.191406 127.121094 L 2.191406 126.375 Z M 3.691406 127.871094 L 3.691406 128.621094 L 2.191406 128.621094 L 2.191406 127.871094 Z M 3.691406 129.367188 L 3.691406 130.117188 L 2.191406 130.117188 L 2.191406 129.367188 Z M 3.691406 130.867188 L 3.691406 131.613281 L 2.191406 131.613281 L 2.191406 130.867188 Z M 3.691406 132.363281 L 3.691406 133.109375 L 2.191406 133.109375 L 2.191406 132.363281 Z M 3.691406 133.859375 L 3.691406 134.609375 L 2.191406 134.609375 L 2.191406 133.859375 Z M 3.691406 135.355469 L 3.691406 136.105469 L 2.191406 136.105469 L 2.191406 135.355469 Z M 3.691406 136.855469 L 3.691406 137.601562 L 2.191406 137.601562 L 2.191406 136.855469 Z M 3.691406 138.351562 L 3.691406 139.101562 L 2.191406 139.101562 L 2.191406 138.351562 Z M 3.691406 139.847656 L 3.691406 140.597656 L 2.191406 140.597656 L 2.191406 139.847656 Z M 3.691406 141.34375 L 3.691406 142.09375 L 2.191406 142.09375 L 2.191406 141.34375 Z M 3.691406 142.84375 L 3.691406 143.589844 L 2.191406 143.589844 L 2.191406 142.84375 Z M 3.691406 144.339844 L 3.691406 145.089844 L 2.191406 145.089844 L 2.191406 144.339844 Z M 3.691406 145.835938 L 3.691406 146.585938 L 2.191406 146.585938 L 2.191406 145.835938 Z M 3.691406 147.332031 L 3.691406 148.082031 L 2.191406 148.082031 L 2.191406 147.332031 Z M 3.691406 148.832031 L 3.691406 149.578125 L 2.191406 149.578125 L 2.191406 148.832031 Z M 3.691406 150.328125 L 3.691406 151.078125 L 2.191406 151.078125 L 2.191406 150.328125 Z M 3.691406 151.824219 L 3.691406 152.574219 L 2.191406 152.574219 L 2.191406 151.824219 Z M 3.691406 153.324219 L 3.691406 154.070312 L 2.191406 154.070312 L 2.191406 153.324219 Z M 3.691406 154.820312 L 3.691406 155.566406 L 2.191406 155.566406 L 2.191406 154.820312 Z M 3.691406 156.316406 L 3.691406 157.066406 L 2.191406 157.066406 L 2.191406 156.316406 Z M 3.691406 157.8125 L 3.691406 158.5625 L 2.191406 158.5625 L 2.191406 157.8125 Z M 3.691406 159.3125 L 3.691406 160.058594 L 2.191406 160.058594 L 2.191406 159.3125 Z M 3.691406 160.808594 L 3.691406 161.554688 L 2.191406 161.554688 L 2.191406 160.808594 Z M 3.691406 162.304688 L 3.691406 163.054688 L 2.191406 163.054688 L 2.191406 162.304688 Z M 3.691406 163.800781 L 3.691406 164.550781 L 2.191406 164.550781 L 2.191406 163.800781 Z M 3.691406 165.300781 L 3.691406 166.046875 L 2.191406 166.046875 L 2.191406 165.300781 Z M 3.691406 166.796875 L 3.691406 167.542969 L 2.191406 167.542969 L 2.191406 166.796875 Z M 3.691406 168.292969 L 3.691406 169.042969 L 2.191406 169.042969 L 2.191406 168.292969 Z M 3.691406 169.789062 L 3.691406 170.539062 L 2.191406 170.539062 L 2.191406 169.789062 Z M 3.691406 171.289062 L 3.691406 172.035156 L 2.191406 172.035156 L 2.191406 171.289062 Z M 3.691406 172.785156 L 3.691406 173.535156 L 2.191406 173.535156 L 2.191406 172.785156 Z M 3.691406 174.28125 L 3.691406 175.03125 L 2.191406 175.03125 L 2.191406 174.28125 Z M 3.691406 175.777344 L 3.691406 176.527344 L 2.191406 176.527344 L 2.191406 175.777344 Z M 3.691406 177.277344 L 3.691406 178.023438 L 2.191406 178.023438 L 2.191406 177.277344 Z M 3.691406 178.773438 L 3.691406 179.523438 L 2.191406 179.523438 L 2.191406 178.773438 Z M 3.691406 180.269531 L 3.691406 181.019531 L 2.191406 181.019531 L 2.191406 180.269531 Z M 3.691406 181.765625 L 3.691406 182.515625 L 2.191406 182.515625 L 2.191406 181.765625 Z M 3.691406 183.265625 L 3.691406 184.011719 L 2.191406 184.011719 L 2.191406 183.265625 Z M 3.691406 184.761719 L 3.691406 185.511719 L 2.191406 185.511719 L 2.191406 184.761719 Z M 3.691406 186.257812 L 3.691406 187.007812 L 2.191406 187.007812 L 2.191406 186.257812 Z M 3.691406 187.757812 L 3.691406 188.503906 L 2.191406 188.503906 L 2.191406 187.757812 Z M 3.691406 189.253906 L 3.691406 190 L 2.191406 190 L 2.191406 189.253906 Z M 3.691406 190.75 L 3.691406 191.5 L 2.191406 191.5 L 2.191406 190.75 Z M 3.691406 192.246094 L 3.691406 192.996094 L 2.191406 192.996094 L 2.191406 192.246094 Z M 3.691406 193.746094 L 3.691406 194.492188 L 2.191406 194.492188 L 2.191406 193.746094 Z M 3.691406 195.242188 L 3.691406 195.988281 L 2.191406 195.988281 L 2.191406 195.242188 Z M 3.691406 196.738281 L 3.691406 197.488281 L 2.191406 197.488281 L 2.191406 196.738281 Z M 3.691406 198.234375 L 3.691406 198.984375 L 2.191406 198.984375 L 2.191406 198.234375 Z M 3.691406 199.734375 L 3.691406 200.480469 L 2.191406 200.480469 L 2.191406 199.734375 Z M 3.691406 201.230469 L 3.691406 201.980469 L 2.191406 201.980469 L 2.191406 201.230469 Z M 3.691406 202.726562 L 3.691406 203.476562 L 2.191406 203.476562 L 2.191406 202.726562 Z M 3.691406 204.222656 L 3.691406 204.972656 L 2.191406 204.972656 L 2.191406 204.222656 Z M 3.691406 205.722656 L 3.691406 206.46875 L 2.191406 206.46875 L 2.191406 205.722656 Z M 3.691406 207.21875 L 3.691406 207.96875 L 2.191406 207.96875 L 2.191406 207.21875 Z M 3.691406 208.714844 L 3.691406 209.464844 L 2.191406 209.464844 L 2.191406 208.714844 Z M 3.691406 210.210938 L 3.691406 210.960938 L 2.191406 210.960938 L 2.191406 210.210938 Z M 3.691406 211.710938 L 3.691406 212.457031 L 2.191406 212.457031 L 2.191406 211.710938 Z M 3.691406 213.207031 L 3.691406 213.957031 L 2.191406 213.957031 L 2.191406 213.207031 Z M 3.691406 214.703125 L 3.691406 215.453125 L 2.191406 215.453125 L 2.191406 214.703125 Z M 3.691406 216.199219 L 3.691406 216.949219 L 2.191406 216.949219 L 2.191406 216.199219 Z M 3.691406 217.699219 L 3.691406 218.445312 L 2.191406 218.445312 L 2.191406 217.699219 Z M 3.691406 219.195312 L 3.691406 219.945312 L 2.191406 219.945312 L 2.191406 219.195312 Z M 3.691406 220.691406 L 3.691406 221.441406 L 2.191406 221.441406 L 2.191406 220.691406 Z M 3.691406 222.191406 L 3.691406 222.9375 L 2.191406 222.9375 L 2.191406 222.191406 Z M 3.691406 223.6875 L 3.691406 224.433594 L 2.191406 224.433594 L 2.191406 223.6875 Z M 3.691406 225.183594 L 3.691406 225.933594 L 2.191406 225.933594 L 2.191406 225.183594 Z M 3.691406 226.679688 L 3.691406 227.429688 L 2.191406 227.429688 L 2.191406 226.679688 Z M 3.691406 228.179688 L 3.691406 228.925781 L 2.191406 228.925781 L 2.191406 228.179688 Z M 3.691406 229.675781 L 3.691406 230.421875 L 2.191406 230.421875 L 2.191406 229.675781 Z M 3.691406 231.171875 L 3.691406 231.921875 L 2.191406 231.921875 L 2.191406 231.171875 Z M 3.691406 232.667969 L 3.691406 233.417969 L 2.191406 233.417969 L 2.191406 232.667969 Z M 3.691406 234.167969 L 3.691406 234.914062 L 2.191406 234.914062 L 2.191406 234.167969 Z M 3.691406 235.664062 L 3.691406 236.414062 L 2.191406 236.414062 L 2.191406 235.664062 Z M 3.691406 237.160156 L 3.691406 237.910156 L 2.191406 237.910156 L 2.191406 237.160156 Z M 3.691406 238.65625 L 3.691406 239.40625 L 2.191406 239.40625 L 2.191406 238.65625 Z M 3.691406 240.15625 L 3.691406 240.902344 L 2.191406 240.902344 L 2.191406 240.15625 Z M 3.691406 241.652344 L 3.691406 242.402344 L 2.191406 242.402344 L 2.191406 241.652344 Z M 3.691406 243.148438 L 3.691406 243.898438 L 2.191406 243.898438 L 2.191406 243.148438 Z M 3.691406 244.644531 L 3.691406 245.394531 L 2.191406 245.394531 L 2.191406 244.644531 Z M 3.691406 246.144531 L 3.691406 246.890625 L 2.191406 246.890625 L 2.191406 246.144531 Z M 3.691406 247.640625 L 3.691406 248.390625 L 2.191406 248.390625 L 2.191406 247.640625 Z M 3.691406 249.136719 L 3.691406 249.886719 L 2.191406 249.886719 L 2.191406 249.136719 Z M 3.691406 250.636719 L 3.691406 251.382812 L 2.191406 251.382812 L 2.191406 250.636719 Z M 3.691406 252.132812 L 3.691406 252.878906 L 2.191406 252.878906 L 2.191406 252.132812 Z M 3.691406 253.628906 L 3.691406 254.378906 L 2.191406 254.378906 L 2.191406 253.628906 Z M 3.691406 255.125 L 3.691406 255.875 L 2.191406 255.875 L 2.191406 255.125 Z M 3.691406 256.625 L 3.691406 257.371094 L 2.191406 257.371094 L 2.191406 256.625 Z M 3.691406 258.121094 L 3.691406 258.867188 L 2.191406 258.867188 L 2.191406 258.121094 Z M 3.691406 259.617188 L 3.691406 260.367188 L 2.191406 260.367188 L 2.191406 259.617188 Z M 3.691406 261.113281 L 3.691406 261.863281 L 2.191406 261.863281 L 2.191406 261.113281 Z M 3.691406 262.613281 L 3.691406 263.359375 L 2.191406 263.359375 L 2.191406 262.613281 Z M 3.691406 264.109375 L 3.691406 264.855469 L 2.191406 264.855469 L 2.191406 264.109375 Z M 3.691406 265.605469 L 3.691406 266.355469 L 2.191406 266.355469 L 2.191406 265.605469 Z M 3.691406 267.101562 L 3.691406 267.851562 L 2.191406 267.851562 L 2.191406 267.101562 Z M 3.691406 268.601562 L 3.691406 269.347656 L 2.191406 269.347656 L 2.191406 268.601562 Z M 3.691406 270.097656 L 3.691406 270.847656 L 2.191406 270.847656 L 2.191406 270.097656 Z M 3.691406 271.59375 L 3.691406 272.34375 L 2.191406 272.34375 L 2.191406 271.59375 Z M 3.691406 273.089844 L 3.691406 273.839844 L 2.191406 273.839844 L 2.191406 273.089844 Z M 3.691406 274.589844 L 3.691406 275.335938 L 2.191406 275.335938 L 2.191406 274.589844 Z M 3.691406 276.085938 L 3.691406 276.835938 L 2.191406 276.835938 L 2.191406 276.085938 Z M 3.691406 277.582031 L 3.691406 278.332031 L 2.191406 278.332031 L 2.191406 277.582031 Z M 3.691406 279.078125 L 3.691406 279.828125 L 2.191406 279.828125 L 2.191406 279.078125 Z M 3.691406 280.578125 L 3.691406 281.324219 L 2.191406 281.324219 L 2.191406 280.578125 Z M 3.691406 282.074219 L 3.691406 282.824219 L 2.191406 282.824219 L 2.191406 282.074219 Z M 3.691406 283.570312 L 3.691406 284.320312 L 2.191406 284.320312 L 2.191406 283.570312 Z M 3.691406 285.070312 L 3.691406 285.816406 L 2.191406 285.816406 L 2.191406 285.070312 Z M 3.691406 286.566406 L 3.691406 287.3125 L 2.191406 287.3125 L 2.191406 286.566406 Z M 3.691406 288.0625 L 3.691406 288.8125 L 2.191406 288.8125 L 2.191406 288.0625 Z M 3.691406 289.558594 L 3.691406 290.308594 L 2.191406 290.308594 L 2.191406 289.558594 Z M 3.691406 291.058594 L 3.691406 291.804688 L 2.191406 291.804688 L 2.191406 291.058594 Z M 3.691406 292.554688 L 3.691406 293.300781 L 2.191406 293.300781 L 2.191406 292.554688 Z M 3.691406 294.050781 L 3.691406 294.800781 L 2.191406 294.800781 L 2.191406 294.050781 Z M 3.691406 295.546875 L 3.691406 296.296875 L 2.191406 296.296875 L 2.191406 295.546875 Z M 3.691406 297.046875 L 3.691406 297.792969 L 2.191406 297.792969 L 2.191406 297.046875 Z M 3.691406 298.542969 L 3.691406 299.292969 L 2.191406 299.292969 L 2.191406 298.542969 Z M 3.691406 300.039062 L 3.691406 300.789062 L 2.191406 300.789062 L 2.191406 300.039062 Z M 3.691406 301.535156 L 3.691406 302.285156 L 2.191406 302.285156 L 2.191406 301.535156 Z M 3.691406 303.035156 L 3.691406 303.78125 L 2.191406 303.78125 L 2.191406 303.035156 Z M 3.691406 304.53125 L 3.691406 305.28125 L 2.191406 305.28125 L 2.191406 304.53125 Z M 3.691406 306.027344 L 3.691406 306.777344 L 2.191406 306.777344 L 2.191406 306.027344 Z M 3.691406 307.523438 L 3.691406 308.273438 L 2.191406 308.273438 L 2.191406 307.523438 Z M 3.691406 309.023438 L 3.691406 309.769531 L 2.191406 309.769531 L 2.191406 309.023438 Z M 3.691406 310.519531 L 3.691406 311.269531 L 2.191406 311.269531 L 2.191406 310.519531 Z M 3.691406 312.015625 L 3.691406 312.765625 L 2.191406 312.765625 L 2.191406 312.015625 Z M 3.691406 313.511719 L 3.691406 314.261719 L 2.191406 314.261719 L 2.191406 313.511719 Z M 3.691406 315.011719 L 3.691406 315.757812 L 2.191406 315.757812 L 2.191406 315.011719 Z M 3.691406 316.507812 L 3.691406 317.257812 L 2.191406 317.257812 L 2.191406 316.507812 Z M 3.691406 318.003906 L 3.691406 318.753906 L 2.191406 318.753906 L 2.191406 318.003906 Z M 3.691406 319.503906 L 3.691406 320.25 L 2.191406 320.25 L 2.191406 319.503906 Z M 3.691406 321 L 3.691406 321.746094 L 2.191406 321.746094 L 2.191406 321 Z M 3.691406 322.496094 L 3.691406 323.246094 L 2.191406 323.246094 L 2.191406 322.496094 Z M 3.691406 323.992188 L 3.691406 324.742188 L 2.191406 324.742188 L 2.191406 323.992188 Z M 3.691406 325.492188 L 3.691406 326.238281 L 2.191406 326.238281 L 2.191406 325.492188 Z M 3.691406 326.988281 L 3.691406 327.734375 L 2.191406 327.734375 L 2.191406 326.988281 Z M 3.691406 328.484375 L 3.691406 329.234375 L 2.191406 329.234375 L 2.191406 328.484375 Z M 3.691406 329.980469 L 3.691406 330.730469 L 2.191406 330.730469 L 2.191406 329.980469 Z M 3.691406 331.480469 L 3.691406 332.226562 L 2.191406 332.226562 L 2.191406 331.480469 Z M 3.691406 332.976562 L 3.691406 333.726562 L 2.191406 333.726562 L 2.191406 332.976562 Z M 3.691406 334.472656 L 3.691406 335.222656 L 2.191406 335.222656 L 2.191406 334.472656 Z M 3.691406 335.96875 L 3.691406 336.71875 L 2.191406 336.71875 L 2.191406 335.96875 Z M 3.691406 337.46875 L 3.691406 338.214844 L 2.191406 338.214844 L 2.191406 337.46875 Z M 3.691406 338.964844 L 3.691406 339.714844 L 2.191406 339.714844 L 2.191406 338.964844 Z M 3.691406 340.460938 L 3.691406 341.210938 L 2.191406 341.210938 L 2.191406 340.460938 Z M 3.691406 341.957031 L 3.691406 342.707031 L 2.191406 342.707031 L 2.191406 341.957031 Z M 3.691406 343.457031 L 3.691406 344.203125 L 2.191406 344.203125 L 2.191406 343.457031 Z M 3.691406 344.953125 L 3.691406 345.703125 L 2.191406 345.703125 L 2.191406 344.953125 Z M 3.691406 346.449219 L 3.691406 347.199219 L 2.191406 347.199219 L 2.191406 346.449219 Z M 3.691406 347.949219 L 3.691406 348.695312 L 2.191406 348.695312 L 2.191406 347.949219 Z M 3.691406 349.445312 L 3.691406 350.191406 L 2.191406 350.191406 L 2.191406 349.445312 Z M 3.691406 350.941406 L 3.691406 351.691406 L 2.191406 351.691406 L 2.191406 350.941406 Z M 3.691406 352.4375 L 3.691406 353.1875 L 2.191406 353.1875 L 2.191406 352.4375 Z M 3.691406 353.9375 L 3.691406 354.683594 L 2.191406 354.683594 L 2.191406 353.9375 Z M 3.691406 355.433594 L 3.691406 356.179688 L 2.191406 356.179688 L 2.191406 355.433594 Z M 3.691406 356.929688 L 3.691406 357.679688 L 2.191406 357.679688 L 2.191406 356.929688 Z M 3.691406 358.425781 L 3.691406 359.175781 L 2.191406 359.175781 L 2.191406 358.425781 Z M 3.691406 359.925781 L 3.691406 360.671875 L 2.191406 360.671875 L 2.191406 359.925781 Z M 3.691406 361.421875 L 3.691406 362.167969 L 2.191406 362.167969 L 2.191406 361.421875 Z M 3.691406 362.917969 L 3.691406 363.667969 L 2.191406 363.667969 L 2.191406 362.917969 Z M 3.691406 364.414062 L 3.691406 365.164062 L 2.191406 365.164062 L 2.191406 364.414062 Z M 3.691406 365.914062 L 3.691406 366.660156 L 2.191406 366.660156 L 2.191406 365.914062 Z M 3.691406 367.410156 L 3.691406 368.160156 L 2.191406 368.160156 L 2.191406 367.410156 Z M 3.273438 367.867188 C 3.550781 367.875 3.824219 367.898438 4.097656 367.929688 L 3.929688 369.414062 C 3.695312 369.390625 3.460938 369.371094 3.222656 369.363281 Z M 4.90625 368.054688 C 5.171875 368.109375 5.433594 368.171875 5.691406 368.246094 L 5.285156 369.683594 C 5.0625 369.621094 4.839844 369.566406 4.617188 369.523438 Z M 6.453125 368.496094 C 6.707031 368.589844 6.953125 368.691406 7.199219 368.808594 L 6.5625 370.164062 C 6.355469 370.066406 6.144531 369.976562 5.929688 369.898438 Z M 7.925781 369.183594 C 8.160156 369.320312 8.390625 369.460938 8.613281 369.617188 L 7.765625 370.851562 C 7.578125 370.722656 7.382812 370.597656 7.179688 370.484375 Z M 9.261719 370.101562 C 9.472656 370.273438 9.675781 370.449219 9.871094 370.636719 L 8.839844 371.71875 C 8.671875 371.5625 8.5 371.410156 8.320312 371.265625 Z M 10.433594 371.21875 C 10.613281 371.417969 10.785156 371.628906 10.949219 371.84375 L 9.757812 372.746094 C 9.617188 372.5625 9.472656 372.386719 9.316406 372.214844 Z M 11.414062 372.511719 C 11.558594 372.738281 11.695312 372.976562 11.824219 373.214844 L 10.5 373.914062 C 10.390625 373.710938 10.273438 373.511719 10.152344 373.316406 Z M 12.175781 373.957031 C 12.28125 374.199219 12.375 374.449219 12.460938 374.699219 L 11.039062 375.175781 C 10.96875 374.960938 10.886719 374.75 10.800781 374.542969 Z M 12.683594 375.472656 C 12.75 375.734375 12.804688 376 12.847656 376.265625 L 11.371094 376.507812 C 11.332031 376.28125 11.285156 376.054688 11.230469 375.832031 Z M 12.945312 377.082031 C 12.96875 377.355469 12.980469 377.628906 12.980469 377.902344 L 12.230469 377.902344 L 12.230469 377.152344 L 12.246094 377.152344 L 12.246094 378.648438 L 11.480469 378.648438 L 11.480469 377.902344 C 11.480469 377.667969 11.472656 377.433594 11.453125 377.203125 Z M 12.996094 377.152344 L 13.746094 377.152344 L 13.746094 378.648438 L 12.996094 378.648438 Z M 14.492188 377.152344 L 15.242188 377.152344 L 15.242188 378.648438 L 14.492188 378.648438 Z M 15.992188 377.152344 L 16.738281 377.152344 L 16.738281 378.648438 L 15.992188 378.648438 Z M 17.488281 377.152344 L 18.234375 377.152344 L 18.234375 378.648438 L 17.488281 378.648438 Z M 18.984375 377.152344 L 19.734375 377.152344 L 19.734375 378.648438 L 18.984375 378.648438 Z M 20.480469 377.152344 L 21.230469 377.152344 L 21.230469 378.648438 L 20.480469 378.648438 Z M 21.980469 377.152344 L 22.726562 377.152344 L 22.726562 378.648438 L 21.980469 378.648438 Z M 23.476562 377.152344 L 24.226562 377.152344 L 24.226562 378.648438 L 23.476562 378.648438 Z M 24.972656 377.152344 L 25.722656 377.152344 L 25.722656 378.648438 L 24.972656 378.648438 Z M 26.46875 377.152344 L 27.21875 377.152344 L 27.21875 378.648438 L 26.46875 378.648438 Z M 27.96875 377.152344 L 28.714844 377.152344 L 28.714844 378.648438 L 27.96875 378.648438 Z M 29.464844 377.152344 L 30.214844 377.152344 L 30.214844 378.648438 L 29.464844 378.648438 Z M 30.960938 377.152344 L 31.710938 377.152344 L 31.710938 378.648438 L 30.960938 378.648438 Z M 32.457031 377.152344 L 33.207031 377.152344 L 33.207031 378.648438 L 32.457031 378.648438 Z M 33.957031 377.152344 L 34.703125 377.152344 L 34.703125 378.648438 L 33.957031 378.648438 Z M 35.453125 377.152344 L 36.203125 377.152344 L 36.203125 378.648438 L 35.453125 378.648438 Z M 36.949219 377.152344 L 37.699219 377.152344 L 37.699219 378.648438 L 36.949219 378.648438 Z M 38.445312 377.152344 L 39.195312 377.152344 L 39.195312 378.648438 L 38.445312 378.648438 Z M 39.945312 377.152344 L 40.691406 377.152344 L 40.691406 378.648438 L 39.945312 378.648438 Z M 41.441406 377.152344 L 42.191406 377.152344 L 42.191406 378.648438 L 41.441406 378.648438 Z M 42.9375 377.152344 L 43.6875 377.152344 L 43.6875 378.648438 L 42.9375 378.648438 Z M 44.4375 377.152344 L 45.183594 377.152344 L 45.183594 378.648438 L 44.4375 378.648438 Z M 45.933594 377.152344 L 46.679688 377.152344 L 46.679688 378.648438 L 45.933594 378.648438 Z M 47.429688 377.152344 L 48.179688 377.152344 L 48.179688 378.648438 L 47.429688 378.648438 Z M 48.925781 377.152344 L 49.675781 377.152344 L 49.675781 378.648438 L 48.925781 378.648438 Z M 50.425781 377.152344 L 51.171875 377.152344 L 51.171875 378.648438 L 50.425781 378.648438 Z M 51.921875 377.152344 L 52.667969 377.152344 L 52.667969 378.648438 L 51.921875 378.648438 Z M 53.417969 377.152344 L 54.167969 377.152344 L 54.167969 378.648438 L 53.417969 378.648438 Z M 54.914062 377.152344 L 55.664062 377.152344 L 55.664062 378.648438 L 54.914062 378.648438 Z M 56.414062 377.152344 L 57.160156 377.152344 L 57.160156 378.648438 L 56.414062 378.648438 Z M 57.910156 377.152344 L 58.660156 377.152344 L 58.660156 378.648438 L 57.910156 378.648438 Z M 59.40625 377.152344 L 60.15625 377.152344 L 60.15625 378.648438 L 59.40625 378.648438 Z M 60.902344 377.152344 L 61.652344 377.152344 L 61.652344 378.648438 L 60.902344 378.648438 Z M 62.402344 377.152344 L 63.148438 377.152344 L 63.148438 378.648438 L 62.402344 378.648438 Z M 63.898438 377.152344 L 64.648438 377.152344 L 64.648438 378.648438 L 63.898438 378.648438 Z M 65.394531 377.152344 L 66.144531 377.152344 L 66.144531 378.648438 L 65.394531 378.648438 Z M 66.890625 377.152344 L 67.640625 377.152344 L 67.640625 378.648438 L 66.890625 378.648438 Z M 68.390625 377.152344 L 69.136719 377.152344 L 69.136719 378.648438 L 68.390625 378.648438 Z M 69.886719 377.152344 L 70.636719 377.152344 L 70.636719 378.648438 L 69.886719 378.648438 Z M 71.382812 377.152344 L 72.132812 377.152344 L 72.132812 378.648438 L 71.382812 378.648438 Z M 72.878906 377.152344 L 73.628906 377.152344 L 73.628906 378.648438 L 72.878906 378.648438 Z M 74.378906 377.152344 L 75.125 377.152344 L 75.125 378.648438 L 74.378906 378.648438 Z M 75.875 377.152344 L 76.625 377.152344 L 76.625 378.648438 L 75.875 378.648438 Z M 77.371094 377.152344 L 78.121094 377.152344 L 78.121094 378.648438 L 77.371094 378.648438 Z M 78.871094 377.152344 L 79.617188 377.152344 L 79.617188 378.648438 L 78.871094 378.648438 Z M 80.367188 377.152344 L 81.113281 377.152344 L 81.113281 378.648438 L 80.367188 378.648438 Z M 81.863281 377.152344 L 82.613281 377.152344 L 82.613281 378.648438 L 81.863281 378.648438 Z M 83.359375 377.152344 L 84.109375 377.152344 L 84.109375 378.648438 L 83.359375 378.648438 Z M 84.859375 377.152344 L 85.605469 377.152344 L 85.605469 378.648438 L 84.859375 378.648438 Z M 86.355469 377.152344 L 87.101562 377.152344 L 87.101562 378.648438 L 86.355469 378.648438 Z M 87.851562 377.152344 L 88.601562 377.152344 L 88.601562 378.648438 L 87.851562 378.648438 Z M 89.347656 377.152344 L 90.097656 377.152344 L 90.097656 378.648438 L 89.347656 378.648438 Z M 90.847656 377.152344 L 91.59375 377.152344 L 91.59375 378.648438 L 90.847656 378.648438 Z M 92.34375 377.152344 L 93.09375 377.152344 L 93.09375 378.648438 L 92.34375 378.648438 Z M 93.839844 377.152344 L 94.589844 377.152344 L 94.589844 378.648438 L 93.839844 378.648438 Z M 95.335938 377.152344 L 96.085938 377.152344 L 96.085938 378.648438 L 95.335938 378.648438 Z M 96.835938 377.152344 L 97.582031 377.152344 L 97.582031 378.648438 L 96.835938 378.648438 Z M 98.332031 377.152344 L 99.082031 377.152344 L 99.082031 378.648438 L 98.332031 378.648438 Z M 99.828125 377.152344 L 100.578125 377.152344 L 100.578125 378.648438 L 99.828125 378.648438 Z M 101.324219 377.152344 L 102.074219 377.152344 L 102.074219 378.648438 L 101.324219 378.648438 Z M 102.824219 377.152344 L 103.570312 377.152344 L 103.570312 378.648438 L 102.824219 378.648438 Z M 104.320312 377.152344 L 105.070312 377.152344 L 105.070312 378.648438 L 104.320312 378.648438 Z M 105.816406 377.152344 L 106.566406 377.152344 L 106.566406 378.648438 L 105.816406 378.648438 Z M 107.316406 377.152344 L 108.0625 377.152344 L 108.0625 378.648438 L 107.316406 378.648438 Z M 108.8125 377.152344 L 109.558594 377.152344 L 109.558594 378.648438 L 108.8125 378.648438 Z M 110.308594 377.152344 L 111.058594 377.152344 L 111.058594 378.648438 L 110.308594 378.648438 Z M 111.804688 377.152344 L 112.554688 377.152344 L 112.554688 378.648438 L 111.804688 378.648438 Z M 113.304688 377.152344 L 114.050781 377.152344 L 114.050781 378.648438 L 113.304688 378.648438 Z M 114.800781 377.152344 L 115.546875 377.152344 L 115.546875 378.648438 L 114.800781 378.648438 Z M 116.296875 377.152344 L 117.046875 377.152344 L 117.046875 378.648438 L 116.296875 378.648438 Z M 117.792969 377.152344 L 118.542969 377.152344 L 118.542969 378.648438 L 117.792969 378.648438 Z M 119.292969 377.152344 L 120.039062 377.152344 L 120.039062 378.648438 L 119.292969 378.648438 Z M 120.789062 377.152344 L 121.535156 377.152344 L 121.535156 378.648438 L 120.789062 378.648438 Z M 122.285156 377.152344 L 123.035156 377.152344 L 123.035156 378.648438 L 122.285156 378.648438 Z M 123.78125 377.152344 L 124.53125 377.152344 L 124.53125 378.648438 L 123.78125 378.648438 Z M 125.28125 377.152344 L 126.027344 377.152344 L 126.027344 378.648438 L 125.28125 378.648438 Z M 126.777344 377.152344 L 127.527344 377.152344 L 127.527344 378.648438 L 126.777344 378.648438 Z M 128.273438 377.152344 L 129.023438 377.152344 L 129.023438 378.648438 L 128.273438 378.648438 Z M 129.769531 377.152344 L 130.519531 377.152344 L 130.519531 378.648438 L 129.769531 378.648438 Z M 131.269531 377.152344 L 132.015625 377.152344 L 132.015625 378.648438 L 131.269531 378.648438 Z M 132.765625 377.152344 L 133.515625 377.152344 L 133.515625 378.648438 L 132.765625 378.648438 Z M 134.261719 377.152344 L 135.011719 377.152344 L 135.011719 378.648438 L 134.261719 378.648438 Z M 135.757812 377.152344 L 136.507812 377.152344 L 136.507812 378.648438 L 135.757812 378.648438 Z M 137.257812 377.152344 L 138.003906 377.152344 L 138.003906 378.648438 L 137.257812 378.648438 Z M 138.753906 377.152344 L 139.503906 377.152344 L 139.503906 378.648438 L 138.753906 378.648438 Z M 140.25 377.152344 L 141 377.152344 L 141 378.648438 L 140.25 378.648438 Z M 141.75 377.152344 L 142.496094 377.152344 L 142.496094 378.648438 L 141.75 378.648438 Z M 143.246094 377.152344 L 143.992188 377.152344 L 143.992188 378.648438 L 143.246094 378.648438 Z M 144.742188 377.152344 L 145.492188 377.152344 L 145.492188 378.648438 L 144.742188 378.648438 Z M 146.238281 377.152344 L 146.988281 377.152344 L 146.988281 378.648438 L 146.238281 378.648438 Z M 147.738281 377.152344 L 148.484375 377.152344 L 148.484375 378.648438 L 147.738281 378.648438 Z M 149.234375 377.152344 L 149.980469 377.152344 L 149.980469 378.648438 L 149.234375 378.648438 Z M 150.730469 377.152344 L 151.480469 377.152344 L 151.480469 378.648438 L 150.730469 378.648438 Z M 152.226562 377.152344 L 152.976562 377.152344 L 152.976562 378.648438 L 152.226562 378.648438 Z M 153.726562 377.152344 L 154.472656 377.152344 L 154.472656 378.648438 L 153.726562 378.648438 Z M 155.222656 377.152344 L 155.972656 377.152344 L 155.972656 378.648438 L 155.222656 378.648438 Z M 156.71875 377.152344 L 157.46875 377.152344 L 157.46875 378.648438 L 156.71875 378.648438 Z M 158.214844 377.152344 L 158.964844 377.152344 L 158.964844 378.648438 L 158.214844 378.648438 Z M 159.714844 377.152344 L 160.460938 377.152344 L 160.460938 378.648438 L 159.714844 378.648438 Z M 161.210938 377.152344 L 161.960938 377.152344 L 161.960938 378.648438 L 161.210938 378.648438 Z M 162.707031 377.152344 L 163.457031 377.152344 L 163.457031 378.648438 L 162.707031 378.648438 Z M 164.203125 377.152344 L 164.953125 377.152344 L 164.953125 378.648438 L 164.203125 378.648438 Z M 165.703125 377.152344 L 166.449219 377.152344 L 166.449219 378.648438 L 165.703125 378.648438 Z M 167.199219 377.152344 L 167.949219 377.152344 L 167.949219 378.648438 L 167.199219 378.648438 Z M 168.695312 377.152344 L 169.445312 377.152344 L 169.445312 378.648438 L 168.695312 378.648438 Z M 170.191406 377.152344 L 170.941406 377.152344 L 170.941406 378.648438 L 170.191406 378.648438 Z M 171.691406 377.152344 L 172.4375 377.152344 L 172.4375 378.648438 L 171.691406 378.648438 Z M 173.1875 377.152344 L 173.9375 377.152344 L 173.9375 378.648438 L 173.1875 378.648438 Z M 174.683594 377.152344 L 175.433594 377.152344 L 175.433594 378.648438 L 174.683594 378.648438 Z M 176.183594 377.152344 L 176.929688 377.152344 L 176.929688 378.648438 L 176.183594 378.648438 Z M 177.679688 377.152344 L 178.425781 377.152344 L 178.425781 378.648438 L 177.679688 378.648438 Z M 179.175781 377.152344 L 179.925781 377.152344 L 179.925781 378.648438 L 179.175781 378.648438 Z M 180.671875 377.152344 L 181.421875 377.152344 L 181.421875 378.648438 L 180.671875 378.648438 Z M 182.171875 377.152344 L 182.917969 377.152344 L 182.917969 378.648438 L 182.171875 378.648438 Z M 183.667969 377.152344 L 184.414062 377.152344 L 184.414062 378.648438 L 183.667969 378.648438 Z M 185.164062 377.152344 L 185.914062 377.152344 L 185.914062 378.648438 L 185.164062 378.648438 Z M 186.660156 377.152344 L 187.410156 377.152344 L 187.410156 378.648438 L 186.660156 378.648438 Z M 188.160156 377.152344 L 188.90625 377.152344 L 188.90625 378.648438 L 188.160156 378.648438 Z M 189.65625 377.152344 L 190.40625 377.152344 L 190.40625 378.648438 L 189.65625 378.648438 Z M 191.152344 377.152344 L 191.902344 377.152344 L 191.902344 378.648438 L 191.152344 378.648438 Z M 192.648438 377.152344 L 193.398438 377.152344 L 193.398438 378.648438 L 192.648438 378.648438 Z M 194.148438 377.152344 L 194.894531 377.152344 L 194.894531 378.648438 L 194.148438 378.648438 Z M 195.644531 377.152344 L 196.394531 377.152344 L 196.394531 378.648438 L 195.644531 378.648438 Z M 197.140625 377.152344 L 197.890625 377.152344 L 197.890625 378.648438 L 197.140625 378.648438 Z M 198.636719 377.152344 L 199.386719 377.152344 L 199.386719 378.648438 L 198.636719 378.648438 Z M 200.136719 377.152344 L 200.882812 377.152344 L 200.882812 378.648438 L 200.136719 378.648438 Z M 201.632812 377.152344 L 202.382812 377.152344 L 202.382812 378.648438 L 201.632812 378.648438 Z M 203.128906 377.152344 L 203.878906 377.152344 L 203.878906 378.648438 L 203.128906 378.648438 Z M 204.628906 377.152344 L 205.375 377.152344 L 205.375 378.648438 L 204.628906 378.648438 Z M 206.125 377.152344 L 206.871094 377.152344 L 206.871094 378.648438 L 206.125 378.648438 Z M 207.621094 377.152344 L 208.371094 377.152344 L 208.371094 378.648438 L 207.621094 378.648438 Z M 209.117188 377.152344 L 209.867188 377.152344 L 209.867188 378.648438 L 209.117188 378.648438 Z M 210.617188 377.152344 L 211.363281 377.152344 L 211.363281 378.648438 L 210.617188 378.648438 Z M 212.113281 377.152344 L 212.859375 377.152344 L 212.859375 378.648438 L 212.113281 378.648438 Z M 213.609375 377.152344 L 214.359375 377.152344 L 214.359375 378.648438 L 213.609375 378.648438 Z M 215.105469 377.152344 L 215.855469 377.152344 L 215.855469 378.648438 L 215.105469 378.648438 Z M 216.605469 377.152344 L 217.351562 377.152344 L 217.351562 378.648438 L 216.605469 378.648438 Z M 218.101562 377.152344 L 218.847656 377.152344 L 218.847656 378.648438 L 218.101562 378.648438 Z M 219.597656 377.152344 L 220.347656 377.152344 L 220.347656 378.648438 L 219.597656 378.648438 Z M 221.09375 377.152344 L 221.84375 377.152344 L 221.84375 378.648438 L 221.09375 378.648438 Z M 222.59375 377.152344 L 223.339844 377.152344 L 223.339844 378.648438 L 222.59375 378.648438 Z M 224.089844 377.152344 L 224.839844 377.152344 L 224.839844 378.648438 L 224.089844 378.648438 Z M 225.585938 377.152344 L 226.335938 377.152344 L 226.335938 378.648438 L 225.585938 378.648438 Z M 227.082031 377.152344 L 227.832031 377.152344 L 227.832031 378.648438 L 227.082031 378.648438 Z M 228.582031 377.152344 L 229.328125 377.152344 L 229.328125 378.648438 L 228.582031 378.648438 Z M 230.078125 377.152344 L 230.828125 377.152344 L 230.828125 378.648438 L 230.078125 378.648438 Z M 231.574219 377.152344 L 232.324219 377.152344 L 232.324219 378.648438 L 231.574219 378.648438 Z M 233.070312 377.152344 L 233.820312 377.152344 L 233.820312 378.648438 L 233.070312 378.648438 Z M 234.570312 377.152344 L 235.316406 377.152344 L 235.316406 378.648438 L 234.570312 378.648438 Z M 236.066406 377.152344 L 236.816406 377.152344 L 236.816406 378.648438 L 236.066406 378.648438 Z M 237.5625 377.152344 L 238.3125 377.152344 L 238.3125 378.648438 L 237.5625 378.648438 Z M 239.0625 377.152344 L 239.808594 377.152344 L 239.808594 378.648438 L 239.0625 378.648438 Z M 240.558594 377.152344 L 241.304688 377.152344 L 241.304688 378.648438 L 240.558594 378.648438 Z M 242.054688 377.152344 L 242.804688 377.152344 L 242.804688 378.648438 L 242.054688 378.648438 Z M 243.550781 377.152344 L 244.300781 377.152344 L 244.300781 378.648438 L 243.550781 378.648438 Z M 245.050781 377.152344 L 245.796875 377.152344 L 245.796875 378.648438 L 245.050781 378.648438 Z M 245.433594 377.484375 C 245.445312 377.207031 245.46875 376.929688 245.5 376.65625 L 246.988281 376.839844 C 246.957031 377.074219 246.9375 377.308594 246.929688 377.542969 Z M 245.632812 375.851562 C 245.6875 375.589844 245.753906 375.328125 245.828125 375.070312 L 247.265625 375.488281 C 247.203125 375.710938 247.144531 375.933594 247.101562 376.15625 Z M 246.085938 374.308594 C 246.183594 374.058594 246.289062 373.808594 246.40625 373.566406 L 247.753906 374.214844 C 247.65625 374.421875 247.566406 374.632812 247.484375 374.847656 Z M 246.789062 372.84375 C 246.925781 372.609375 247.070312 372.382812 247.226562 372.160156 L 248.453125 373.015625 C 248.320312 373.207031 248.199219 373.398438 248.082031 373.597656 Z M 247.714844 371.511719 C 247.886719 371.304688 248.070312 371.105469 248.257812 370.910156 L 249.332031 371.953125 C 249.171875 372.117188 249.019531 372.289062 248.871094 372.464844 Z M 248.84375 370.351562 C 249.046875 370.171875 249.253906 370.003906 249.472656 369.84375 L 250.367188 371.042969 C 250.183594 371.179688 250.003906 371.324219 249.832031 371.476562 Z M 250.144531 369.382812 C 250.375 369.238281 250.609375 369.105469 250.851562 368.980469 L 251.539062 370.308594 C 251.335938 370.414062 251.132812 370.53125 250.9375 370.652344 Z M 251.59375 368.632812 C 251.839844 368.53125 252.089844 368.4375 252.339844 368.355469 L 252.804688 369.78125 C 252.589844 369.847656 252.378906 369.929688 252.171875 370.015625 Z M 253.113281 368.136719 C 253.378906 368.074219 253.644531 368.023438 253.914062 367.980469 L 254.140625 369.460938 C 253.914062 369.496094 253.6875 369.539062 253.460938 369.59375 Z M 254.730469 367.886719 C 254.972656 367.871094 255.21875 367.863281 255.460938 367.863281 L 255.460938 368.609375 L 254.714844 368.609375 L 254.714844 368.515625 L 256.210938 368.515625 L 256.210938 369.359375 L 255.460938 369.359375 C 255.253906 369.359375 255.046875 369.367188 254.839844 369.382812 Z M 254.714844 367.769531 L 254.714844 367.019531 L 256.210938 367.019531 L 256.210938 367.769531 Z M 254.714844 366.269531 L 254.714844 365.523438 L 256.210938 365.523438 L 256.210938 366.269531 Z M 254.714844 364.773438 L 254.714844 364.023438 L 256.210938 364.023438 L 256.210938 364.773438 Z M 254.714844 363.277344 L 254.714844 362.527344 L 256.210938 362.527344 L 256.210938 363.277344 Z M 254.714844 361.78125 L 254.714844 361.03125 L 256.210938 361.03125 L 256.210938 361.78125 Z M 254.714844 360.28125 L 254.714844 359.535156 L 256.210938 359.535156 L 256.210938 360.28125 Z M 254.714844 358.785156 L 254.714844 358.035156 L 256.210938 358.035156 L 256.210938 358.785156 Z M 254.714844 357.289062 L 254.714844 356.539062 L 256.210938 356.539062 L 256.210938 357.289062 Z M 254.714844 355.792969 L 254.714844 355.042969 L 256.210938 355.042969 L 256.210938 355.792969 Z M 254.714844 354.292969 L 254.714844 353.546875 L 256.210938 353.546875 L 256.210938 354.292969 Z M 254.714844 352.796875 L 254.714844 352.046875 L 256.210938 352.046875 L 256.210938 352.796875 Z M 254.714844 351.300781 L 254.714844 350.550781 L 256.210938 350.550781 L 256.210938 351.300781 Z M 254.714844 349.804688 L 254.714844 349.054688 L 256.210938 349.054688 L 256.210938 349.804688 Z M 254.714844 348.304688 L 254.714844 347.558594 L 256.210938 347.558594 L 256.210938 348.304688 Z M 254.714844 346.808594 L 254.714844 346.058594 L 256.210938 346.058594 L 256.210938 346.808594 Z M 254.714844 345.3125 L 254.714844 344.5625 L 256.210938 344.5625 L 256.210938 345.3125 Z M 254.714844 343.8125 L 254.714844 343.066406 L 256.210938 343.066406 L 256.210938 343.8125 Z M 254.714844 342.316406 L 254.714844 341.570312 L 256.210938 341.570312 L 256.210938 342.316406 Z M 254.714844 340.820312 L 254.714844 340.070312 L 256.210938 340.070312 L 256.210938 340.820312 Z M 254.714844 339.324219 L 254.714844 338.574219 L 256.210938 338.574219 L 256.210938 339.324219 Z M 254.714844 337.824219 L 254.714844 337.078125 L 256.210938 337.078125 L 256.210938 337.824219 Z M 254.714844 336.328125 L 254.714844 335.582031 L 256.210938 335.582031 L 256.210938 336.328125 Z M 254.714844 334.832031 L 254.714844 334.082031 L 256.210938 334.082031 L 256.210938 334.832031 Z M 254.714844 333.335938 L 254.714844 332.585938 L 256.210938 332.585938 L 256.210938 333.335938 Z M 254.714844 331.835938 L 254.714844 331.089844 L 256.210938 331.089844 L 256.210938 331.835938 Z M 254.714844 330.339844 L 254.714844 329.589844 L 256.210938 329.589844 L 256.210938 330.339844 Z M 254.714844 328.84375 L 254.714844 328.09375 L 256.210938 328.09375 L 256.210938 328.84375 Z M 254.714844 327.347656 L 254.714844 326.597656 L 256.210938 326.597656 L 256.210938 327.347656 Z M 254.714844 325.847656 L 254.714844 325.101562 L 256.210938 325.101562 L 256.210938 325.847656 Z M 254.714844 324.351562 L 254.714844 323.601562 L 256.210938 323.601562 L 256.210938 324.351562 Z M 254.714844 322.855469 L 254.714844 322.105469 L 256.210938 322.105469 L 256.210938 322.855469 Z M 254.714844 321.359375 L 254.714844 320.609375 L 256.210938 320.609375 L 256.210938 321.359375 Z M 254.714844 319.859375 L 254.714844 319.113281 L 256.210938 319.113281 L 256.210938 319.859375 Z M 254.714844 318.363281 L 254.714844 317.613281 L 256.210938 317.613281 L 256.210938 318.363281 Z M 254.714844 316.867188 L 254.714844 316.117188 L 256.210938 316.117188 L 256.210938 316.867188 Z M 254.714844 315.367188 L 254.714844 314.621094 L 256.210938 314.621094 L 256.210938 315.367188 Z M 254.714844 313.871094 L 254.714844 313.125 L 256.210938 313.125 L 256.210938 313.871094 Z M 254.714844 312.375 L 254.714844 311.625 L 256.210938 311.625 L 256.210938 312.375 Z M 254.714844 310.878906 L 254.714844 310.128906 L 256.210938 310.128906 L 256.210938 310.878906 Z M 254.714844 309.378906 L 254.714844 308.632812 L 256.210938 308.632812 L 256.210938 309.378906 Z M 254.714844 307.882812 L 254.714844 307.136719 L 256.210938 307.136719 L 256.210938 307.882812 Z M 254.714844 306.386719 L 254.714844 305.636719 L 256.210938 305.636719 L 256.210938 306.386719 Z M 254.714844 304.890625 L 254.714844 304.140625 L 256.210938 304.140625 L 256.210938 304.890625 Z M 254.714844 303.390625 L 254.714844 302.644531 L 256.210938 302.644531 L 256.210938 303.390625 Z M 254.714844 301.894531 L 254.714844 301.148438 L 256.210938 301.148438 L 256.210938 301.894531 Z M 254.714844 300.398438 L 254.714844 299.648438 L 256.210938 299.648438 L 256.210938 300.398438 Z M 254.714844 298.902344 L 254.714844 298.152344 L 256.210938 298.152344 L 256.210938 298.902344 Z M 254.714844 297.402344 L 254.714844 296.65625 L 256.210938 296.65625 L 256.210938 297.402344 Z M 254.714844 295.90625 L 254.714844 295.15625 L 256.210938 295.15625 L 256.210938 295.90625 Z M 254.714844 294.410156 L 254.714844 293.660156 L 256.210938 293.660156 L 256.210938 294.410156 Z M 254.714844 292.914062 L 254.714844 292.164062 L 256.210938 292.164062 L 256.210938 292.914062 Z M 254.714844 291.414062 L 254.714844 290.667969 L 256.210938 290.667969 L 256.210938 291.414062 Z M 254.714844 289.917969 L 254.714844 289.167969 L 256.210938 289.167969 L 256.210938 289.917969 Z M 254.714844 288.421875 L 254.714844 287.671875 L 256.210938 287.671875 L 256.210938 288.421875 Z M 254.714844 286.925781 L 254.714844 286.175781 L 256.210938 286.175781 L 256.210938 286.925781 Z M 254.714844 285.425781 L 254.714844 284.679688 L 256.210938 284.679688 L 256.210938 285.425781 Z M 254.714844 283.929688 L 254.714844 283.179688 L 256.210938 283.179688 L 256.210938 283.929688 Z M 254.714844 282.433594 L 254.714844 281.683594 L 256.210938 281.683594 L 256.210938 282.433594 Z M 254.714844 280.933594 L 254.714844 280.1875 L 256.210938 280.1875 L 256.210938 280.933594 Z M 254.714844 279.4375 L 254.714844 278.691406 L 256.210938 278.691406 L 256.210938 279.4375 Z M 254.714844 277.941406 L 254.714844 277.191406 L 256.210938 277.191406 L 256.210938 277.941406 Z M 254.714844 276.445312 L 254.714844 275.695312 L 256.210938 275.695312 L 256.210938 276.445312 Z M 254.714844 274.945312 L 254.714844 274.199219 L 256.210938 274.199219 L 256.210938 274.945312 Z M 254.714844 273.449219 L 254.714844 272.703125 L 256.210938 272.703125 L 256.210938 273.449219 Z M 254.714844 271.953125 L 254.714844 271.203125 L 256.210938 271.203125 L 256.210938 271.953125 Z M 254.714844 270.457031 L 254.714844 269.707031 L 256.210938 269.707031 L 256.210938 270.457031 Z M 254.714844 268.957031 L 254.714844 268.210938 L 256.210938 268.210938 L 256.210938 268.957031 Z M 254.714844 267.460938 L 254.714844 266.710938 L 256.210938 266.710938 L 256.210938 267.460938 Z M 254.714844 265.964844 L 254.714844 265.214844 L 256.210938 265.214844 L 256.210938 265.964844 Z M 254.714844 264.46875 L 254.714844 263.71875 L 256.210938 263.71875 L 256.210938 264.46875 Z M 254.714844 262.96875 L 254.714844 262.222656 L 256.210938 262.222656 L 256.210938 262.96875 Z M 254.714844 261.472656 L 254.714844 260.722656 L 256.210938 260.722656 L 256.210938 261.472656 Z M 254.714844 259.976562 L 254.714844 259.226562 L 256.210938 259.226562 L 256.210938 259.976562 Z M 254.714844 258.480469 L 254.714844 257.730469 L 256.210938 257.730469 L 256.210938 258.480469 Z M 254.714844 256.980469 L 254.714844 256.234375 L 256.210938 256.234375 L 256.210938 256.980469 Z M 254.714844 255.484375 L 254.714844 254.734375 L 256.210938 254.734375 L 256.210938 255.484375 Z M 254.714844 253.988281 L 254.714844 253.238281 L 256.210938 253.238281 L 256.210938 253.988281 Z M 254.714844 252.492188 L 254.714844 251.742188 L 256.210938 251.742188 L 256.210938 252.492188 Z M 254.714844 250.992188 L 254.714844 250.246094 L 256.210938 250.246094 L 256.210938 250.992188 Z M 254.714844 249.496094 L 254.714844 248.746094 L 256.210938 248.746094 L 256.210938 249.496094 Z M 254.714844 248 L 254.714844 247.25 L 256.210938 247.25 L 256.210938 248 Z M 254.714844 246.5 L 254.714844 245.753906 L 256.210938 245.753906 L 256.210938 246.5 Z M 254.714844 245.003906 L 254.714844 244.257812 L 256.210938 244.257812 L 256.210938 245.003906 Z M 254.714844 243.507812 L 254.714844 242.757812 L 256.210938 242.757812 L 256.210938 243.507812 Z M 254.714844 242.011719 L 254.714844 241.261719 L 256.210938 241.261719 L 256.210938 242.011719 Z M 254.714844 240.511719 L 254.714844 239.765625 L 256.210938 239.765625 L 256.210938 240.511719 Z M 254.714844 239.015625 L 254.714844 238.269531 L 256.210938 238.269531 L 256.210938 239.015625 Z M 254.714844 237.519531 L 254.714844 236.769531 L 256.210938 236.769531 L 256.210938 237.519531 Z M 254.714844 236.023438 L 254.714844 235.273438 L 256.210938 235.273438 L 256.210938 236.023438 Z M 254.714844 234.523438 L 254.714844 233.777344 L 256.210938 233.777344 L 256.210938 234.523438 Z M 254.714844 233.027344 L 254.714844 232.277344 L 256.210938 232.277344 L 256.210938 233.027344 Z M 254.714844 231.53125 L 254.714844 230.78125 L 256.210938 230.78125 L 256.210938 231.53125 Z M 254.714844 230.035156 L 254.714844 229.285156 L 256.210938 229.285156 L 256.210938 230.035156 Z M 254.714844 228.535156 L 254.714844 227.789062 L 256.210938 227.789062 L 256.210938 228.535156 Z M 254.714844 227.039062 L 254.714844 226.289062 L 256.210938 226.289062 L 256.210938 227.039062 Z M 254.714844 225.542969 L 254.714844 224.792969 L 256.210938 224.792969 L 256.210938 225.542969 Z M 254.714844 224.046875 L 254.714844 223.296875 L 256.210938 223.296875 L 256.210938 224.046875 Z M 254.714844 222.546875 L 254.714844 221.800781 L 256.210938 221.800781 L 256.210938 222.546875 Z M 254.714844 221.050781 L 254.714844 220.300781 L 256.210938 220.300781 L 256.210938 221.050781 Z M 254.714844 219.554688 L 254.714844 218.804688 L 256.210938 218.804688 L 256.210938 219.554688 Z M 254.714844 218.054688 L 254.714844 217.308594 L 256.210938 217.308594 L 256.210938 218.054688 Z M 254.714844 216.558594 L 254.714844 215.8125 L 256.210938 215.8125 L 256.210938 216.558594 Z M 254.714844 215.0625 L 254.714844 214.3125 L 256.210938 214.3125 L 256.210938 215.0625 Z M 254.714844 213.566406 L 254.714844 212.816406 L 256.210938 212.816406 L 256.210938 213.566406 Z M 254.714844 212.066406 L 254.714844 211.320312 L 256.210938 211.320312 L 256.210938 212.066406 Z M 254.714844 210.570312 L 254.714844 209.824219 L 256.210938 209.824219 L 256.210938 210.570312 Z M 254.714844 209.074219 L 254.714844 208.324219 L 256.210938 208.324219 L 256.210938 209.074219 Z M 254.714844 207.578125 L 254.714844 206.828125 L 256.210938 206.828125 L 256.210938 207.578125 Z M 254.714844 206.078125 L 254.714844 205.332031 L 256.210938 205.332031 L 256.210938 206.078125 Z M 254.714844 204.582031 L 254.714844 203.835938 L 256.210938 203.835938 L 256.210938 204.582031 Z M 254.714844 203.085938 L 254.714844 202.335938 L 256.210938 202.335938 L 256.210938 203.085938 Z M 254.714844 201.589844 L 254.714844 200.839844 L 256.210938 200.839844 L 256.210938 201.589844 Z M 254.714844 200.089844 L 254.714844 199.34375 L 256.210938 199.34375 L 256.210938 200.089844 Z M 254.714844 198.59375 L 254.714844 197.84375 L 256.210938 197.84375 L 256.210938 198.59375 Z M 254.714844 197.097656 L 254.714844 196.347656 L 256.210938 196.347656 L 256.210938 197.097656 Z M 254.714844 195.601562 L 254.714844 194.851562 L 256.210938 194.851562 L 256.210938 195.601562 Z M 254.714844 194.101562 L 254.714844 193.355469 L 256.210938 193.355469 L 256.210938 194.101562 Z M 254.714844 192.605469 L 254.714844 191.855469 L 256.210938 191.855469 L 256.210938 192.605469 Z M 254.714844 191.109375 L 254.714844 190.359375 L 256.210938 190.359375 L 256.210938 191.109375 Z M 254.714844 189.613281 L 254.714844 188.863281 L 256.210938 188.863281 L 256.210938 189.613281 Z M 254.714844 188.113281 L 254.714844 187.367188 L 256.210938 187.367188 L 256.210938 188.113281 Z M 254.714844 186.617188 L 254.714844 185.867188 L 256.210938 185.867188 L 256.210938 186.617188 Z M 254.714844 185.121094 L 254.714844 184.371094 L 256.210938 184.371094 L 256.210938 185.121094 Z M 254.714844 183.621094 L 254.714844 182.875 L 256.210938 182.875 L 256.210938 183.621094 Z M 254.714844 182.125 L 254.714844 181.378906 L 256.210938 181.378906 L 256.210938 182.125 Z M 254.714844 180.628906 L 254.714844 179.878906 L 256.210938 179.878906 L 256.210938 180.628906 Z M 254.714844 179.132812 L 254.714844 178.382812 L 256.210938 178.382812 L 256.210938 179.132812 Z M 254.714844 177.632812 L 254.714844 176.886719 L 256.210938 176.886719 L 256.210938 177.632812 Z M 254.714844 176.136719 L 254.714844 175.390625 L 256.210938 175.390625 L 256.210938 176.136719 Z M 254.714844 174.640625 L 254.714844 173.890625 L 256.210938 173.890625 L 256.210938 174.640625 Z M 254.714844 173.144531 L 254.714844 172.394531 L 256.210938 172.394531 L 256.210938 173.144531 Z M 254.714844 171.644531 L 254.714844 170.898438 L 256.210938 170.898438 L 256.210938 171.644531 Z M 254.714844 170.148438 L 254.714844 169.398438 L 256.210938 169.398438 L 256.210938 170.148438 Z M 254.714844 168.652344 L 254.714844 167.902344 L 256.210938 167.902344 L 256.210938 168.652344 Z M 254.714844 167.15625 L 254.714844 166.40625 L 256.210938 166.40625 L 256.210938 167.15625 Z M 254.714844 165.65625 L 254.714844 164.910156 L 256.210938 164.910156 L 256.210938 165.65625 Z M 254.714844 164.160156 L 254.714844 163.410156 L 256.210938 163.410156 L 256.210938 164.160156 Z M 254.714844 162.664062 L 254.714844 161.914062 L 256.210938 161.914062 L 256.210938 162.664062 Z M 254.714844 161.167969 L 254.714844 160.417969 L 256.210938 160.417969 L 256.210938 161.167969 Z M 254.714844 159.667969 L 254.714844 158.921875 L 256.210938 158.921875 L 256.210938 159.667969 Z M 254.714844 158.171875 L 254.714844 157.421875 L 256.210938 157.421875 L 256.210938 158.171875 Z M 254.714844 156.675781 L 254.714844 155.925781 L 256.210938 155.925781 L 256.210938 156.675781 Z M 254.714844 155.179688 L 254.714844 154.429688 L 256.210938 154.429688 L 256.210938 155.179688 Z M 254.714844 153.679688 L 254.714844 152.933594 L 256.210938 152.933594 L 256.210938 153.679688 Z M 254.714844 152.183594 L 254.714844 151.433594 L 256.210938 151.433594 L 256.210938 152.183594 Z M 254.714844 150.6875 L 254.714844 149.9375 L 256.210938 149.9375 L 256.210938 150.6875 Z M 254.714844 149.1875 L 254.714844 148.441406 L 256.210938 148.441406 L 256.210938 149.1875 Z M 254.714844 147.691406 L 254.714844 146.945312 L 256.210938 146.945312 L 256.210938 147.691406 Z M 254.714844 146.195312 L 254.714844 145.445312 L 256.210938 145.445312 L 256.210938 146.195312 Z M 254.714844 144.699219 L 254.714844 143.949219 L 256.210938 143.949219 L 256.210938 144.699219 Z M 254.714844 143.199219 L 254.714844 142.453125 L 256.210938 142.453125 L 256.210938 143.199219 Z M 254.714844 141.703125 L 254.714844 140.957031 L 256.210938 140.957031 L 256.210938 141.703125 Z M 254.714844 140.207031 L 254.714844 139.457031 L 256.210938 139.457031 L 256.210938 140.207031 Z M 254.714844 138.710938 L 254.714844 137.960938 L 256.210938 137.960938 L 256.210938 138.710938 Z M 254.714844 137.210938 L 254.714844 136.464844 L 256.210938 136.464844 L 256.210938 137.210938 Z M 254.714844 135.714844 L 254.714844 134.964844 L 256.210938 134.964844 L 256.210938 135.714844 Z M 254.714844 134.21875 L 254.714844 133.46875 L 256.210938 133.46875 L 256.210938 134.21875 Z M 254.714844 132.722656 L 254.714844 131.972656 L 256.210938 131.972656 L 256.210938 132.722656 Z M 254.714844 131.222656 L 254.714844 130.476562 L 256.210938 130.476562 L 256.210938 131.222656 Z M 254.714844 129.726562 L 254.714844 128.976562 L 256.210938 128.976562 L 256.210938 129.726562 Z M 254.714844 128.230469 L 254.714844 127.480469 L 256.210938 127.480469 L 256.210938 128.230469 Z M 254.714844 126.734375 L 254.714844 125.984375 L 256.210938 125.984375 L 256.210938 126.734375 Z M 254.714844 125.234375 L 254.714844 124.488281 L 256.210938 124.488281 L 256.210938 125.234375 Z M 254.714844 123.738281 L 254.714844 122.988281 L 256.210938 122.988281 L 256.210938 123.738281 Z M 254.714844 122.242188 L 254.714844 121.492188 L 256.210938 121.492188 L 256.210938 122.242188 Z M 254.714844 120.742188 L 254.714844 119.996094 L 256.210938 119.996094 L 256.210938 120.742188 Z M 254.714844 119.246094 L 254.714844 118.5 L 256.210938 118.5 L 256.210938 119.246094 Z M 254.714844 117.75 L 254.714844 117 L 256.210938 117 L 256.210938 117.75 Z M 254.714844 116.253906 L 254.714844 115.503906 L 256.210938 115.503906 L 256.210938 116.253906 Z M 254.714844 114.753906 L 254.714844 114.007812 L 256.210938 114.007812 L 256.210938 114.753906 Z M 254.714844 113.257812 L 254.714844 112.511719 L 256.210938 112.511719 L 256.210938 113.257812 Z M 254.714844 111.761719 L 254.714844 111.011719 L 256.210938 111.011719 L 256.210938 111.761719 Z M 254.714844 110.265625 L 254.714844 109.515625 L 256.210938 109.515625 L 256.210938 110.265625 Z M 254.714844 108.765625 L 254.714844 108.019531 L 256.210938 108.019531 L 256.210938 108.765625 Z M 254.714844 107.269531 L 254.714844 106.523438 L 256.210938 106.523438 L 256.210938 107.269531 Z M 254.714844 105.773438 L 254.714844 105.023438 L 256.210938 105.023438 L 256.210938 105.773438 Z M 254.714844 104.277344 L 254.714844 103.527344 L 256.210938 103.527344 L 256.210938 104.277344 Z M 254.714844 102.777344 L 254.714844 102.03125 L 256.210938 102.03125 L 256.210938 102.777344 Z M 254.714844 101.28125 L 254.714844 100.53125 L 256.210938 100.53125 L 256.210938 101.28125 Z M 254.714844 99.785156 L 254.714844 99.035156 L 256.210938 99.035156 L 256.210938 99.785156 Z M 254.714844 98.289062 L 254.714844 97.539062 L 256.210938 97.539062 L 256.210938 98.289062 Z M 254.714844 96.789062 L 254.714844 96.042969 L 256.210938 96.042969 L 256.210938 96.789062 Z M 254.714844 95.292969 L 254.714844 94.542969 L 256.210938 94.542969 L 256.210938 95.292969 Z M 254.714844 93.796875 L 254.714844 93.046875 L 256.210938 93.046875 L 256.210938 93.796875 Z M 254.714844 92.300781 L 254.714844 91.550781 L 256.210938 91.550781 L 256.210938 92.300781 Z M 254.714844 90.800781 L 254.714844 90.054688 L 256.210938 90.054688 L 256.210938 90.800781 Z M 254.714844 89.304688 L 254.714844 88.554688 L 256.210938 88.554688 L 256.210938 89.304688 Z M 254.714844 87.808594 L 254.714844 87.058594 L 256.210938 87.058594 L 256.210938 87.808594 Z M 254.714844 86.308594 L 254.714844 85.5625 L 256.210938 85.5625 L 256.210938 86.308594 Z M 254.714844 84.8125 L 254.714844 84.066406 L 256.210938 84.066406 L 256.210938 84.8125 Z M 254.714844 83.316406 L 254.714844 82.566406 L 256.210938 82.566406 L 256.210938 83.316406 Z M 254.714844 81.820312 L 254.714844 81.070312 L 256.210938 81.070312 L 256.210938 81.820312 Z M 254.714844 80.320312 L 254.714844 79.574219 L 256.210938 79.574219 L 256.210938 80.320312 Z M 254.714844 78.824219 L 254.714844 78.078125 L 256.210938 78.078125 L 256.210938 78.824219 Z M 254.714844 77.328125 L 254.714844 76.578125 L 256.210938 76.578125 L 256.210938 77.328125 Z M 254.714844 75.832031 L 254.714844 75.082031 L 256.210938 75.082031 L 256.210938 75.832031 Z M 254.714844 74.332031 L 254.714844 73.585938 L 256.210938 73.585938 L 256.210938 74.332031 Z M 254.714844 72.835938 L 254.714844 72.085938 L 256.210938 72.085938 L 256.210938 72.835938 Z M 254.714844 71.339844 L 254.714844 70.589844 L 256.210938 70.589844 L 256.210938 71.339844 Z M 254.714844 69.84375 L 254.714844 69.09375 L 256.210938 69.09375 L 256.210938 69.84375 Z M 254.714844 68.34375 L 254.714844 67.597656 L 256.210938 67.597656 L 256.210938 68.34375 Z M 254.714844 66.847656 L 254.714844 66.097656 L 256.210938 66.097656 L 256.210938 66.847656 Z M 254.714844 65.351562 L 254.714844 64.601562 L 256.210938 64.601562 L 256.210938 65.351562 Z M 254.714844 63.855469 L 254.714844 63.105469 L 256.210938 63.105469 L 256.210938 63.855469 Z M 254.714844 62.355469 L 254.714844 61.609375 L 256.210938 61.609375 L 256.210938 62.355469 Z M 254.714844 60.859375 L 254.714844 60.109375 L 256.210938 60.109375 L 256.210938 60.859375 Z M 254.714844 59.363281 L 254.714844 58.613281 L 256.210938 58.613281 L 256.210938 59.363281 Z M 254.714844 57.867188 L 254.714844 57.117188 L 256.210938 57.117188 L 256.210938 57.867188 Z M 254.714844 56.367188 L 254.714844 55.621094 L 256.210938 55.621094 L 256.210938 56.367188 Z M 254.714844 54.871094 L 254.714844 54.121094 L 256.210938 54.121094 L 256.210938 54.871094 Z M 254.714844 53.375 L 254.714844 52.625 L 256.210938 52.625 L 256.210938 53.375 Z M 254.714844 51.875 L 254.714844 51.128906 L 256.210938 51.128906 L 256.210938 51.875 Z M 254.714844 50.378906 L 254.714844 49.632812 L 256.210938 49.632812 L 256.210938 50.378906 Z M 254.714844 48.882812 L 254.714844 48.132812 L 256.210938 48.132812 L 256.210938 48.882812 Z M 254.714844 47.386719 L 254.714844 46.636719 L 256.210938 46.636719 L 256.210938 47.386719 Z M 254.714844 45.886719 L 254.714844 45.140625 L 256.210938 45.140625 L 256.210938 45.886719 Z M 254.714844 44.390625 L 254.714844 43.644531 L 256.210938 43.644531 L 256.210938 44.390625 Z M 254.714844 42.894531 L 254.714844 42.144531 L 256.210938 42.144531 L 256.210938 42.894531 Z M 254.714844 41.398438 L 254.714844 40.648438 L 256.210938 40.648438 L 256.210938 41.398438 Z M 254.714844 39.898438 L 254.714844 39.152344 L 256.210938 39.152344 L 256.210938 39.898438 Z M 254.714844 38.402344 L 254.714844 37.652344 L 256.210938 37.652344 L 256.210938 38.402344 Z M 254.714844 36.90625 L 254.714844 36.15625 L 256.210938 36.15625 L 256.210938 36.90625 Z M 254.714844 35.410156 L 254.714844 34.660156 L 256.210938 34.660156 L 256.210938 35.410156 Z M 254.714844 33.910156 L 254.714844 33.164062 L 256.210938 33.164062 L 256.210938 33.910156 Z M 254.714844 32.414062 L 254.714844 31.664062 L 256.210938 31.664062 L 256.210938 32.414062 Z M 254.714844 30.917969 L 254.714844 30.167969 L 256.210938 30.167969 L 256.210938 30.917969 Z M 254.714844 29.421875 L 254.714844 28.671875 L 256.210938 28.671875 L 256.210938 29.421875 Z M 254.714844 27.921875 L 254.714844 27.175781 L 256.210938 27.175781 L 256.210938 27.921875 Z M 254.714844 26.425781 L 254.714844 25.675781 L 256.210938 25.675781 L 256.210938 26.425781 Z M 254.714844 24.929688 L 254.714844 24.179688 L 256.210938 24.179688 L 256.210938 24.929688 Z M 254.714844 23.429688 L 254.714844 22.683594 L 256.210938 22.683594 L 256.210938 23.429688 Z M 254.714844 21.933594 L 254.714844 21.1875 L 256.210938 21.1875 L 256.210938 21.933594 Z M 254.714844 20.4375 L 254.714844 19.6875 L 256.210938 19.6875 L 256.210938 20.4375 Z M 254.714844 18.941406 L 254.714844 18.191406 L 256.210938 18.191406 L 256.210938 18.941406 Z M 254.714844 17.441406 L 254.714844 16.695312 L 256.210938 16.695312 L 256.210938 17.441406 Z M 254.714844 15.945312 L 254.714844 15.199219 L 256.210938 15.199219 L 256.210938 15.945312 Z M 254.714844 14.449219 L 254.714844 13.699219 L 256.210938 13.699219 L 256.210938 14.449219 Z M 254.714844 12.953125 L 254.714844 12.515625 L 255.460938 12.515625 L 255.460938 13.265625 C 255.34375 13.265625 255.230469 13.261719 255.113281 13.257812 L 255.164062 11.761719 C 255.261719 11.765625 255.363281 11.765625 255.460938 11.765625 L 256.210938 11.765625 L 256.210938 12.953125 Z M 254.285156 13.195312 C 254.015625 13.164062 253.746094 13.121094 253.476562 13.066406 L 253.773438 11.601562 C 254 11.644531 254.230469 11.683594 254.460938 11.710938 Z M 252.691406 12.878906 C 252.4375 12.804688 252.183594 12.71875 251.933594 12.625 L 252.457031 11.226562 C 252.671875 11.304688 252.886719 11.375 253.105469 11.4375 Z M 251.1875 12.3125 C 250.941406 12.195312 250.699219 12.070312 250.464844 11.933594 L 251.210938 10.636719 C 251.410156 10.75 251.617188 10.859375 251.824219 10.957031 Z M 249.773438 11.5 C 249.550781 11.347656 249.335938 11.183594 249.125 11.015625 L 250.070312 9.851562 C 250.25 10 250.433594 10.136719 250.625 10.265625 Z M 248.519531 10.476562 C 248.324219 10.292969 248.136719 10.097656 247.957031 9.894531 L 249.074219 8.898438 C 249.226562 9.070312 249.386719 9.238281 249.554688 9.394531 Z M 247.445312 9.269531 C 247.28125 9.050781 247.125 8.828125 246.980469 8.601562 L 248.246094 7.800781 C 248.367188 7.992188 248.5 8.183594 248.636719 8.367188 Z M 246.570312 7.894531 C 246.445312 7.652344 246.328125 7.40625 246.21875 7.15625 L 247.597656 6.570312 C 247.6875 6.78125 247.789062 6.992188 247.898438 7.199219 Z M 245.9375 6.410156 C 245.855469 6.15625 245.777344 5.898438 245.714844 5.636719 L 247.167969 5.28125 C 247.222656 5.5 247.285156 5.71875 247.359375 5.9375 Z M 245.554688 4.84375 C 245.507812 4.570312 245.476562 4.300781 245.457031 4.023438 L 246.949219 3.90625 C 246.964844 4.140625 246.996094 4.375 247.03125 4.605469 Z M 246.171875 3.976562 L 245.425781 3.976562 L 245.425781 2.476562 L 246.171875 2.476562 Z M 246.171875 3.976562 " fill-opacity="1" fill-rule="nonzero"/></g></g></svg>