<svg xmlns="http://www.w3.org/2000/svg" xmlns:xlink="http://www.w3.org/1999/xlink" width="370" zoomAndPan="magnify" viewBox="0 0 277.5 479.249983" height="639" preserveAspectRatio="xMidYMid meet" version="1.0"><defs><clipPath id="17788c494c"><path d="M 0 0.0585938 L 277 0.0585938 L 277 477.695312 L 0 477.695312 Z M 0 0.0585938 " clip-rule="nonzero"/></clipPath><clipPath id="4911175a8c"><path d="M 266.695312 0.0585938 L 10.179688 0.0585938 C 10.179688 5.660156 5.648438 10.238281 0 10.238281 L 0 467.714844 C 5.601562 467.714844 10.179688 472.242188 10.179688 477.894531 L 266.695312 477.894531 C 266.695312 472.292969 271.222656 467.714844 276.871094 467.714844 L 276.871094 10.238281 C 271.273438 10.238281 266.695312 5.707031 266.695312 0.0585938 Z M 266.695312 0.0585938 " clip-rule="nonzero"/></clipPath><clipPath id="abbbbb0c4f"><path d="M 3.152344 3.800781 L 273.414062 3.800781 L 273.414062 473.953125 L 3.152344 473.953125 Z M 3.152344 3.800781 " clip-rule="nonzero"/></clipPath><clipPath id="1b6f7ee1a7"><path d="M 263.765625 3.800781 L 13.105469 3.800781 C 13.105469 9.277344 8.675781 13.753906 3.152344 13.753906 L 3.152344 464.1875 C 8.628906 464.1875 13.105469 468.617188 13.105469 474.140625 L 263.765625 474.140625 C 263.765625 468.664062 268.195312 464.1875 273.71875 464.1875 L 273.71875 13.753906 C 268.242188 13.753906 263.765625 9.324219 263.765625 3.800781 Z M 263.765625 3.800781 " clip-rule="nonzero"/></clipPath></defs><g clip-path="url(#17788c494c)"><g clip-path="url(#4911175a8c)"><path stroke-linecap="butt" transform="matrix(0.748651, 0, 0, 0.748651, 0, 0.0585147)" fill="none" stroke-linejoin="miter" d="M 356.234452 0.000105558 L 13.597372 0.000105558 C 13.597372 7.482313 7.54482 13.597478 0 13.597478 L 0 624.665257 C 7.482207 624.665257 13.597372 630.712591 13.597372 638.262629 L 356.234452 638.262629 C 356.234452 630.780422 362.281786 624.665257 369.826606 624.665257 L 369.826606 13.597478 C 362.349617 13.597478 356.234452 7.544925 356.234452 0.000105558 Z M 356.234452 0.000105558 " stroke="#113c25" stroke-width="2" stroke-opacity="1" stroke-miterlimit="4"/></g></g><g clip-path="url(#abbbbb0c4f)"><g clip-path="url(#1b6f7ee1a7)"><path fill="#113c25" d="M 262.269531 4.550781 L 261.519531 4.550781 L 261.519531 3.050781 L 262.269531 3.050781 Z M 260.769531 4.550781 L 260.023438 4.550781 L 260.023438 3.050781 L 260.769531 3.050781 Z M 259.273438 4.550781 L 258.523438 4.550781 L 258.523438 3.050781 L 259.273438 3.050781 Z M 257.777344 4.550781 L 257.027344 4.550781 L 257.027344 3.050781 L 257.777344 3.050781 Z M 256.277344 4.550781 L 255.53125 4.550781 L 255.53125 3.050781 L 256.277344 3.050781 Z M 254.78125 4.550781 L 254.03125 4.550781 L 254.03125 3.050781 L 254.78125 3.050781 Z M 253.285156 4.550781 L 252.535156 4.550781 L 252.535156 3.050781 L 253.285156 3.050781 Z M 251.785156 4.550781 L 251.039062 4.550781 L 251.039062 3.050781 L 251.785156 3.050781 Z M 250.289062 4.550781 L 249.539062 4.550781 L 249.539062 3.050781 L 250.289062 3.050781 Z M 248.792969 4.550781 L 248.042969 4.550781 L 248.042969 3.050781 L 248.792969 3.050781 Z M 247.292969 4.550781 L 246.546875 4.550781 L 246.546875 3.050781 L 247.292969 3.050781 Z M 245.796875 4.550781 L 245.046875 4.550781 L 245.046875 3.050781 L 245.796875 3.050781 Z M 244.300781 4.550781 L 243.550781 4.550781 L 243.550781 3.050781 L 244.300781 3.050781 Z M 242.800781 4.550781 L 242.054688 4.550781 L 242.054688 3.050781 L 242.800781 3.050781 Z M 241.304688 4.550781 L 240.558594 4.550781 L 240.558594 3.050781 L 241.304688 3.050781 Z M 239.808594 4.550781 L 239.058594 4.550781 L 239.058594 3.050781 L 239.808594 3.050781 Z M 238.3125 4.550781 L 237.5625 4.550781 L 237.5625 3.050781 L 238.3125 3.050781 Z M 236.8125 4.550781 L 236.066406 4.550781 L 236.066406 3.050781 L 236.8125 3.050781 Z M 235.316406 4.550781 L 234.566406 4.550781 L 234.566406 3.050781 L 235.316406 3.050781 Z M 233.820312 4.550781 L 233.070312 4.550781 L 233.070312 3.050781 L 233.820312 3.050781 Z M 232.320312 4.550781 L 231.574219 4.550781 L 231.574219 3.050781 L 232.320312 3.050781 Z M 230.824219 4.550781 L 230.074219 4.550781 L 230.074219 3.050781 L 230.824219 3.050781 Z M 229.328125 4.550781 L 228.578125 4.550781 L 228.578125 3.050781 L 229.328125 3.050781 Z M 227.828125 4.550781 L 227.082031 4.550781 L 227.082031 3.050781 L 227.828125 3.050781 Z M 226.332031 4.550781 L 225.582031 4.550781 L 225.582031 3.050781 L 226.332031 3.050781 Z M 224.835938 4.550781 L 224.085938 4.550781 L 224.085938 3.050781 L 224.835938 3.050781 Z M 223.335938 4.550781 L 222.589844 4.550781 L 222.589844 3.050781 L 223.335938 3.050781 Z M 221.839844 4.550781 L 221.089844 4.550781 L 221.089844 3.050781 L 221.839844 3.050781 Z M 220.34375 4.550781 L 219.59375 4.550781 L 219.59375 3.050781 L 220.34375 3.050781 Z M 218.847656 4.550781 L 218.097656 4.550781 L 218.097656 3.050781 L 218.847656 3.050781 Z M 217.347656 4.550781 L 216.601562 4.550781 L 216.601562 3.050781 L 217.347656 3.050781 Z M 215.851562 4.550781 L 215.101562 4.550781 L 215.101562 3.050781 L 215.851562 3.050781 Z M 214.355469 4.550781 L 213.605469 4.550781 L 213.605469 3.050781 L 214.355469 3.050781 Z M 212.855469 4.550781 L 212.109375 4.550781 L 212.109375 3.050781 L 212.855469 3.050781 Z M 211.359375 4.550781 L 210.609375 4.550781 L 210.609375 3.050781 L 211.359375 3.050781 Z M 209.863281 4.550781 L 209.113281 4.550781 L 209.113281 3.050781 L 209.863281 3.050781 Z M 208.363281 4.550781 L 207.617188 4.550781 L 207.617188 3.050781 L 208.363281 3.050781 Z M 206.867188 4.550781 L 206.117188 4.550781 L 206.117188 3.050781 L 206.867188 3.050781 Z M 205.371094 4.550781 L 204.621094 4.550781 L 204.621094 3.050781 L 205.371094 3.050781 Z M 203.871094 4.550781 L 203.125 4.550781 L 203.125 3.050781 L 203.871094 3.050781 Z M 202.375 4.550781 L 201.625 4.550781 L 201.625 3.050781 L 202.375 3.050781 Z M 200.878906 4.550781 L 200.128906 4.550781 L 200.128906 3.050781 L 200.878906 3.050781 Z M 199.382812 4.550781 L 198.632812 4.550781 L 198.632812 3.050781 L 199.382812 3.050781 Z M 197.882812 4.550781 L 197.136719 4.550781 L 197.136719 3.050781 L 197.882812 3.050781 Z M 196.386719 4.550781 L 195.636719 4.550781 L 195.636719 3.050781 L 196.386719 3.050781 Z M 194.890625 4.550781 L 194.140625 4.550781 L 194.140625 3.050781 L 194.890625 3.050781 Z M 193.390625 4.550781 L 192.644531 4.550781 L 192.644531 3.050781 L 193.390625 3.050781 Z M 191.894531 4.550781 L 191.144531 4.550781 L 191.144531 3.050781 L 191.894531 3.050781 Z M 190.398438 4.550781 L 189.648438 4.550781 L 189.648438 3.050781 L 190.398438 3.050781 Z M 188.898438 4.550781 L 188.152344 4.550781 L 188.152344 3.050781 L 188.898438 3.050781 Z M 187.402344 4.550781 L 186.652344 4.550781 L 186.652344 3.050781 L 187.402344 3.050781 Z M 185.90625 4.550781 L 185.15625 4.550781 L 185.15625 3.050781 L 185.90625 3.050781 Z M 184.40625 4.550781 L 183.660156 4.550781 L 183.660156 3.050781 L 184.40625 3.050781 Z M 182.910156 4.550781 L 182.160156 4.550781 L 182.160156 3.050781 L 182.910156 3.050781 Z M 181.414062 4.550781 L 180.664062 4.550781 L 180.664062 3.050781 L 181.414062 3.050781 Z M 179.914062 4.550781 L 179.167969 4.550781 L 179.167969 3.050781 L 179.914062 3.050781 Z M 178.417969 4.550781 L 177.671875 4.550781 L 177.671875 3.050781 L 178.417969 3.050781 Z M 176.921875 4.550781 L 176.171875 4.550781 L 176.171875 3.050781 L 176.921875 3.050781 Z M 175.425781 4.550781 L 174.675781 4.550781 L 174.675781 3.050781 L 175.425781 3.050781 Z M 173.925781 4.550781 L 173.179688 4.550781 L 173.179688 3.050781 L 173.925781 3.050781 Z M 172.429688 4.550781 L 171.679688 4.550781 L 171.679688 3.050781 L 172.429688 3.050781 Z M 170.933594 4.550781 L 170.183594 4.550781 L 170.183594 3.050781 L 170.933594 3.050781 Z M 169.433594 4.550781 L 168.6875 4.550781 L 168.6875 3.050781 L 169.433594 3.050781 Z M 167.9375 4.550781 L 167.1875 4.550781 L 167.1875 3.050781 L 167.9375 3.050781 Z M 166.441406 4.550781 L 165.691406 4.550781 L 165.691406 3.050781 L 166.441406 3.050781 Z M 164.941406 4.550781 L 164.195312 4.550781 L 164.195312 3.050781 L 164.941406 3.050781 Z M 163.445312 4.550781 L 162.695312 4.550781 L 162.695312 3.050781 L 163.445312 3.050781 Z M 161.949219 4.550781 L 161.199219 4.550781 L 161.199219 3.050781 L 161.949219 3.050781 Z M 160.449219 4.550781 L 159.703125 4.550781 L 159.703125 3.050781 L 160.449219 3.050781 Z M 158.953125 4.550781 L 158.207031 4.550781 L 158.207031 3.050781 L 158.953125 3.050781 Z M 157.457031 4.550781 L 156.707031 4.550781 L 156.707031 3.050781 L 157.457031 3.050781 Z M 155.960938 4.550781 L 155.210938 4.550781 L 155.210938 3.050781 L 155.960938 3.050781 Z M 154.460938 4.550781 L 153.714844 4.550781 L 153.714844 3.050781 L 154.460938 3.050781 Z M 152.964844 4.550781 L 152.214844 4.550781 L 152.214844 3.050781 L 152.964844 3.050781 Z M 151.46875 4.550781 L 150.71875 4.550781 L 150.71875 3.050781 L 151.46875 3.050781 Z M 149.96875 4.550781 L 149.222656 4.550781 L 149.222656 3.050781 L 149.96875 3.050781 Z M 148.472656 4.550781 L 147.722656 4.550781 L 147.722656 3.050781 L 148.472656 3.050781 Z M 146.976562 4.550781 L 146.226562 4.550781 L 146.226562 3.050781 L 146.976562 3.050781 Z M 145.476562 4.550781 L 144.730469 4.550781 L 144.730469 3.050781 L 145.476562 3.050781 Z M 143.980469 4.550781 L 143.230469 4.550781 L 143.230469 3.050781 L 143.980469 3.050781 Z M 142.484375 4.550781 L 141.734375 4.550781 L 141.734375 3.050781 L 142.484375 3.050781 Z M 140.984375 4.550781 L 140.238281 4.550781 L 140.238281 3.050781 L 140.984375 3.050781 Z M 139.488281 4.550781 L 138.738281 4.550781 L 138.738281 3.050781 L 139.488281 3.050781 Z M 137.992188 4.550781 L 137.242188 4.550781 L 137.242188 3.050781 L 137.992188 3.050781 Z M 136.496094 4.550781 L 135.746094 4.550781 L 135.746094 3.050781 L 136.496094 3.050781 Z M 134.996094 4.550781 L 134.25 4.550781 L 134.25 3.050781 L 134.996094 3.050781 Z M 133.5 4.550781 L 132.75 4.550781 L 132.75 3.050781 L 133.5 3.050781 Z M 132.003906 4.550781 L 131.253906 4.550781 L 131.253906 3.050781 L 132.003906 3.050781 Z M 130.503906 4.550781 L 129.757812 4.550781 L 129.757812 3.050781 L 130.503906 3.050781 Z M 129.007812 4.550781 L 128.257812 4.550781 L 128.257812 3.050781 L 129.007812 3.050781 Z M 127.511719 4.550781 L 126.761719 4.550781 L 126.761719 3.050781 L 127.511719 3.050781 Z M 126.011719 4.550781 L 125.265625 4.550781 L 125.265625 3.050781 L 126.011719 3.050781 Z M 124.515625 4.550781 L 123.765625 4.550781 L 123.765625 3.050781 L 124.515625 3.050781 Z M 123.019531 4.550781 L 122.269531 4.550781 L 122.269531 3.050781 L 123.019531 3.050781 Z M 121.519531 4.550781 L 120.773438 4.550781 L 120.773438 3.050781 L 121.519531 3.050781 Z M 120.023438 4.550781 L 119.273438 4.550781 L 119.273438 3.050781 L 120.023438 3.050781 Z M 118.527344 4.550781 L 117.777344 4.550781 L 117.777344 3.050781 L 118.527344 3.050781 Z M 117.027344 4.550781 L 116.28125 4.550781 L 116.28125 3.050781 L 117.027344 3.050781 Z M 115.53125 4.550781 L 114.785156 4.550781 L 114.785156 3.050781 L 115.53125 3.050781 Z M 114.035156 4.550781 L 113.285156 4.550781 L 113.285156 3.050781 L 114.035156 3.050781 Z M 112.539062 4.550781 L 111.789062 4.550781 L 111.789062 3.050781 L 112.539062 3.050781 Z M 111.039062 4.550781 L 110.292969 4.550781 L 110.292969 3.050781 L 111.039062 3.050781 Z M 109.542969 4.550781 L 108.792969 4.550781 L 108.792969 3.050781 L 109.542969 3.050781 Z M 108.046875 4.550781 L 107.296875 4.550781 L 107.296875 3.050781 L 108.046875 3.050781 Z M 106.546875 4.550781 L 105.800781 4.550781 L 105.800781 3.050781 L 106.546875 3.050781 Z M 105.050781 4.550781 L 104.300781 4.550781 L 104.300781 3.050781 L 105.050781 3.050781 Z M 103.554688 4.550781 L 102.804688 4.550781 L 102.804688 3.050781 L 103.554688 3.050781 Z M 102.054688 4.550781 L 101.308594 4.550781 L 101.308594 3.050781 L 102.054688 3.050781 Z M 100.558594 4.550781 L 99.808594 4.550781 L 99.808594 3.050781 L 100.558594 3.050781 Z M 99.0625 4.550781 L 98.3125 4.550781 L 98.3125 3.050781 L 99.0625 3.050781 Z M 97.5625 4.550781 L 96.816406 4.550781 L 96.816406 3.050781 L 97.5625 3.050781 Z M 96.066406 4.550781 L 95.320312 4.550781 L 95.320312 3.050781 L 96.066406 3.050781 Z M 94.570312 4.550781 L 93.820312 4.550781 L 93.820312 3.050781 L 94.570312 3.050781 Z M 93.074219 4.550781 L 92.324219 4.550781 L 92.324219 3.050781 L 93.074219 3.050781 Z M 91.574219 4.550781 L 90.828125 4.550781 L 90.828125 3.050781 L 91.574219 3.050781 Z M 90.078125 4.550781 L 89.328125 4.550781 L 89.328125 3.050781 L 90.078125 3.050781 Z M 88.582031 4.550781 L 87.832031 4.550781 L 87.832031 3.050781 L 88.582031 3.050781 Z M 87.082031 4.550781 L 86.335938 4.550781 L 86.335938 3.050781 L 87.082031 3.050781 Z M 85.585938 4.550781 L 84.835938 4.550781 L 84.835938 3.050781 L 85.585938 3.050781 Z M 84.089844 4.550781 L 83.339844 4.550781 L 83.339844 3.050781 L 84.089844 3.050781 Z M 82.589844 4.550781 L 81.84375 4.550781 L 81.84375 3.050781 L 82.589844 3.050781 Z M 81.09375 4.550781 L 80.34375 4.550781 L 80.34375 3.050781 L 81.09375 3.050781 Z M 79.597656 4.550781 L 78.847656 4.550781 L 78.847656 3.050781 L 79.597656 3.050781 Z M 78.097656 4.550781 L 77.351562 4.550781 L 77.351562 3.050781 L 78.097656 3.050781 Z M 76.601562 4.550781 L 75.851562 4.550781 L 75.851562 3.050781 L 76.601562 3.050781 Z M 75.105469 4.550781 L 74.355469 4.550781 L 74.355469 3.050781 L 75.105469 3.050781 Z M 73.609375 4.550781 L 72.859375 4.550781 L 72.859375 3.050781 L 73.609375 3.050781 Z M 72.109375 4.550781 L 71.363281 4.550781 L 71.363281 3.050781 L 72.109375 3.050781 Z M 70.613281 4.550781 L 69.863281 4.550781 L 69.863281 3.050781 L 70.613281 3.050781 Z M 69.117188 4.550781 L 68.367188 4.550781 L 68.367188 3.050781 L 69.117188 3.050781 Z M 67.617188 4.550781 L 66.871094 4.550781 L 66.871094 3.050781 L 67.617188 3.050781 Z M 66.121094 4.550781 L 65.371094 4.550781 L 65.371094 3.050781 L 66.121094 3.050781 Z M 64.625 4.550781 L 63.875 4.550781 L 63.875 3.050781 L 64.625 3.050781 Z M 63.125 4.550781 L 62.378906 4.550781 L 62.378906 3.050781 L 63.125 3.050781 Z M 61.628906 4.550781 L 60.878906 4.550781 L 60.878906 3.050781 L 61.628906 3.050781 Z M 60.132812 4.550781 L 59.382812 4.550781 L 59.382812 3.050781 L 60.132812 3.050781 Z M 58.632812 4.550781 L 57.886719 4.550781 L 57.886719 3.050781 L 58.632812 3.050781 Z M 57.136719 4.550781 L 56.386719 4.550781 L 56.386719 3.050781 L 57.136719 3.050781 Z M 55.640625 4.550781 L 54.890625 4.550781 L 54.890625 3.050781 L 55.640625 3.050781 Z M 54.140625 4.550781 L 53.394531 4.550781 L 53.394531 3.050781 L 54.140625 3.050781 Z M 52.644531 4.550781 L 51.898438 4.550781 L 51.898438 3.050781 L 52.644531 3.050781 Z M 51.148438 4.550781 L 50.398438 4.550781 L 50.398438 3.050781 L 51.148438 3.050781 Z M 49.652344 4.550781 L 48.902344 4.550781 L 48.902344 3.050781 L 49.652344 3.050781 Z M 48.152344 4.550781 L 47.40625 4.550781 L 47.40625 3.050781 L 48.152344 3.050781 Z M 46.65625 4.550781 L 45.90625 4.550781 L 45.90625 3.050781 L 46.65625 3.050781 Z M 45.160156 4.550781 L 44.410156 4.550781 L 44.410156 3.050781 L 45.160156 3.050781 Z M 43.660156 4.550781 L 42.914062 4.550781 L 42.914062 3.050781 L 43.660156 3.050781 Z M 42.164062 4.550781 L 41.414062 4.550781 L 41.414062 3.050781 L 42.164062 3.050781 Z M 40.667969 4.550781 L 39.917969 4.550781 L 39.917969 3.050781 L 40.667969 3.050781 Z M 39.167969 4.550781 L 38.421875 4.550781 L 38.421875 3.050781 L 39.167969 3.050781 Z M 37.671875 4.550781 L 36.921875 4.550781 L 36.921875 3.050781 L 37.671875 3.050781 Z M 36.175781 4.550781 L 35.425781 4.550781 L 35.425781 3.050781 L 36.175781 3.050781 Z M 34.675781 4.550781 L 33.929688 4.550781 L 33.929688 3.050781 L 34.675781 3.050781 Z M 33.179688 4.550781 L 32.433594 4.550781 L 32.433594 3.050781 L 33.179688 3.050781 Z M 31.683594 4.550781 L 30.933594 4.550781 L 30.933594 3.050781 L 31.683594 3.050781 Z M 30.1875 4.550781 L 29.4375 4.550781 L 29.4375 3.050781 L 30.1875 3.050781 Z M 28.6875 4.550781 L 27.941406 4.550781 L 27.941406 3.050781 L 28.6875 3.050781 Z M 27.191406 4.550781 L 26.441406 4.550781 L 26.441406 3.050781 L 27.191406 3.050781 Z M 25.695312 4.550781 L 24.945312 4.550781 L 24.945312 3.050781 L 25.695312 3.050781 Z M 24.195312 4.550781 L 23.449219 4.550781 L 23.449219 3.050781 L 24.195312 3.050781 Z M 22.699219 4.550781 L 21.949219 4.550781 L 21.949219 3.050781 L 22.699219 3.050781 Z M 21.203125 4.550781 L 20.453125 4.550781 L 20.453125 3.050781 L 21.203125 3.050781 Z M 19.703125 4.550781 L 18.957031 4.550781 L 18.957031 3.050781 L 19.703125 3.050781 Z M 18.207031 4.550781 L 17.457031 4.550781 L 17.457031 3.050781 L 18.207031 3.050781 Z M 16.710938 4.550781 L 15.960938 4.550781 L 15.960938 3.050781 L 16.710938 3.050781 Z M 15.210938 4.550781 L 14.464844 4.550781 L 14.464844 3.050781 L 15.210938 3.050781 Z M 13.714844 4.550781 L 13.105469 4.550781 L 13.105469 3.800781 L 13.855469 3.804688 L 13.851562 3.949219 L 12.355469 3.941406 L 12.363281 3.050781 L 13.714844 3.050781 Z M 13.808594 4.78125 C 13.785156 5.054688 13.75 5.324219 13.703125 5.59375 L 12.226562 5.34375 C 12.265625 5.113281 12.296875 4.882812 12.316406 4.648438 Z M 13.539062 6.382812 C 13.476562 6.644531 13.402344 6.898438 13.316406 7.152344 L 11.894531 6.683594 C 11.96875 6.46875 12.03125 6.246094 12.085938 6.023438 Z M 13.042969 7.898438 C 12.9375 8.148438 12.824219 8.394531 12.703125 8.636719 L 11.367188 7.960938 C 11.472656 7.75 11.570312 7.539062 11.660156 7.324219 Z M 12.308594 9.347656 C 12.167969 9.578125 12.019531 9.800781 11.863281 10.023438 L 10.644531 9.152344 C 10.78125 8.960938 10.90625 8.769531 11.027344 8.570312 Z M 11.367188 10.660156 C 11.195312 10.867188 11.015625 11.066406 10.828125 11.257812 L 9.753906 10.214844 C 9.917969 10.050781 10.070312 9.878906 10.21875 9.699219 Z M 10.246094 11.816406 C 10.046875 11.996094 9.839844 12.164062 9.625 12.328125 L 8.71875 11.136719 C 8.902344 10.996094 9.082031 10.847656 9.253906 10.695312 Z M 8.964844 12.792969 C 8.734375 12.9375 8.503906 13.078125 8.265625 13.207031 L 7.550781 11.890625 C 7.753906 11.78125 7.953125 11.660156 8.148438 11.535156 Z M 7.535156 13.570312 C 7.292969 13.679688 7.046875 13.777344 6.796875 13.867188 L 6.285156 12.460938 C 6.5 12.382812 6.714844 12.296875 6.921875 12.203125 Z M 6.035156 14.109375 C 5.777344 14.183594 5.515625 14.246094 5.253906 14.296875 L 4.960938 12.828125 C 5.1875 12.785156 5.414062 12.730469 5.632812 12.667969 Z M 4.449219 14.425781 C 4.175781 14.457031 3.902344 14.480469 3.628906 14.492188 L 3.5625 12.996094 C 3.800781 12.988281 4.035156 12.96875 4.269531 12.9375 Z M 3.898438 14.078125 L 3.898438 14.824219 L 2.402344 14.824219 L 2.402344 14.078125 Z M 3.898438 15.574219 L 3.898438 16.324219 L 2.402344 16.324219 L 2.402344 15.574219 Z M 3.898438 17.070312 L 3.898438 17.820312 L 2.402344 17.820312 L 2.402344 17.070312 Z M 3.898438 18.570312 L 3.898438 19.316406 L 2.402344 19.316406 L 2.402344 18.570312 Z M 3.898438 20.066406 L 3.898438 20.816406 L 2.402344 20.816406 L 2.402344 20.066406 Z M 3.898438 21.5625 L 3.898438 22.3125 L 2.402344 22.3125 L 2.402344 21.5625 Z M 3.898438 23.0625 L 3.898438 23.808594 L 2.402344 23.808594 L 2.402344 23.0625 Z M 3.898438 24.558594 L 3.898438 25.304688 L 2.402344 25.304688 L 2.402344 24.558594 Z M 3.898438 26.054688 L 3.898438 26.804688 L 2.402344 26.804688 L 2.402344 26.054688 Z M 3.898438 27.550781 L 3.898438 28.300781 L 2.402344 28.300781 L 2.402344 27.550781 Z M 3.898438 29.050781 L 3.898438 29.796875 L 2.402344 29.796875 L 2.402344 29.050781 Z M 3.898438 30.546875 L 3.898438 31.296875 L 2.402344 31.296875 L 2.402344 30.546875 Z M 3.898438 32.042969 L 3.898438 32.792969 L 2.402344 32.792969 L 2.402344 32.042969 Z M 3.898438 33.542969 L 3.898438 34.289062 L 2.402344 34.289062 L 2.402344 33.542969 Z M 3.898438 35.039062 L 3.898438 35.789062 L 2.402344 35.789062 L 2.402344 35.039062 Z M 3.898438 36.535156 L 3.898438 37.285156 L 2.402344 37.285156 L 2.402344 36.535156 Z M 3.898438 38.035156 L 3.898438 38.78125 L 2.402344 38.78125 L 2.402344 38.035156 Z M 3.898438 39.53125 L 3.898438 40.28125 L 2.402344 40.28125 L 2.402344 39.53125 Z M 3.898438 41.027344 L 3.898438 41.777344 L 2.402344 41.777344 L 2.402344 41.027344 Z M 3.898438 42.527344 L 3.898438 43.273438 L 2.402344 43.273438 L 2.402344 42.527344 Z M 3.898438 44.023438 L 3.898438 44.773438 L 2.402344 44.773438 L 2.402344 44.023438 Z M 3.898438 45.519531 L 3.898438 46.269531 L 2.402344 46.269531 L 2.402344 45.519531 Z M 3.898438 47.015625 L 3.898438 47.765625 L 2.402344 47.765625 L 2.402344 47.015625 Z M 3.898438 48.515625 L 3.898438 49.261719 L 2.402344 49.261719 L 2.402344 48.515625 Z M 3.898438 50.011719 L 3.898438 50.761719 L 2.402344 50.761719 L 2.402344 50.011719 Z M 3.898438 51.507812 L 3.898438 52.257812 L 2.402344 52.257812 L 2.402344 51.507812 Z M 3.898438 53.007812 L 3.898438 53.753906 L 2.402344 53.753906 L 2.402344 53.007812 Z M 3.898438 54.503906 L 3.898438 55.253906 L 2.402344 55.253906 L 2.402344 54.503906 Z M 3.898438 56 L 3.898438 56.75 L 2.402344 56.75 L 2.402344 56 Z M 3.898438 57.5 L 3.898438 58.246094 L 2.402344 58.246094 L 2.402344 57.5 Z M 3.898438 58.996094 L 3.898438 59.746094 L 2.402344 59.746094 L 2.402344 58.996094 Z M 3.898438 60.492188 L 3.898438 61.242188 L 2.402344 61.242188 L 2.402344 60.492188 Z M 3.898438 61.992188 L 3.898438 62.738281 L 2.402344 62.738281 L 2.402344 61.992188 Z M 3.898438 63.488281 L 3.898438 64.238281 L 2.402344 64.238281 L 2.402344 63.488281 Z M 3.898438 64.984375 L 3.898438 65.734375 L 2.402344 65.734375 L 2.402344 64.984375 Z M 3.898438 66.480469 L 3.898438 67.230469 L 2.402344 67.230469 L 2.402344 66.480469 Z M 3.898438 67.980469 L 3.898438 68.726562 L 2.402344 68.726562 L 2.402344 67.980469 Z M 3.898438 69.476562 L 3.898438 70.226562 L 2.402344 70.226562 L 2.402344 69.476562 Z M 3.898438 70.972656 L 3.898438 71.722656 L 2.402344 71.722656 L 2.402344 70.972656 Z M 3.898438 72.472656 L 3.898438 73.21875 L 2.402344 73.21875 L 2.402344 72.472656 Z M 3.898438 73.96875 L 3.898438 74.71875 L 2.402344 74.71875 L 2.402344 73.96875 Z M 3.898438 75.464844 L 3.898438 76.214844 L 2.402344 76.214844 L 2.402344 75.464844 Z M 3.898438 76.964844 L 3.898438 77.710938 L 2.402344 77.710938 L 2.402344 76.964844 Z M 3.898438 78.460938 L 3.898438 79.210938 L 2.402344 79.210938 L 2.402344 78.460938 Z M 3.898438 79.957031 L 3.898438 80.707031 L 2.402344 80.707031 L 2.402344 79.957031 Z M 3.898438 81.457031 L 3.898438 82.203125 L 2.402344 82.203125 L 2.402344 81.457031 Z M 3.898438 82.953125 L 3.898438 83.703125 L 2.402344 83.703125 L 2.402344 82.953125 Z M 3.898438 84.449219 L 3.898438 85.199219 L 2.402344 85.199219 L 2.402344 84.449219 Z M 3.898438 85.949219 L 3.898438 86.695312 L 2.402344 86.695312 L 2.402344 85.949219 Z M 3.898438 87.445312 L 3.898438 88.191406 L 2.402344 88.191406 L 2.402344 87.445312 Z M 3.898438 88.941406 L 3.898438 89.691406 L 2.402344 89.691406 L 2.402344 88.941406 Z M 3.898438 90.4375 L 3.898438 91.1875 L 2.402344 91.1875 L 2.402344 90.4375 Z M 3.898438 91.9375 L 3.898438 92.683594 L 2.402344 92.683594 L 2.402344 91.9375 Z M 3.898438 93.433594 L 3.898438 94.183594 L 2.402344 94.183594 L 2.402344 93.433594 Z M 3.898438 94.929688 L 3.898438 95.679688 L 2.402344 95.679688 L 2.402344 94.929688 Z M 3.898438 96.429688 L 3.898438 97.175781 L 2.402344 97.175781 L 2.402344 96.429688 Z M 3.898438 97.925781 L 3.898438 98.675781 L 2.402344 98.675781 L 2.402344 97.925781 Z M 3.898438 99.421875 L 3.898438 100.171875 L 2.402344 100.171875 L 2.402344 99.421875 Z M 3.898438 100.921875 L 3.898438 101.667969 L 2.402344 101.667969 L 2.402344 100.921875 Z M 3.898438 102.417969 L 3.898438 103.167969 L 2.402344 103.167969 L 2.402344 102.417969 Z M 3.898438 103.914062 L 3.898438 104.664062 L 2.402344 104.664062 L 2.402344 103.914062 Z M 3.898438 105.414062 L 3.898438 106.160156 L 2.402344 106.160156 L 2.402344 105.414062 Z M 3.898438 106.910156 L 3.898438 107.660156 L 2.402344 107.660156 L 2.402344 106.910156 Z M 3.898438 108.40625 L 3.898438 109.15625 L 2.402344 109.15625 L 2.402344 108.40625 Z M 3.898438 109.902344 L 3.898438 110.652344 L 2.402344 110.652344 L 2.402344 109.902344 Z M 3.898438 111.402344 L 3.898438 112.148438 L 2.402344 112.148438 L 2.402344 111.402344 Z M 3.898438 112.898438 L 3.898438 113.648438 L 2.402344 113.648438 L 2.402344 112.898438 Z M 3.898438 114.394531 L 3.898438 115.144531 L 2.402344 115.144531 L 2.402344 114.394531 Z M 3.898438 115.894531 L 3.898438 116.640625 L 2.402344 116.640625 L 2.402344 115.894531 Z M 3.898438 117.390625 L 3.898438 118.140625 L 2.402344 118.140625 L 2.402344 117.390625 Z M 3.898438 118.886719 L 3.898438 119.636719 L 2.402344 119.636719 L 2.402344 118.886719 Z M 3.898438 120.386719 L 3.898438 121.132812 L 2.402344 121.132812 L 2.402344 120.386719 Z M 3.898438 121.882812 L 3.898438 122.632812 L 2.402344 122.632812 L 2.402344 121.882812 Z M 3.898438 123.378906 L 3.898438 124.128906 L 2.402344 124.128906 L 2.402344 123.378906 Z M 3.898438 124.878906 L 3.898438 125.625 L 2.402344 125.625 L 2.402344 124.878906 Z M 3.898438 126.375 L 3.898438 127.125 L 2.402344 127.125 L 2.402344 126.375 Z M 3.898438 127.871094 L 3.898438 128.621094 L 2.402344 128.621094 L 2.402344 127.871094 Z M 3.898438 129.367188 L 3.898438 130.117188 L 2.402344 130.117188 L 2.402344 129.367188 Z M 3.898438 130.867188 L 3.898438 131.613281 L 2.402344 131.613281 L 2.402344 130.867188 Z M 3.898438 132.363281 L 3.898438 133.113281 L 2.402344 133.113281 L 2.402344 132.363281 Z M 3.898438 133.859375 L 3.898438 134.609375 L 2.402344 134.609375 L 2.402344 133.859375 Z M 3.898438 135.359375 L 3.898438 136.105469 L 2.402344 136.105469 L 2.402344 135.359375 Z M 3.898438 136.855469 L 3.898438 137.605469 L 2.402344 137.605469 L 2.402344 136.855469 Z M 3.898438 138.351562 L 3.898438 139.101562 L 2.402344 139.101562 L 2.402344 138.351562 Z M 3.898438 139.851562 L 3.898438 140.597656 L 2.402344 140.597656 L 2.402344 139.851562 Z M 3.898438 141.347656 L 3.898438 142.097656 L 2.402344 142.097656 L 2.402344 141.347656 Z M 3.898438 142.84375 L 3.898438 143.59375 L 2.402344 143.59375 L 2.402344 142.84375 Z M 3.898438 144.34375 L 3.898438 145.089844 L 2.402344 145.089844 L 2.402344 144.34375 Z M 3.898438 145.839844 L 3.898438 146.589844 L 2.402344 146.589844 L 2.402344 145.839844 Z M 3.898438 147.335938 L 3.898438 148.085938 L 2.402344 148.085938 L 2.402344 147.335938 Z M 3.898438 148.835938 L 3.898438 149.582031 L 2.402344 149.582031 L 2.402344 148.835938 Z M 3.898438 150.332031 L 3.898438 151.078125 L 2.402344 151.078125 L 2.402344 150.332031 Z M 3.898438 151.828125 L 3.898438 152.578125 L 2.402344 152.578125 L 2.402344 151.828125 Z M 3.898438 153.324219 L 3.898438 154.074219 L 2.402344 154.074219 L 2.402344 153.324219 Z M 3.898438 154.824219 L 3.898438 155.570312 L 2.402344 155.570312 L 2.402344 154.824219 Z M 3.898438 156.320312 L 3.898438 157.070312 L 2.402344 157.070312 L 2.402344 156.320312 Z M 3.898438 157.816406 L 3.898438 158.566406 L 2.402344 158.566406 L 2.402344 157.816406 Z M 3.898438 159.316406 L 3.898438 160.0625 L 2.402344 160.0625 L 2.402344 159.316406 Z M 3.898438 160.8125 L 3.898438 161.5625 L 2.402344 161.5625 L 2.402344 160.8125 Z M 3.898438 162.308594 L 3.898438 163.058594 L 2.402344 163.058594 L 2.402344 162.308594 Z M 3.898438 163.808594 L 3.898438 164.554688 L 2.402344 164.554688 L 2.402344 163.808594 Z M 3.898438 165.304688 L 3.898438 166.054688 L 2.402344 166.054688 L 2.402344 165.304688 Z M 3.898438 166.800781 L 3.898438 167.550781 L 2.402344 167.550781 L 2.402344 166.800781 Z M 3.898438 168.300781 L 3.898438 169.046875 L 2.402344 169.046875 L 2.402344 168.300781 Z M 3.898438 169.796875 L 3.898438 170.546875 L 2.402344 170.546875 L 2.402344 169.796875 Z M 3.898438 171.292969 L 3.898438 172.042969 L 2.402344 172.042969 L 2.402344 171.292969 Z M 3.898438 172.789062 L 3.898438 173.539062 L 2.402344 173.539062 L 2.402344 172.789062 Z M 3.898438 174.289062 L 3.898438 175.035156 L 2.402344 175.035156 L 2.402344 174.289062 Z M 3.898438 175.785156 L 3.898438 176.535156 L 2.402344 176.535156 L 2.402344 175.785156 Z M 3.898438 177.28125 L 3.898438 178.03125 L 2.402344 178.03125 L 2.402344 177.28125 Z M 3.898438 178.78125 L 3.898438 179.527344 L 2.402344 179.527344 L 2.402344 178.78125 Z M 3.898438 180.277344 L 3.898438 181.027344 L 2.402344 181.027344 L 2.402344 180.277344 Z M 3.898438 181.773438 L 3.898438 182.523438 L 2.402344 182.523438 L 2.402344 181.773438 Z M 3.898438 183.273438 L 3.898438 184.019531 L 2.402344 184.019531 L 2.402344 183.273438 Z M 3.898438 184.769531 L 3.898438 185.519531 L 2.402344 185.519531 L 2.402344 184.769531 Z M 3.898438 186.265625 L 3.898438 187.015625 L 2.402344 187.015625 L 2.402344 186.265625 Z M 3.898438 187.765625 L 3.898438 188.511719 L 2.402344 188.511719 L 2.402344 187.765625 Z M 3.898438 189.261719 L 3.898438 190.011719 L 2.402344 190.011719 L 2.402344 189.261719 Z M 3.898438 190.757812 L 3.898438 191.507812 L 2.402344 191.507812 L 2.402344 190.757812 Z M 3.898438 192.253906 L 3.898438 193.003906 L 2.402344 193.003906 L 2.402344 192.253906 Z M 3.898438 193.753906 L 3.898438 194.5 L 2.402344 194.5 L 2.402344 193.753906 Z M 3.898438 195.25 L 3.898438 196 L 2.402344 196 L 2.402344 195.25 Z M 3.898438 196.746094 L 3.898438 197.496094 L 2.402344 197.496094 L 2.402344 196.746094 Z M 3.898438 198.246094 L 3.898438 198.992188 L 2.402344 198.992188 L 2.402344 198.246094 Z M 3.898438 199.742188 L 3.898438 200.492188 L 2.402344 200.492188 L 2.402344 199.742188 Z M 3.898438 201.238281 L 3.898438 201.988281 L 2.402344 201.988281 L 2.402344 201.238281 Z M 3.898438 202.738281 L 3.898438 203.484375 L 2.402344 203.484375 L 2.402344 202.738281 Z M 3.898438 204.234375 L 3.898438 204.984375 L 2.402344 204.984375 L 2.402344 204.234375 Z M 3.898438 205.730469 L 3.898438 206.480469 L 2.402344 206.480469 L 2.402344 205.730469 Z M 3.898438 207.230469 L 3.898438 207.976562 L 2.402344 207.976562 L 2.402344 207.230469 Z M 3.898438 208.726562 L 3.898438 209.476562 L 2.402344 209.476562 L 2.402344 208.726562 Z M 3.898438 210.222656 L 3.898438 210.972656 L 2.402344 210.972656 L 2.402344 210.222656 Z M 3.898438 211.722656 L 3.898438 212.46875 L 2.402344 212.46875 L 2.402344 211.722656 Z M 3.898438 213.21875 L 3.898438 213.964844 L 2.402344 213.964844 L 2.402344 213.21875 Z M 3.898438 214.714844 L 3.898438 215.464844 L 2.402344 215.464844 L 2.402344 214.714844 Z M 3.898438 216.210938 L 3.898438 216.960938 L 2.402344 216.960938 L 2.402344 216.210938 Z M 3.898438 217.710938 L 3.898438 218.457031 L 2.402344 218.457031 L 2.402344 217.710938 Z M 3.898438 219.207031 L 3.898438 219.957031 L 2.402344 219.957031 L 2.402344 219.207031 Z M 3.898438 220.703125 L 3.898438 221.453125 L 2.402344 221.453125 L 2.402344 220.703125 Z M 3.898438 222.203125 L 3.898438 222.949219 L 2.402344 222.949219 L 2.402344 222.203125 Z M 3.898438 223.699219 L 3.898438 224.449219 L 2.402344 224.449219 L 2.402344 223.699219 Z M 3.898438 225.195312 L 3.898438 225.945312 L 2.402344 225.945312 L 2.402344 225.195312 Z M 3.898438 226.695312 L 3.898438 227.441406 L 2.402344 227.441406 L 2.402344 226.695312 Z M 3.898438 228.191406 L 3.898438 228.941406 L 2.402344 228.941406 L 2.402344 228.191406 Z M 3.898438 229.6875 L 3.898438 230.4375 L 2.402344 230.4375 L 2.402344 229.6875 Z M 3.898438 231.1875 L 3.898438 231.933594 L 2.402344 231.933594 L 2.402344 231.1875 Z M 3.898438 232.683594 L 3.898438 233.429688 L 2.402344 233.429688 L 2.402344 232.683594 Z M 3.898438 234.179688 L 3.898438 234.929688 L 2.402344 234.929688 L 2.402344 234.179688 Z M 3.898438 235.675781 L 3.898438 236.425781 L 2.402344 236.425781 L 2.402344 235.675781 Z M 3.898438 237.175781 L 3.898438 237.921875 L 2.402344 237.921875 L 2.402344 237.175781 Z M 3.898438 238.671875 L 3.898438 239.421875 L 2.402344 239.421875 L 2.402344 238.671875 Z M 3.898438 240.167969 L 3.898438 240.917969 L 2.402344 240.917969 L 2.402344 240.167969 Z M 3.898438 241.667969 L 3.898438 242.414062 L 2.402344 242.414062 L 2.402344 241.667969 Z M 3.898438 243.164062 L 3.898438 243.914062 L 2.402344 243.914062 L 2.402344 243.164062 Z M 3.898438 244.660156 L 3.898438 245.410156 L 2.402344 245.410156 L 2.402344 244.660156 Z M 3.898438 246.160156 L 3.898438 246.90625 L 2.402344 246.90625 L 2.402344 246.160156 Z M 3.898438 247.65625 L 3.898438 248.40625 L 2.402344 248.40625 L 2.402344 247.65625 Z M 3.898438 249.152344 L 3.898438 249.902344 L 2.402344 249.902344 L 2.402344 249.152344 Z M 3.898438 250.652344 L 3.898438 251.398438 L 2.402344 251.398438 L 2.402344 250.652344 Z M 3.898438 252.148438 L 3.898438 252.898438 L 2.402344 252.898438 L 2.402344 252.148438 Z M 3.898438 253.644531 L 3.898438 254.394531 L 2.402344 254.394531 L 2.402344 253.644531 Z M 3.898438 255.140625 L 3.898438 255.890625 L 2.402344 255.890625 L 2.402344 255.140625 Z M 3.898438 256.640625 L 3.898438 257.386719 L 2.402344 257.386719 L 2.402344 256.640625 Z M 3.898438 258.136719 L 3.898438 258.886719 L 2.402344 258.886719 L 2.402344 258.136719 Z M 3.898438 259.632812 L 3.898438 260.382812 L 2.402344 260.382812 L 2.402344 259.632812 Z M 3.898438 261.132812 L 3.898438 261.878906 L 2.402344 261.878906 L 2.402344 261.132812 Z M 3.898438 262.628906 L 3.898438 263.378906 L 2.402344 263.378906 L 2.402344 262.628906 Z M 3.898438 264.125 L 3.898438 264.875 L 2.402344 264.875 L 2.402344 264.125 Z M 3.898438 265.625 L 3.898438 266.371094 L 2.402344 266.371094 L 2.402344 265.625 Z M 3.898438 267.121094 L 3.898438 267.871094 L 2.402344 267.871094 L 2.402344 267.121094 Z M 3.898438 268.617188 L 3.898438 269.367188 L 2.402344 269.367188 L 2.402344 268.617188 Z M 3.898438 270.117188 L 3.898438 270.863281 L 2.402344 270.863281 L 2.402344 270.117188 Z M 3.898438 271.613281 L 3.898438 272.363281 L 2.402344 272.363281 L 2.402344 271.613281 Z M 3.898438 273.109375 L 3.898438 273.859375 L 2.402344 273.859375 L 2.402344 273.109375 Z M 3.898438 274.609375 L 3.898438 275.355469 L 2.402344 275.355469 L 2.402344 274.609375 Z M 3.898438 276.105469 L 3.898438 276.851562 L 2.402344 276.851562 L 2.402344 276.105469 Z M 3.898438 277.601562 L 3.898438 278.351562 L 2.402344 278.351562 L 2.402344 277.601562 Z M 3.898438 279.097656 L 3.898438 279.847656 L 2.402344 279.847656 L 2.402344 279.097656 Z M 3.898438 280.597656 L 3.898438 281.34375 L 2.402344 281.34375 L 2.402344 280.597656 Z M 3.898438 282.09375 L 3.898438 282.84375 L 2.402344 282.84375 L 2.402344 282.09375 Z M 3.898438 283.589844 L 3.898438 284.339844 L 2.402344 284.339844 L 2.402344 283.589844 Z M 3.898438 285.089844 L 3.898438 285.835938 L 2.402344 285.835938 L 2.402344 285.089844 Z M 3.898438 286.585938 L 3.898438 287.335938 L 2.402344 287.335938 L 2.402344 286.585938 Z M 3.898438 288.082031 L 3.898438 288.832031 L 2.402344 288.832031 L 2.402344 288.082031 Z M 3.898438 289.582031 L 3.898438 290.328125 L 2.402344 290.328125 L 2.402344 289.582031 Z M 3.898438 291.078125 L 3.898438 291.828125 L 2.402344 291.828125 L 2.402344 291.078125 Z M 3.898438 292.574219 L 3.898438 293.324219 L 2.402344 293.324219 L 2.402344 292.574219 Z M 3.898438 294.074219 L 3.898438 294.820312 L 2.402344 294.820312 L 2.402344 294.074219 Z M 3.898438 295.570312 L 3.898438 296.316406 L 2.402344 296.316406 L 2.402344 295.570312 Z M 3.898438 297.066406 L 3.898438 297.816406 L 2.402344 297.816406 L 2.402344 297.066406 Z M 3.898438 298.5625 L 3.898438 299.3125 L 2.402344 299.3125 L 2.402344 298.5625 Z M 3.898438 300.0625 L 3.898438 300.808594 L 2.402344 300.808594 L 2.402344 300.0625 Z M 3.898438 301.558594 L 3.898438 302.308594 L 2.402344 302.308594 L 2.402344 301.558594 Z M 3.898438 303.054688 L 3.898438 303.804688 L 2.402344 303.804688 L 2.402344 303.054688 Z M 3.898438 304.554688 L 3.898438 305.300781 L 2.402344 305.300781 L 2.402344 304.554688 Z M 3.898438 306.050781 L 3.898438 306.800781 L 2.402344 306.800781 L 2.402344 306.050781 Z M 3.898438 307.546875 L 3.898438 308.296875 L 2.402344 308.296875 L 2.402344 307.546875 Z M 3.898438 309.046875 L 3.898438 309.792969 L 2.402344 309.792969 L 2.402344 309.046875 Z M 3.898438 310.542969 L 3.898438 311.292969 L 2.402344 311.292969 L 2.402344 310.542969 Z M 3.898438 312.039062 L 3.898438 312.789062 L 2.402344 312.789062 L 2.402344 312.039062 Z M 3.898438 313.539062 L 3.898438 314.285156 L 2.402344 314.285156 L 2.402344 313.539062 Z M 3.898438 315.035156 L 3.898438 315.785156 L 2.402344 315.785156 L 2.402344 315.035156 Z M 3.898438 316.53125 L 3.898438 317.28125 L 2.402344 317.28125 L 2.402344 316.53125 Z M 3.898438 318.027344 L 3.898438 318.777344 L 2.402344 318.777344 L 2.402344 318.027344 Z M 3.898438 319.527344 L 3.898438 320.273438 L 2.402344 320.273438 L 2.402344 319.527344 Z M 3.898438 321.023438 L 3.898438 321.773438 L 2.402344 321.773438 L 2.402344 321.023438 Z M 3.898438 322.519531 L 3.898438 323.269531 L 2.402344 323.269531 L 2.402344 322.519531 Z M 3.898438 324.019531 L 3.898438 324.765625 L 2.402344 324.765625 L 2.402344 324.019531 Z M 3.898438 325.515625 L 3.898438 326.265625 L 2.402344 326.265625 L 2.402344 325.515625 Z M 3.898438 327.011719 L 3.898438 327.761719 L 2.402344 327.761719 L 2.402344 327.011719 Z M 3.898438 328.511719 L 3.898438 329.257812 L 2.402344 329.257812 L 2.402344 328.511719 Z M 3.898438 330.007812 L 3.898438 330.757812 L 2.402344 330.757812 L 2.402344 330.007812 Z M 3.898438 331.503906 L 3.898438 332.253906 L 2.402344 332.253906 L 2.402344 331.503906 Z M 3.898438 333.003906 L 3.898438 333.75 L 2.402344 333.75 L 2.402344 333.003906 Z M 3.898438 334.5 L 3.898438 335.25 L 2.402344 335.25 L 2.402344 334.5 Z M 3.898438 335.996094 L 3.898438 336.746094 L 2.402344 336.746094 L 2.402344 335.996094 Z M 3.898438 337.492188 L 3.898438 338.242188 L 2.402344 338.242188 L 2.402344 337.492188 Z M 3.898438 338.992188 L 3.898438 339.738281 L 2.402344 339.738281 L 2.402344 338.992188 Z M 3.898438 340.488281 L 3.898438 341.238281 L 2.402344 341.238281 L 2.402344 340.488281 Z M 3.898438 341.984375 L 3.898438 342.734375 L 2.402344 342.734375 L 2.402344 341.984375 Z M 3.898438 343.484375 L 3.898438 344.230469 L 2.402344 344.230469 L 2.402344 343.484375 Z M 3.898438 344.980469 L 3.898438 345.730469 L 2.402344 345.730469 L 2.402344 344.980469 Z M 3.898438 346.476562 L 3.898438 347.226562 L 2.402344 347.226562 L 2.402344 346.476562 Z M 3.898438 347.976562 L 3.898438 348.722656 L 2.402344 348.722656 L 2.402344 347.976562 Z M 3.898438 349.472656 L 3.898438 350.222656 L 2.402344 350.222656 L 2.402344 349.472656 Z M 3.898438 350.96875 L 3.898438 351.71875 L 2.402344 351.71875 L 2.402344 350.96875 Z M 3.898438 352.46875 L 3.898438 353.214844 L 2.402344 353.214844 L 2.402344 352.46875 Z M 3.898438 353.964844 L 3.898438 354.714844 L 2.402344 354.714844 L 2.402344 353.964844 Z M 3.898438 355.460938 L 3.898438 356.210938 L 2.402344 356.210938 L 2.402344 355.460938 Z M 3.898438 356.960938 L 3.898438 357.707031 L 2.402344 357.707031 L 2.402344 356.960938 Z M 3.898438 358.457031 L 3.898438 359.203125 L 2.402344 359.203125 L 2.402344 358.457031 Z M 3.898438 359.953125 L 3.898438 360.703125 L 2.402344 360.703125 L 2.402344 359.953125 Z M 3.898438 361.449219 L 3.898438 362.199219 L 2.402344 362.199219 L 2.402344 361.449219 Z M 3.898438 362.949219 L 3.898438 363.695312 L 2.402344 363.695312 L 2.402344 362.949219 Z M 3.898438 364.445312 L 3.898438 365.195312 L 2.402344 365.195312 L 2.402344 364.445312 Z M 3.898438 365.941406 L 3.898438 366.691406 L 2.402344 366.691406 L 2.402344 365.941406 Z M 3.898438 367.441406 L 3.898438 368.1875 L 2.402344 368.1875 L 2.402344 367.441406 Z M 3.898438 368.9375 L 3.898438 369.6875 L 2.402344 369.6875 L 2.402344 368.9375 Z M 3.898438 370.433594 L 3.898438 371.183594 L 2.402344 371.183594 L 2.402344 370.433594 Z M 3.898438 371.933594 L 3.898438 372.679688 L 2.402344 372.679688 L 2.402344 371.933594 Z M 3.898438 373.429688 L 3.898438 374.179688 L 2.402344 374.179688 L 2.402344 373.429688 Z M 3.898438 374.925781 L 3.898438 375.675781 L 2.402344 375.675781 L 2.402344 374.925781 Z M 3.898438 376.425781 L 3.898438 377.171875 L 2.402344 377.171875 L 2.402344 376.425781 Z M 3.898438 377.921875 L 3.898438 378.671875 L 2.402344 378.671875 L 2.402344 377.921875 Z M 3.898438 379.417969 L 3.898438 380.167969 L 2.402344 380.167969 L 2.402344 379.417969 Z M 3.898438 380.914062 L 3.898438 381.664062 L 2.402344 381.664062 L 2.402344 380.914062 Z M 3.898438 382.414062 L 3.898438 383.160156 L 2.402344 383.160156 L 2.402344 382.414062 Z M 3.898438 383.910156 L 3.898438 384.660156 L 2.402344 384.660156 L 2.402344 383.910156 Z M 3.898438 385.40625 L 3.898438 386.15625 L 2.402344 386.15625 L 2.402344 385.40625 Z M 3.898438 386.90625 L 3.898438 387.652344 L 2.402344 387.652344 L 2.402344 386.90625 Z M 3.898438 388.402344 L 3.898438 389.152344 L 2.402344 389.152344 L 2.402344 388.402344 Z M 3.898438 389.898438 L 3.898438 390.648438 L 2.402344 390.648438 L 2.402344 389.898438 Z M 3.898438 391.398438 L 3.898438 392.144531 L 2.402344 392.144531 L 2.402344 391.398438 Z M 3.898438 392.894531 L 3.898438 393.644531 L 2.402344 393.644531 L 2.402344 392.894531 Z M 3.898438 394.390625 L 3.898438 395.140625 L 2.402344 395.140625 L 2.402344 394.390625 Z M 3.898438 395.890625 L 3.898438 396.636719 L 2.402344 396.636719 L 2.402344 395.890625 Z M 3.898438 397.386719 L 3.898438 398.136719 L 2.402344 398.136719 L 2.402344 397.386719 Z M 3.898438 398.882812 L 3.898438 399.632812 L 2.402344 399.632812 L 2.402344 398.882812 Z M 3.898438 400.378906 L 3.898438 401.128906 L 2.402344 401.128906 L 2.402344 400.378906 Z M 3.898438 401.878906 L 3.898438 402.625 L 2.402344 402.625 L 2.402344 401.878906 Z M 3.898438 403.375 L 3.898438 404.125 L 2.402344 404.125 L 2.402344 403.375 Z M 3.898438 404.871094 L 3.898438 405.621094 L 2.402344 405.621094 L 2.402344 404.871094 Z M 3.898438 406.371094 L 3.898438 407.117188 L 2.402344 407.117188 L 2.402344 406.371094 Z M 3.898438 407.867188 L 3.898438 408.617188 L 2.402344 408.617188 L 2.402344 407.867188 Z M 3.898438 409.363281 L 3.898438 410.113281 L 2.402344 410.113281 L 2.402344 409.363281 Z M 3.898438 410.863281 L 3.898438 411.609375 L 2.402344 411.609375 L 2.402344 410.863281 Z M 3.898438 412.359375 L 3.898438 413.109375 L 2.402344 413.109375 L 2.402344 412.359375 Z M 3.898438 413.855469 L 3.898438 414.605469 L 2.402344 414.605469 L 2.402344 413.855469 Z M 3.898438 415.355469 L 3.898438 416.101562 L 2.402344 416.101562 L 2.402344 415.355469 Z M 3.898438 416.851562 L 3.898438 417.601562 L 2.402344 417.601562 L 2.402344 416.851562 Z M 3.898438 418.347656 L 3.898438 419.097656 L 2.402344 419.097656 L 2.402344 418.347656 Z M 3.898438 419.847656 L 3.898438 420.59375 L 2.402344 420.59375 L 2.402344 419.847656 Z M 3.898438 421.34375 L 3.898438 422.089844 L 2.402344 422.089844 L 2.402344 421.34375 Z M 3.898438 422.839844 L 3.898438 423.589844 L 2.402344 423.589844 L 2.402344 422.839844 Z M 3.898438 424.335938 L 3.898438 425.085938 L 2.402344 425.085938 L 2.402344 424.335938 Z M 3.898438 425.835938 L 3.898438 426.582031 L 2.402344 426.582031 L 2.402344 425.835938 Z M 3.898438 427.332031 L 3.898438 428.082031 L 2.402344 428.082031 L 2.402344 427.332031 Z M 3.898438 428.828125 L 3.898438 429.578125 L 2.402344 429.578125 L 2.402344 428.828125 Z M 3.898438 430.328125 L 3.898438 431.074219 L 2.402344 431.074219 L 2.402344 430.328125 Z M 3.898438 431.824219 L 3.898438 432.574219 L 2.402344 432.574219 L 2.402344 431.824219 Z M 3.898438 433.320312 L 3.898438 434.070312 L 2.402344 434.070312 L 2.402344 433.320312 Z M 3.898438 434.820312 L 3.898438 435.566406 L 2.402344 435.566406 L 2.402344 434.820312 Z M 3.898438 436.316406 L 3.898438 437.066406 L 2.402344 437.066406 L 2.402344 436.316406 Z M 3.898438 437.8125 L 3.898438 438.5625 L 2.402344 438.5625 L 2.402344 437.8125 Z M 3.898438 439.3125 L 3.898438 440.058594 L 2.402344 440.058594 L 2.402344 439.3125 Z M 3.898438 440.808594 L 3.898438 441.554688 L 2.402344 441.554688 L 2.402344 440.808594 Z M 3.898438 442.304688 L 3.898438 443.054688 L 2.402344 443.054688 L 2.402344 442.304688 Z M 3.898438 443.800781 L 3.898438 444.550781 L 2.402344 444.550781 L 2.402344 443.800781 Z M 3.898438 445.300781 L 3.898438 446.046875 L 2.402344 446.046875 L 2.402344 445.300781 Z M 3.898438 446.796875 L 3.898438 447.546875 L 2.402344 447.546875 L 2.402344 446.796875 Z M 3.898438 448.292969 L 3.898438 449.042969 L 2.402344 449.042969 L 2.402344 448.292969 Z M 3.898438 449.792969 L 3.898438 450.539062 L 2.402344 450.539062 L 2.402344 449.792969 Z M 3.898438 451.289062 L 3.898438 452.039062 L 2.402344 452.039062 L 2.402344 451.289062 Z M 3.898438 452.785156 L 3.898438 453.535156 L 2.402344 453.535156 L 2.402344 452.785156 Z M 3.898438 454.285156 L 3.898438 455.03125 L 2.402344 455.03125 L 2.402344 454.285156 Z M 3.898438 455.78125 L 3.898438 456.53125 L 2.402344 456.53125 L 2.402344 455.78125 Z M 3.898438 457.277344 L 3.898438 458.027344 L 2.402344 458.027344 L 2.402344 457.277344 Z M 3.898438 458.777344 L 3.898438 459.523438 L 2.402344 459.523438 L 2.402344 458.777344 Z M 3.898438 460.273438 L 3.898438 461.023438 L 2.402344 461.023438 L 2.402344 460.273438 Z M 3.898438 461.769531 L 3.898438 462.519531 L 2.402344 462.519531 L 2.402344 461.769531 Z M 3.898438 463.265625 L 3.898438 464.015625 L 2.402344 464.015625 L 2.402344 463.265625 Z M 3.792969 463.457031 C 4.066406 463.472656 4.339844 463.5 4.609375 463.539062 L 4.40625 465.023438 C 4.175781 464.988281 3.941406 464.96875 3.703125 464.953125 Z M 5.410156 463.679688 C 5.671875 463.734375 5.929688 463.800781 6.1875 463.875 L 5.765625 465.3125 C 5.542969 465.246094 5.320312 465.191406 5.09375 465.140625 Z M 6.941406 464.128906 C 7.195312 464.226562 7.441406 464.328125 7.683594 464.445312 L 7.050781 465.800781 C 6.839844 465.703125 6.628906 465.613281 6.414062 465.53125 Z M 8.40625 464.816406 C 8.640625 464.949219 8.871094 465.089844 9.097656 465.238281 L 8.265625 466.484375 C 8.070312 466.355469 7.875 466.234375 7.671875 466.121094 Z M 9.75 465.714844 C 9.960938 465.878906 10.167969 466.054688 10.367188 466.234375 L 9.359375 467.339844 C 9.1875 467.183594 9.011719 467.035156 8.828125 466.894531 Z M 10.941406 466.800781 C 11.125 466.996094 11.300781 467.199219 11.472656 467.40625 L 10.308594 468.347656 C 10.164062 468.167969 10.011719 467.996094 9.851562 467.828125 Z M 11.957031 468.050781 C 12.109375 468.273438 12.253906 468.5 12.390625 468.734375 L 11.101562 469.492188 C 10.984375 469.292969 10.859375 469.09375 10.726562 468.90625 Z M 12.777344 469.449219 C 12.894531 469.695312 13.003906 469.941406 13.101562 470.191406 L 11.710938 470.742188 C 11.625 470.527344 11.53125 470.316406 11.429688 470.109375 Z M 13.367188 470.9375 C 13.449219 471.195312 13.515625 471.453125 13.578125 471.710938 L 12.117188 472.050781 C 12.066406 471.828125 12.007812 471.605469 11.9375 471.386719 Z M 13.730469 472.507812 C 13.769531 472.777344 13.800781 473.050781 13.824219 473.324219 L 12.328125 473.433594 C 12.3125 473.199219 12.285156 472.964844 12.25 472.734375 Z M 13.117188 473.394531 L 13.867188 473.394531 L 13.867188 474.890625 L 13.117188 474.890625 Z M 14.613281 473.394531 L 15.363281 473.394531 L 15.363281 474.890625 L 14.613281 474.890625 Z M 16.113281 473.394531 L 16.859375 473.394531 L 16.859375 474.890625 L 16.113281 474.890625 Z M 17.609375 473.394531 L 18.359375 473.394531 L 18.359375 474.890625 L 17.609375 474.890625 Z M 19.105469 473.394531 L 19.855469 473.394531 L 19.855469 474.890625 L 19.105469 474.890625 Z M 20.605469 473.394531 L 21.351562 473.394531 L 21.351562 474.890625 L 20.605469 474.890625 Z M 22.101562 473.394531 L 22.847656 473.394531 L 22.847656 474.890625 L 22.101562 474.890625 Z M 23.597656 473.394531 L 24.347656 473.394531 L 24.347656 474.890625 L 23.597656 474.890625 Z M 25.09375 473.394531 L 25.84375 473.394531 L 25.84375 474.890625 L 25.09375 474.890625 Z M 26.59375 473.394531 L 27.339844 473.394531 L 27.339844 474.890625 L 26.59375 474.890625 Z M 28.089844 473.394531 L 28.839844 473.394531 L 28.839844 474.890625 L 28.089844 474.890625 Z M 29.585938 473.394531 L 30.335938 473.394531 L 30.335938 474.890625 L 29.585938 474.890625 Z M 31.085938 473.394531 L 31.832031 473.394531 L 31.832031 474.890625 L 31.085938 474.890625 Z M 32.582031 473.394531 L 33.332031 473.394531 L 33.332031 474.890625 L 32.582031 474.890625 Z M 34.078125 473.394531 L 34.828125 473.394531 L 34.828125 474.890625 L 34.078125 474.890625 Z M 35.578125 473.394531 L 36.324219 473.394531 L 36.324219 474.890625 L 35.578125 474.890625 Z M 37.074219 473.394531 L 37.824219 473.394531 L 37.824219 474.890625 L 37.074219 474.890625 Z M 38.570312 473.394531 L 39.320312 473.394531 L 39.320312 474.890625 L 38.570312 474.890625 Z M 40.070312 473.394531 L 40.816406 473.394531 L 40.816406 474.890625 L 40.070312 474.890625 Z M 41.566406 473.394531 L 42.316406 473.394531 L 42.316406 474.890625 L 41.566406 474.890625 Z M 43.0625 473.394531 L 43.8125 473.394531 L 43.8125 474.890625 L 43.0625 474.890625 Z M 44.558594 473.394531 L 45.308594 473.394531 L 45.308594 474.890625 L 44.558594 474.890625 Z M 46.058594 473.394531 L 46.804688 473.394531 L 46.804688 474.890625 L 46.058594 474.890625 Z M 47.554688 473.394531 L 48.304688 473.394531 L 48.304688 474.890625 L 47.554688 474.890625 Z M 49.050781 473.394531 L 49.800781 473.394531 L 49.800781 474.890625 L 49.050781 474.890625 Z M 50.550781 473.394531 L 51.296875 473.394531 L 51.296875 474.890625 L 50.550781 474.890625 Z M 52.046875 473.394531 L 52.796875 473.394531 L 52.796875 474.890625 L 52.046875 474.890625 Z M 53.542969 473.394531 L 54.292969 473.394531 L 54.292969 474.890625 L 53.542969 474.890625 Z M 55.042969 473.394531 L 55.789062 473.394531 L 55.789062 474.890625 L 55.042969 474.890625 Z M 56.539062 473.394531 L 57.289062 473.394531 L 57.289062 474.890625 L 56.539062 474.890625 Z M 58.035156 473.394531 L 58.785156 473.394531 L 58.785156 474.890625 L 58.035156 474.890625 Z M 59.535156 473.394531 L 60.28125 473.394531 L 60.28125 474.890625 L 59.535156 474.890625 Z M 61.03125 473.394531 L 61.78125 473.394531 L 61.78125 474.890625 L 61.03125 474.890625 Z M 62.527344 473.394531 L 63.277344 473.394531 L 63.277344 474.890625 L 62.527344 474.890625 Z M 64.023438 473.394531 L 64.773438 473.394531 L 64.773438 474.890625 L 64.023438 474.890625 Z M 65.523438 473.394531 L 66.269531 473.394531 L 66.269531 474.890625 L 65.523438 474.890625 Z M 67.019531 473.394531 L 67.769531 473.394531 L 67.769531 474.890625 L 67.019531 474.890625 Z M 68.515625 473.394531 L 69.265625 473.394531 L 69.265625 474.890625 L 68.515625 474.890625 Z M 70.015625 473.394531 L 70.761719 473.394531 L 70.761719 474.890625 L 70.015625 474.890625 Z M 71.511719 473.394531 L 72.261719 473.394531 L 72.261719 474.890625 L 71.511719 474.890625 Z M 73.007812 473.394531 L 73.757812 473.394531 L 73.757812 474.890625 L 73.007812 474.890625 Z M 74.507812 473.394531 L 75.253906 473.394531 L 75.253906 474.890625 L 74.507812 474.890625 Z M 76.003906 473.394531 L 76.753906 473.394531 L 76.753906 474.890625 L 76.003906 474.890625 Z M 77.5 473.394531 L 78.25 473.394531 L 78.25 474.890625 L 77.5 474.890625 Z M 79 473.394531 L 79.746094 473.394531 L 79.746094 474.890625 L 79 474.890625 Z M 80.496094 473.394531 L 81.246094 473.394531 L 81.246094 474.890625 L 80.496094 474.890625 Z M 81.992188 473.394531 L 82.742188 473.394531 L 82.742188 474.890625 L 81.992188 474.890625 Z M 83.492188 473.394531 L 84.238281 473.394531 L 84.238281 474.890625 L 83.492188 474.890625 Z M 84.988281 473.394531 L 85.734375 473.394531 L 85.734375 474.890625 L 84.988281 474.890625 Z M 86.484375 473.394531 L 87.234375 473.394531 L 87.234375 474.890625 L 86.484375 474.890625 Z M 87.980469 473.394531 L 88.730469 473.394531 L 88.730469 474.890625 L 87.980469 474.890625 Z M 89.480469 473.394531 L 90.226562 473.394531 L 90.226562 474.890625 L 89.480469 474.890625 Z M 90.976562 473.394531 L 91.726562 473.394531 L 91.726562 474.890625 L 90.976562 474.890625 Z M 92.472656 473.394531 L 93.222656 473.394531 L 93.222656 474.890625 L 92.472656 474.890625 Z M 93.972656 473.394531 L 94.71875 473.394531 L 94.71875 474.890625 L 93.972656 474.890625 Z M 95.46875 473.394531 L 96.21875 473.394531 L 96.21875 474.890625 L 95.46875 474.890625 Z M 96.964844 473.394531 L 97.714844 473.394531 L 97.714844 474.890625 L 96.964844 474.890625 Z M 98.464844 473.394531 L 99.210938 473.394531 L 99.210938 474.890625 L 98.464844 474.890625 Z M 99.960938 473.394531 L 100.710938 473.394531 L 100.710938 474.890625 L 99.960938 474.890625 Z M 101.457031 473.394531 L 102.207031 473.394531 L 102.207031 474.890625 L 101.457031 474.890625 Z M 102.957031 473.394531 L 103.703125 473.394531 L 103.703125 474.890625 L 102.957031 474.890625 Z M 104.453125 473.394531 L 105.203125 473.394531 L 105.203125 474.890625 L 104.453125 474.890625 Z M 105.949219 473.394531 L 106.699219 473.394531 L 106.699219 474.890625 L 105.949219 474.890625 Z M 107.445312 473.394531 L 108.195312 473.394531 L 108.195312 474.890625 L 107.445312 474.890625 Z M 108.945312 473.394531 L 109.691406 473.394531 L 109.691406 474.890625 L 108.945312 474.890625 Z M 110.441406 473.394531 L 111.191406 473.394531 L 111.191406 474.890625 L 110.441406 474.890625 Z M 111.9375 473.394531 L 112.6875 473.394531 L 112.6875 474.890625 L 111.9375 474.890625 Z M 113.4375 473.394531 L 114.183594 473.394531 L 114.183594 474.890625 L 113.4375 474.890625 Z M 114.933594 473.394531 L 115.683594 473.394531 L 115.683594 474.890625 L 114.933594 474.890625 Z M 116.429688 473.394531 L 117.179688 473.394531 L 117.179688 474.890625 L 116.429688 474.890625 Z M 117.929688 473.394531 L 118.675781 473.394531 L 118.675781 474.890625 L 117.929688 474.890625 Z M 119.425781 473.394531 L 120.175781 473.394531 L 120.175781 474.890625 L 119.425781 474.890625 Z M 120.921875 473.394531 L 121.671875 473.394531 L 121.671875 474.890625 L 120.921875 474.890625 Z M 122.421875 473.394531 L 123.167969 473.394531 L 123.167969 474.890625 L 122.421875 474.890625 Z M 123.917969 473.394531 L 124.667969 473.394531 L 124.667969 474.890625 L 123.917969 474.890625 Z M 125.414062 473.394531 L 126.164062 473.394531 L 126.164062 474.890625 L 125.414062 474.890625 Z M 126.910156 473.394531 L 127.660156 473.394531 L 127.660156 474.890625 L 126.910156 474.890625 Z M 128.410156 473.394531 L 129.15625 473.394531 L 129.15625 474.890625 L 128.410156 474.890625 Z M 129.90625 473.394531 L 130.65625 473.394531 L 130.65625 474.890625 L 129.90625 474.890625 Z M 131.402344 473.394531 L 132.152344 473.394531 L 132.152344 474.890625 L 131.402344 474.890625 Z M 132.902344 473.394531 L 133.648438 473.394531 L 133.648438 474.890625 L 132.902344 474.890625 Z M 134.398438 473.394531 L 135.148438 473.394531 L 135.148438 474.890625 L 134.398438 474.890625 Z M 135.894531 473.394531 L 136.644531 473.394531 L 136.644531 474.890625 L 135.894531 474.890625 Z M 137.394531 473.394531 L 138.140625 473.394531 L 138.140625 474.890625 L 137.394531 474.890625 Z M 138.890625 473.394531 L 139.640625 473.394531 L 139.640625 474.890625 L 138.890625 474.890625 Z M 140.386719 473.394531 L 141.136719 473.394531 L 141.136719 474.890625 L 140.386719 474.890625 Z M 141.886719 473.394531 L 142.632812 473.394531 L 142.632812 474.890625 L 141.886719 474.890625 Z M 143.382812 473.394531 L 144.132812 473.394531 L 144.132812 474.890625 L 143.382812 474.890625 Z M 144.878906 473.394531 L 145.628906 473.394531 L 145.628906 474.890625 L 144.878906 474.890625 Z M 146.378906 473.394531 L 147.125 473.394531 L 147.125 474.890625 L 146.378906 474.890625 Z M 147.875 473.394531 L 148.621094 473.394531 L 148.621094 474.890625 L 147.875 474.890625 Z M 149.371094 473.394531 L 150.121094 473.394531 L 150.121094 474.890625 L 149.371094 474.890625 Z M 150.867188 473.394531 L 151.617188 473.394531 L 151.617188 474.890625 L 150.867188 474.890625 Z M 152.367188 473.394531 L 153.113281 473.394531 L 153.113281 474.890625 L 152.367188 474.890625 Z M 153.863281 473.394531 L 154.613281 473.394531 L 154.613281 474.890625 L 153.863281 474.890625 Z M 155.359375 473.394531 L 156.109375 473.394531 L 156.109375 474.890625 L 155.359375 474.890625 Z M 156.859375 473.394531 L 157.605469 473.394531 L 157.605469 474.890625 L 156.859375 474.890625 Z M 158.355469 473.394531 L 159.105469 473.394531 L 159.105469 474.890625 L 158.355469 474.890625 Z M 159.851562 473.394531 L 160.601562 473.394531 L 160.601562 474.890625 L 159.851562 474.890625 Z M 161.351562 473.394531 L 162.097656 473.394531 L 162.097656 474.890625 L 161.351562 474.890625 Z M 162.847656 473.394531 L 163.597656 473.394531 L 163.597656 474.890625 L 162.847656 474.890625 Z M 164.34375 473.394531 L 165.09375 473.394531 L 165.09375 474.890625 L 164.34375 474.890625 Z M 165.84375 473.394531 L 166.589844 473.394531 L 166.589844 474.890625 L 165.84375 474.890625 Z M 167.339844 473.394531 L 168.085938 473.394531 L 168.085938 474.890625 L 167.339844 474.890625 Z M 168.835938 473.394531 L 169.585938 473.394531 L 169.585938 474.890625 L 168.835938 474.890625 Z M 170.332031 473.394531 L 171.082031 473.394531 L 171.082031 474.890625 L 170.332031 474.890625 Z M 171.832031 473.394531 L 172.578125 473.394531 L 172.578125 474.890625 L 171.832031 474.890625 Z M 173.328125 473.394531 L 174.078125 473.394531 L 174.078125 474.890625 L 173.328125 474.890625 Z M 174.824219 473.394531 L 175.574219 473.394531 L 175.574219 474.890625 L 174.824219 474.890625 Z M 176.324219 473.394531 L 177.070312 473.394531 L 177.070312 474.890625 L 176.324219 474.890625 Z M 177.820312 473.394531 L 178.570312 473.394531 L 178.570312 474.890625 L 177.820312 474.890625 Z M 179.316406 473.394531 L 180.066406 473.394531 L 180.066406 474.890625 L 179.316406 474.890625 Z M 180.816406 473.394531 L 181.5625 473.394531 L 181.5625 474.890625 L 180.816406 474.890625 Z M 182.3125 473.394531 L 183.0625 473.394531 L 183.0625 474.890625 L 182.3125 474.890625 Z M 183.808594 473.394531 L 184.558594 473.394531 L 184.558594 474.890625 L 183.808594 474.890625 Z M 185.308594 473.394531 L 186.054688 473.394531 L 186.054688 474.890625 L 185.308594 474.890625 Z M 186.804688 473.394531 L 187.554688 473.394531 L 187.554688 474.890625 L 186.804688 474.890625 Z M 188.300781 473.394531 L 189.050781 473.394531 L 189.050781 474.890625 L 188.300781 474.890625 Z M 189.796875 473.394531 L 190.546875 473.394531 L 190.546875 474.890625 L 189.796875 474.890625 Z M 191.296875 473.394531 L 192.042969 473.394531 L 192.042969 474.890625 L 191.296875 474.890625 Z M 192.792969 473.394531 L 193.542969 473.394531 L 193.542969 474.890625 L 192.792969 474.890625 Z M 194.289062 473.394531 L 195.039062 473.394531 L 195.039062 474.890625 L 194.289062 474.890625 Z M 195.789062 473.394531 L 196.535156 473.394531 L 196.535156 474.890625 L 195.789062 474.890625 Z M 197.285156 473.394531 L 198.035156 473.394531 L 198.035156 474.890625 L 197.285156 474.890625 Z M 198.78125 473.394531 L 199.53125 473.394531 L 199.53125 474.890625 L 198.78125 474.890625 Z M 200.28125 473.394531 L 201.027344 473.394531 L 201.027344 474.890625 L 200.28125 474.890625 Z M 201.777344 473.394531 L 202.527344 473.394531 L 202.527344 474.890625 L 201.777344 474.890625 Z M 203.273438 473.394531 L 204.023438 473.394531 L 204.023438 474.890625 L 203.273438 474.890625 Z M 204.773438 473.394531 L 205.519531 473.394531 L 205.519531 474.890625 L 204.773438 474.890625 Z M 206.269531 473.394531 L 207.019531 473.394531 L 207.019531 474.890625 L 206.269531 474.890625 Z M 207.765625 473.394531 L 208.515625 473.394531 L 208.515625 474.890625 L 207.765625 474.890625 Z M 209.265625 473.394531 L 210.011719 473.394531 L 210.011719 474.890625 L 209.265625 474.890625 Z M 210.761719 473.394531 L 211.507812 473.394531 L 211.507812 474.890625 L 210.761719 474.890625 Z M 212.257812 473.394531 L 213.007812 473.394531 L 213.007812 474.890625 L 212.257812 474.890625 Z M 213.753906 473.394531 L 214.503906 473.394531 L 214.503906 474.890625 L 213.753906 474.890625 Z M 215.253906 473.394531 L 216 473.394531 L 216 474.890625 L 215.253906 474.890625 Z M 216.75 473.394531 L 217.5 473.394531 L 217.5 474.890625 L 216.75 474.890625 Z M 218.246094 473.394531 L 218.996094 473.394531 L 218.996094 474.890625 L 218.246094 474.890625 Z M 219.746094 473.394531 L 220.492188 473.394531 L 220.492188 474.890625 L 219.746094 474.890625 Z M 221.242188 473.394531 L 221.992188 473.394531 L 221.992188 474.890625 L 221.242188 474.890625 Z M 222.738281 473.394531 L 223.488281 473.394531 L 223.488281 474.890625 L 222.738281 474.890625 Z M 224.238281 473.394531 L 224.984375 473.394531 L 224.984375 474.890625 L 224.238281 474.890625 Z M 225.734375 473.394531 L 226.484375 473.394531 L 226.484375 474.890625 L 225.734375 474.890625 Z M 227.230469 473.394531 L 227.980469 473.394531 L 227.980469 474.890625 L 227.230469 474.890625 Z M 228.730469 473.394531 L 229.476562 473.394531 L 229.476562 474.890625 L 228.730469 474.890625 Z M 230.226562 473.394531 L 230.972656 473.394531 L 230.972656 474.890625 L 230.226562 474.890625 Z M 231.722656 473.394531 L 232.472656 473.394531 L 232.472656 474.890625 L 231.722656 474.890625 Z M 233.21875 473.394531 L 233.96875 473.394531 L 233.96875 474.890625 L 233.21875 474.890625 Z M 234.71875 473.394531 L 235.464844 473.394531 L 235.464844 474.890625 L 234.71875 474.890625 Z M 236.214844 473.394531 L 236.964844 473.394531 L 236.964844 474.890625 L 236.214844 474.890625 Z M 237.710938 473.394531 L 238.460938 473.394531 L 238.460938 474.890625 L 237.710938 474.890625 Z M 239.210938 473.394531 L 239.957031 473.394531 L 239.957031 474.890625 L 239.210938 474.890625 Z M 240.707031 473.394531 L 241.457031 473.394531 L 241.457031 474.890625 L 240.707031 474.890625 Z M 242.203125 473.394531 L 242.953125 473.394531 L 242.953125 474.890625 L 242.203125 474.890625 Z M 243.703125 473.394531 L 244.449219 473.394531 L 244.449219 474.890625 L 243.703125 474.890625 Z M 245.199219 473.394531 L 245.949219 473.394531 L 245.949219 474.890625 L 245.199219 474.890625 Z M 246.695312 473.394531 L 247.445312 473.394531 L 247.445312 474.890625 L 246.695312 474.890625 Z M 248.195312 473.394531 L 248.941406 473.394531 L 248.941406 474.890625 L 248.195312 474.890625 Z M 249.691406 473.394531 L 250.441406 473.394531 L 250.441406 474.890625 L 249.691406 474.890625 Z M 251.1875 473.394531 L 251.9375 473.394531 L 251.9375 474.890625 L 251.1875 474.890625 Z M 252.683594 473.394531 L 253.433594 473.394531 L 253.433594 474.890625 L 252.683594 474.890625 Z M 254.183594 473.394531 L 254.929688 473.394531 L 254.929688 474.890625 L 254.183594 474.890625 Z M 255.679688 473.394531 L 256.429688 473.394531 L 256.429688 474.890625 L 255.679688 474.890625 Z M 257.175781 473.394531 L 257.925781 473.394531 L 257.925781 474.890625 L 257.175781 474.890625 Z M 258.675781 473.394531 L 259.421875 473.394531 L 259.421875 474.890625 L 258.675781 474.890625 Z M 260.171875 473.394531 L 260.921875 473.394531 L 260.921875 474.890625 L 260.171875 474.890625 Z M 261.667969 473.394531 L 262.417969 473.394531 L 262.417969 474.890625 L 261.667969 474.890625 Z M 263.167969 473.394531 L 263.765625 473.394531 L 263.765625 474.140625 L 263.015625 474.136719 L 263.015625 473.980469 L 264.515625 473.992188 L 264.507812 474.890625 L 263.167969 474.890625 Z M 263.0625 473.148438 C 263.085938 472.875 263.121094 472.605469 263.167969 472.335938 L 264.644531 472.585938 C 264.605469 472.816406 264.574219 473.050781 264.554688 473.285156 Z M 263.332031 471.546875 C 263.398438 471.285156 263.472656 471.03125 263.554688 470.777344 L 264.976562 471.246094 C 264.90625 471.464844 264.839844 471.683594 264.785156 471.90625 Z M 263.832031 470.035156 C 263.9375 469.78125 264.050781 469.535156 264.175781 469.292969 L 265.507812 469.972656 C 265.402344 470.179688 265.304688 470.394531 265.214844 470.609375 Z M 264.570312 468.585938 C 264.710938 468.355469 264.859375 468.128906 265.015625 467.910156 L 266.230469 468.78125 C 266.097656 468.972656 265.96875 469.164062 265.847656 469.363281 Z M 265.507812 467.273438 C 265.683594 467.066406 265.863281 466.867188 266.050781 466.675781 L 267.121094 467.71875 C 266.960938 467.882812 266.804688 468.054688 266.65625 468.234375 Z M 266.632812 466.117188 C 266.835938 465.941406 267.042969 465.769531 267.257812 465.605469 L 268.160156 466.800781 C 267.976562 466.941406 267.796875 467.085938 267.625 467.238281 Z M 267.917969 465.144531 C 268.144531 464.996094 268.378906 464.859375 268.617188 464.730469 L 269.328125 466.046875 C 269.125 466.15625 268.925781 466.273438 268.730469 466.402344 Z M 269.347656 464.367188 C 269.589844 464.257812 269.835938 464.160156 270.085938 464.070312 L 270.59375 465.480469 C 270.378906 465.554688 270.167969 465.640625 269.957031 465.734375 Z M 270.847656 463.828125 C 271.105469 463.757812 271.363281 463.695312 271.628906 463.644531 L 271.917969 465.113281 C 271.691406 465.15625 271.46875 465.210938 271.246094 465.269531 Z M 272.433594 463.515625 C 272.707031 463.484375 272.980469 463.460938 273.253906 463.449219 L 273.320312 464.945312 C 273.082031 464.957031 272.84375 464.972656 272.609375 465.003906 Z M 272.96875 463.855469 L 272.96875 463.105469 L 274.46875 463.105469 L 274.46875 463.855469 Z M 272.96875 462.355469 L 272.96875 461.609375 L 274.46875 461.609375 L 274.46875 462.355469 Z M 272.96875 460.859375 L 272.96875 460.109375 L 274.46875 460.109375 L 274.46875 460.859375 Z M 272.96875 459.363281 L 272.96875 458.613281 L 274.46875 458.613281 L 274.46875 459.363281 Z M 272.96875 457.863281 L 272.96875 457.117188 L 274.46875 457.117188 L 274.46875 457.863281 Z M 272.96875 456.367188 L 272.96875 455.617188 L 274.46875 455.617188 L 274.46875 456.367188 Z M 272.96875 454.871094 L 272.96875 454.121094 L 274.46875 454.121094 L 274.46875 454.871094 Z M 272.96875 453.371094 L 272.96875 452.625 L 274.46875 452.625 L 274.46875 453.371094 Z M 272.96875 451.875 L 272.96875 451.125 L 274.46875 451.125 L 274.46875 451.875 Z M 272.96875 450.378906 L 272.96875 449.628906 L 274.46875 449.628906 L 274.46875 450.378906 Z M 272.96875 448.878906 L 272.96875 448.132812 L 274.46875 448.132812 L 274.46875 448.878906 Z M 272.96875 447.382812 L 272.96875 446.636719 L 274.46875 446.636719 L 274.46875 447.382812 Z M 272.96875 445.886719 L 272.96875 445.136719 L 274.46875 445.136719 L 274.46875 445.886719 Z M 272.96875 444.390625 L 272.96875 443.640625 L 274.46875 443.640625 L 274.46875 444.390625 Z M 272.96875 442.890625 L 272.96875 442.144531 L 274.46875 442.144531 L 274.46875 442.890625 Z M 272.96875 441.394531 L 272.96875 440.644531 L 274.46875 440.644531 L 274.46875 441.394531 Z M 272.96875 439.898438 L 272.96875 439.148438 L 274.46875 439.148438 L 274.46875 439.898438 Z M 272.96875 438.398438 L 272.96875 437.652344 L 274.46875 437.652344 L 274.46875 438.398438 Z M 272.96875 436.902344 L 272.96875 436.152344 L 274.46875 436.152344 L 274.46875 436.902344 Z M 272.96875 435.40625 L 272.96875 434.65625 L 274.46875 434.65625 L 274.46875 435.40625 Z M 272.96875 433.90625 L 272.96875 433.160156 L 274.46875 433.160156 L 274.46875 433.90625 Z M 272.96875 432.410156 L 272.96875 431.660156 L 274.46875 431.660156 L 274.46875 432.410156 Z M 272.96875 430.914062 L 272.96875 430.164062 L 274.46875 430.164062 L 274.46875 430.914062 Z M 272.96875 429.414062 L 272.96875 428.667969 L 274.46875 428.667969 L 274.46875 429.414062 Z M 272.96875 427.917969 L 272.96875 427.171875 L 274.46875 427.171875 L 274.46875 427.917969 Z M 272.96875 426.421875 L 272.96875 425.671875 L 274.46875 425.671875 L 274.46875 426.421875 Z M 272.96875 424.925781 L 272.96875 424.175781 L 274.46875 424.175781 L 274.46875 424.925781 Z M 272.96875 423.425781 L 272.96875 422.679688 L 274.46875 422.679688 L 274.46875 423.425781 Z M 272.96875 421.929688 L 272.96875 421.179688 L 274.46875 421.179688 L 274.46875 421.929688 Z M 272.96875 420.433594 L 272.96875 419.683594 L 274.46875 419.683594 L 274.46875 420.433594 Z M 272.96875 418.933594 L 272.96875 418.1875 L 274.46875 418.1875 L 274.46875 418.933594 Z M 272.96875 417.4375 L 272.96875 416.6875 L 274.46875 416.6875 L 274.46875 417.4375 Z M 272.96875 415.941406 L 272.96875 415.191406 L 274.46875 415.191406 L 274.46875 415.941406 Z M 272.96875 414.441406 L 272.96875 413.695312 L 274.46875 413.695312 L 274.46875 414.441406 Z M 272.96875 412.945312 L 272.96875 412.195312 L 274.46875 412.195312 L 274.46875 412.945312 Z M 272.96875 411.449219 L 272.96875 410.699219 L 274.46875 410.699219 L 274.46875 411.449219 Z M 272.96875 409.949219 L 272.96875 409.203125 L 274.46875 409.203125 L 274.46875 409.949219 Z M 272.96875 408.453125 L 272.96875 407.703125 L 274.46875 407.703125 L 274.46875 408.453125 Z M 272.96875 406.957031 L 272.96875 406.207031 L 274.46875 406.207031 L 274.46875 406.957031 Z M 272.96875 405.460938 L 272.96875 404.710938 L 274.46875 404.710938 L 274.46875 405.460938 Z M 272.96875 403.960938 L 272.96875 403.214844 L 274.46875 403.214844 L 274.46875 403.960938 Z M 272.96875 402.464844 L 272.96875 401.714844 L 274.46875 401.714844 L 274.46875 402.464844 Z M 272.96875 400.96875 L 272.96875 400.21875 L 274.46875 400.21875 L 274.46875 400.96875 Z M 272.96875 399.46875 L 272.96875 398.722656 L 274.46875 398.722656 L 274.46875 399.46875 Z M 272.96875 397.972656 L 272.96875 397.222656 L 274.46875 397.222656 L 274.46875 397.972656 Z M 272.96875 396.476562 L 272.96875 395.726562 L 274.46875 395.726562 L 274.46875 396.476562 Z M 272.96875 394.976562 L 272.96875 394.230469 L 274.46875 394.230469 L 274.46875 394.976562 Z M 272.96875 393.480469 L 272.96875 392.730469 L 274.46875 392.730469 L 274.46875 393.480469 Z M 272.96875 391.984375 L 272.96875 391.234375 L 274.46875 391.234375 L 274.46875 391.984375 Z M 272.96875 390.484375 L 272.96875 389.738281 L 274.46875 389.738281 L 274.46875 390.484375 Z M 272.96875 388.988281 L 272.96875 388.238281 L 274.46875 388.238281 L 274.46875 388.988281 Z M 272.96875 387.492188 L 272.96875 386.742188 L 274.46875 386.742188 L 274.46875 387.492188 Z M 272.96875 385.992188 L 272.96875 385.246094 L 274.46875 385.246094 L 274.46875 385.992188 Z M 272.96875 384.496094 L 272.96875 383.75 L 274.46875 383.75 L 274.46875 384.496094 Z M 272.96875 383 L 272.96875 382.25 L 274.46875 382.25 L 274.46875 383 Z M 272.96875 381.503906 L 272.96875 380.753906 L 274.46875 380.753906 L 274.46875 381.503906 Z M 272.96875 380.003906 L 272.96875 379.257812 L 274.46875 379.257812 L 274.46875 380.003906 Z M 272.96875 378.507812 L 272.96875 377.757812 L 274.46875 377.757812 L 274.46875 378.507812 Z M 272.96875 377.011719 L 272.96875 376.261719 L 274.46875 376.261719 L 274.46875 377.011719 Z M 272.96875 375.511719 L 272.96875 374.765625 L 274.46875 374.765625 L 274.46875 375.511719 Z M 272.96875 374.015625 L 272.96875 373.265625 L 274.46875 373.265625 L 274.46875 374.015625 Z M 272.96875 372.519531 L 272.96875 371.769531 L 274.46875 371.769531 L 274.46875 372.519531 Z M 272.96875 371.019531 L 272.96875 370.273438 L 274.46875 370.273438 L 274.46875 371.019531 Z M 272.96875 369.523438 L 272.96875 368.773438 L 274.46875 368.773438 L 274.46875 369.523438 Z M 272.96875 368.027344 L 272.96875 367.277344 L 274.46875 367.277344 L 274.46875 368.027344 Z M 272.96875 366.527344 L 272.96875 365.78125 L 274.46875 365.78125 L 274.46875 366.527344 Z M 272.96875 365.03125 L 272.96875 364.285156 L 274.46875 364.285156 L 274.46875 365.03125 Z M 272.96875 363.535156 L 272.96875 362.785156 L 274.46875 362.785156 L 274.46875 363.535156 Z M 272.96875 362.039062 L 272.96875 361.289062 L 274.46875 361.289062 L 274.46875 362.039062 Z M 272.96875 360.539062 L 272.96875 359.792969 L 274.46875 359.792969 L 274.46875 360.539062 Z M 272.96875 359.042969 L 272.96875 358.292969 L 274.46875 358.292969 L 274.46875 359.042969 Z M 272.96875 357.546875 L 272.96875 356.796875 L 274.46875 356.796875 L 274.46875 357.546875 Z M 272.96875 356.046875 L 272.96875 355.300781 L 274.46875 355.300781 L 274.46875 356.046875 Z M 272.96875 354.550781 L 272.96875 353.800781 L 274.46875 353.800781 L 274.46875 354.550781 Z M 272.96875 353.054688 L 272.96875 352.304688 L 274.46875 352.304688 L 274.46875 353.054688 Z M 272.96875 351.554688 L 272.96875 350.808594 L 274.46875 350.808594 L 274.46875 351.554688 Z M 272.96875 350.058594 L 272.96875 349.308594 L 274.46875 349.308594 L 274.46875 350.058594 Z M 272.96875 348.5625 L 272.96875 347.8125 L 274.46875 347.8125 L 274.46875 348.5625 Z M 272.96875 347.0625 L 272.96875 346.316406 L 274.46875 346.316406 L 274.46875 347.0625 Z M 272.96875 345.566406 L 272.96875 344.816406 L 274.46875 344.816406 L 274.46875 345.566406 Z M 272.96875 344.070312 L 272.96875 343.320312 L 274.46875 343.320312 L 274.46875 344.070312 Z M 272.96875 342.574219 L 272.96875 341.824219 L 274.46875 341.824219 L 274.46875 342.574219 Z M 272.96875 341.074219 L 272.96875 340.328125 L 274.46875 340.328125 L 274.46875 341.074219 Z M 272.96875 339.578125 L 272.96875 338.828125 L 274.46875 338.828125 L 274.46875 339.578125 Z M 272.96875 338.082031 L 272.96875 337.332031 L 274.46875 337.332031 L 274.46875 338.082031 Z M 272.96875 336.582031 L 272.96875 335.835938 L 274.46875 335.835938 L 274.46875 336.582031 Z M 272.96875 335.085938 L 272.96875 334.335938 L 274.46875 334.335938 L 274.46875 335.085938 Z M 272.96875 333.589844 L 272.96875 332.839844 L 274.46875 332.839844 L 274.46875 333.589844 Z M 272.96875 332.089844 L 272.96875 331.34375 L 274.46875 331.34375 L 274.46875 332.089844 Z M 272.96875 330.59375 L 272.96875 329.84375 L 274.46875 329.84375 L 274.46875 330.59375 Z M 272.96875 329.097656 L 272.96875 328.347656 L 274.46875 328.347656 L 274.46875 329.097656 Z M 272.96875 327.597656 L 272.96875 326.851562 L 274.46875 326.851562 L 274.46875 327.597656 Z M 272.96875 326.101562 L 272.96875 325.351562 L 274.46875 325.351562 L 274.46875 326.101562 Z M 272.96875 324.605469 L 272.96875 323.855469 L 274.46875 323.855469 L 274.46875 324.605469 Z M 272.96875 323.109375 L 272.96875 322.359375 L 274.46875 322.359375 L 274.46875 323.109375 Z M 272.96875 321.609375 L 272.96875 320.863281 L 274.46875 320.863281 L 274.46875 321.609375 Z M 272.96875 320.113281 L 272.96875 319.363281 L 274.46875 319.363281 L 274.46875 320.113281 Z M 272.96875 318.617188 L 272.96875 317.867188 L 274.46875 317.867188 L 274.46875 318.617188 Z M 272.96875 317.117188 L 272.96875 316.371094 L 274.46875 316.371094 L 274.46875 317.117188 Z M 272.96875 315.621094 L 272.96875 314.871094 L 274.46875 314.871094 L 274.46875 315.621094 Z M 272.96875 314.125 L 272.96875 313.375 L 274.46875 313.375 L 274.46875 314.125 Z M 272.96875 312.625 L 272.96875 311.878906 L 274.46875 311.878906 L 274.46875 312.625 Z M 272.96875 311.128906 L 272.96875 310.378906 L 274.46875 310.378906 L 274.46875 311.128906 Z M 272.96875 309.632812 L 272.96875 308.882812 L 274.46875 308.882812 L 274.46875 309.632812 Z M 272.96875 308.132812 L 272.96875 307.386719 L 274.46875 307.386719 L 274.46875 308.132812 Z M 272.96875 306.636719 L 272.96875 305.886719 L 274.46875 305.886719 L 274.46875 306.636719 Z M 272.96875 305.140625 L 272.96875 304.390625 L 274.46875 304.390625 L 274.46875 305.140625 Z M 272.96875 303.640625 L 272.96875 302.894531 L 274.46875 302.894531 L 274.46875 303.640625 Z M 272.96875 302.144531 L 272.96875 301.398438 L 274.46875 301.398438 L 274.46875 302.144531 Z M 272.96875 300.648438 L 272.96875 299.898438 L 274.46875 299.898438 L 274.46875 300.648438 Z M 272.96875 299.152344 L 272.96875 298.402344 L 274.46875 298.402344 L 274.46875 299.152344 Z M 272.96875 297.652344 L 272.96875 296.90625 L 274.46875 296.90625 L 274.46875 297.652344 Z M 272.96875 296.15625 L 272.96875 295.40625 L 274.46875 295.40625 L 274.46875 296.15625 Z M 272.96875 294.660156 L 272.96875 293.910156 L 274.46875 293.910156 L 274.46875 294.660156 Z M 272.96875 293.160156 L 272.96875 292.414062 L 274.46875 292.414062 L 274.46875 293.160156 Z M 272.96875 291.664062 L 272.96875 290.914062 L 274.46875 290.914062 L 274.46875 291.664062 Z M 272.96875 290.167969 L 272.96875 289.417969 L 274.46875 289.417969 L 274.46875 290.167969 Z M 272.96875 288.667969 L 272.96875 287.921875 L 274.46875 287.921875 L 274.46875 288.667969 Z M 272.96875 287.171875 L 272.96875 286.421875 L 274.46875 286.421875 L 274.46875 287.171875 Z M 272.96875 285.675781 L 272.96875 284.925781 L 274.46875 284.925781 L 274.46875 285.675781 Z M 272.96875 284.175781 L 272.96875 283.429688 L 274.46875 283.429688 L 274.46875 284.175781 Z M 272.96875 282.679688 L 272.96875 281.933594 L 274.46875 281.933594 L 274.46875 282.679688 Z M 272.96875 281.183594 L 272.96875 280.433594 L 274.46875 280.433594 L 274.46875 281.183594 Z M 272.96875 279.6875 L 272.96875 278.9375 L 274.46875 278.9375 L 274.46875 279.6875 Z M 272.96875 278.1875 L 272.96875 277.441406 L 274.46875 277.441406 L 274.46875 278.1875 Z M 272.96875 276.691406 L 272.96875 275.941406 L 274.46875 275.941406 L 274.46875 276.691406 Z M 272.96875 275.195312 L 272.96875 274.445312 L 274.46875 274.445312 L 274.46875 275.195312 Z M 272.96875 273.695312 L 272.96875 272.949219 L 274.46875 272.949219 L 274.46875 273.695312 Z M 272.96875 272.199219 L 272.96875 271.449219 L 274.46875 271.449219 L 274.46875 272.199219 Z M 272.96875 270.703125 L 272.96875 269.953125 L 274.46875 269.953125 L 274.46875 270.703125 Z M 272.96875 269.203125 L 272.96875 268.457031 L 274.46875 268.457031 L 274.46875 269.203125 Z M 272.96875 267.707031 L 272.96875 266.957031 L 274.46875 266.957031 L 274.46875 267.707031 Z M 272.96875 266.210938 L 272.96875 265.460938 L 274.46875 265.460938 L 274.46875 266.210938 Z M 272.96875 264.710938 L 272.96875 263.964844 L 274.46875 263.964844 L 274.46875 264.710938 Z M 272.96875 263.214844 L 272.96875 262.464844 L 274.46875 262.464844 L 274.46875 263.214844 Z M 272.96875 261.71875 L 272.96875 260.96875 L 274.46875 260.96875 L 274.46875 261.71875 Z M 272.96875 260.222656 L 272.96875 259.472656 L 274.46875 259.472656 L 274.46875 260.222656 Z M 272.96875 258.722656 L 272.96875 257.976562 L 274.46875 257.976562 L 274.46875 258.722656 Z M 272.96875 257.226562 L 272.96875 256.476562 L 274.46875 256.476562 L 274.46875 257.226562 Z M 272.96875 255.730469 L 272.96875 254.980469 L 274.46875 254.980469 L 274.46875 255.730469 Z M 272.96875 254.230469 L 272.96875 253.484375 L 274.46875 253.484375 L 274.46875 254.230469 Z M 272.96875 252.734375 L 272.96875 251.984375 L 274.46875 251.984375 L 274.46875 252.734375 Z M 272.96875 251.238281 L 272.96875 250.488281 L 274.46875 250.488281 L 274.46875 251.238281 Z M 272.96875 249.738281 L 272.96875 248.992188 L 274.46875 248.992188 L 274.46875 249.738281 Z M 272.96875 248.242188 L 272.96875 247.492188 L 274.46875 247.492188 L 274.46875 248.242188 Z M 272.96875 246.746094 L 272.96875 245.996094 L 274.46875 245.996094 L 274.46875 246.746094 Z M 272.96875 245.246094 L 272.96875 244.5 L 274.46875 244.5 L 274.46875 245.246094 Z M 272.96875 243.75 L 272.96875 243 L 274.46875 243 L 274.46875 243.75 Z M 272.96875 242.253906 L 272.96875 241.503906 L 274.46875 241.503906 L 274.46875 242.253906 Z M 272.96875 240.753906 L 272.96875 240.007812 L 274.46875 240.007812 L 274.46875 240.753906 Z M 272.96875 239.257812 L 272.96875 238.511719 L 274.46875 238.511719 L 274.46875 239.257812 Z M 272.96875 237.761719 L 272.96875 237.011719 L 274.46875 237.011719 L 274.46875 237.761719 Z M 272.96875 236.265625 L 272.96875 235.515625 L 274.46875 235.515625 L 274.46875 236.265625 Z M 272.96875 234.765625 L 272.96875 234.019531 L 274.46875 234.019531 L 274.46875 234.765625 Z M 272.96875 233.269531 L 272.96875 232.519531 L 274.46875 232.519531 L 274.46875 233.269531 Z M 272.96875 231.773438 L 272.96875 231.023438 L 274.46875 231.023438 L 274.46875 231.773438 Z M 272.96875 230.273438 L 272.96875 229.527344 L 274.46875 229.527344 L 274.46875 230.273438 Z M 272.96875 228.777344 L 272.96875 228.027344 L 274.46875 228.027344 L 274.46875 228.777344 Z M 272.96875 227.28125 L 272.96875 226.53125 L 274.46875 226.53125 L 274.46875 227.28125 Z M 272.96875 225.78125 L 272.96875 225.035156 L 274.46875 225.035156 L 274.46875 225.78125 Z M 272.96875 224.285156 L 272.96875 223.535156 L 274.46875 223.535156 L 274.46875 224.285156 Z M 272.96875 222.789062 L 272.96875 222.039062 L 274.46875 222.039062 L 274.46875 222.789062 Z M 272.96875 221.289062 L 272.96875 220.542969 L 274.46875 220.542969 L 274.46875 221.289062 Z M 272.96875 219.792969 L 272.96875 219.046875 L 274.46875 219.046875 L 274.46875 219.792969 Z M 272.96875 218.296875 L 272.96875 217.546875 L 274.46875 217.546875 L 274.46875 218.296875 Z M 272.96875 216.800781 L 272.96875 216.050781 L 274.46875 216.050781 L 274.46875 216.800781 Z M 272.96875 215.300781 L 272.96875 214.554688 L 274.46875 214.554688 L 274.46875 215.300781 Z M 272.96875 213.804688 L 272.96875 213.054688 L 274.46875 213.054688 L 274.46875 213.804688 Z M 272.96875 212.308594 L 272.96875 211.558594 L 274.46875 211.558594 L 274.46875 212.308594 Z M 272.96875 210.808594 L 272.96875 210.0625 L 274.46875 210.0625 L 274.46875 210.808594 Z M 272.96875 209.3125 L 272.96875 208.5625 L 274.46875 208.5625 L 274.46875 209.3125 Z M 272.96875 207.816406 L 272.96875 207.066406 L 274.46875 207.066406 L 274.46875 207.816406 Z M 272.96875 206.316406 L 272.96875 205.570312 L 274.46875 205.570312 L 274.46875 206.316406 Z M 272.96875 204.820312 L 272.96875 204.070312 L 274.46875 204.070312 L 274.46875 204.820312 Z M 272.96875 203.324219 L 272.96875 202.574219 L 274.46875 202.574219 L 274.46875 203.324219 Z M 272.96875 201.824219 L 272.96875 201.078125 L 274.46875 201.078125 L 274.46875 201.824219 Z M 272.96875 200.328125 L 272.96875 199.578125 L 274.46875 199.578125 L 274.46875 200.328125 Z M 272.96875 198.832031 L 272.96875 198.082031 L 274.46875 198.082031 L 274.46875 198.832031 Z M 272.96875 197.335938 L 272.96875 196.585938 L 274.46875 196.585938 L 274.46875 197.335938 Z M 272.96875 195.835938 L 272.96875 195.089844 L 274.46875 195.089844 L 274.46875 195.835938 Z M 272.96875 194.339844 L 272.96875 193.589844 L 274.46875 193.589844 L 274.46875 194.339844 Z M 272.96875 192.84375 L 272.96875 192.09375 L 274.46875 192.09375 L 274.46875 192.84375 Z M 272.96875 191.34375 L 272.96875 190.597656 L 274.46875 190.597656 L 274.46875 191.34375 Z M 272.96875 189.847656 L 272.96875 189.097656 L 274.46875 189.097656 L 274.46875 189.847656 Z M 272.96875 188.351562 L 272.96875 187.601562 L 274.46875 187.601562 L 274.46875 188.351562 Z M 272.96875 186.851562 L 272.96875 186.105469 L 274.46875 186.105469 L 274.46875 186.851562 Z M 272.96875 185.355469 L 272.96875 184.605469 L 274.46875 184.605469 L 274.46875 185.355469 Z M 272.96875 183.859375 L 272.96875 183.109375 L 274.46875 183.109375 L 274.46875 183.859375 Z M 272.96875 182.359375 L 272.96875 181.613281 L 274.46875 181.613281 L 274.46875 182.359375 Z M 272.96875 180.863281 L 272.96875 180.113281 L 274.46875 180.113281 L 274.46875 180.863281 Z M 272.96875 179.367188 L 272.96875 178.617188 L 274.46875 178.617188 L 274.46875 179.367188 Z M 272.96875 177.871094 L 272.96875 177.121094 L 274.46875 177.121094 L 274.46875 177.871094 Z M 272.96875 176.371094 L 272.96875 175.625 L 274.46875 175.625 L 274.46875 176.371094 Z M 272.96875 174.875 L 272.96875 174.125 L 274.46875 174.125 L 274.46875 174.875 Z M 272.96875 173.378906 L 272.96875 172.628906 L 274.46875 172.628906 L 274.46875 173.378906 Z M 272.96875 171.878906 L 272.96875 171.132812 L 274.46875 171.132812 L 274.46875 171.878906 Z M 272.96875 170.382812 L 272.96875 169.632812 L 274.46875 169.632812 L 274.46875 170.382812 Z M 272.96875 168.886719 L 272.96875 168.136719 L 274.46875 168.136719 L 274.46875 168.886719 Z M 272.96875 167.386719 L 272.96875 166.640625 L 274.46875 166.640625 L 274.46875 167.386719 Z M 272.96875 165.890625 L 272.96875 165.140625 L 274.46875 165.140625 L 274.46875 165.890625 Z M 272.96875 164.394531 L 272.96875 163.644531 L 274.46875 163.644531 L 274.46875 164.394531 Z M 272.96875 162.894531 L 272.96875 162.148438 L 274.46875 162.148438 L 274.46875 162.894531 Z M 272.96875 161.398438 L 272.96875 160.648438 L 274.46875 160.648438 L 274.46875 161.398438 Z M 272.96875 159.902344 L 272.96875 159.152344 L 274.46875 159.152344 L 274.46875 159.902344 Z M 272.96875 158.402344 L 272.96875 157.65625 L 274.46875 157.65625 L 274.46875 158.402344 Z M 272.96875 156.90625 L 272.96875 156.160156 L 274.46875 156.160156 L 274.46875 156.90625 Z M 272.96875 155.410156 L 272.96875 154.660156 L 274.46875 154.660156 L 274.46875 155.410156 Z M 272.96875 153.914062 L 272.96875 153.164062 L 274.46875 153.164062 L 274.46875 153.914062 Z M 272.96875 152.414062 L 272.96875 151.667969 L 274.46875 151.667969 L 274.46875 152.414062 Z M 272.96875 150.917969 L 272.96875 150.167969 L 274.46875 150.167969 L 274.46875 150.917969 Z M 272.96875 149.421875 L 272.96875 148.671875 L 274.46875 148.671875 L 274.46875 149.421875 Z M 272.96875 147.921875 L 272.96875 147.175781 L 274.46875 147.175781 L 274.46875 147.921875 Z M 272.96875 146.425781 L 272.96875 145.675781 L 274.46875 145.675781 L 274.46875 146.425781 Z M 272.96875 144.929688 L 272.96875 144.179688 L 274.46875 144.179688 L 274.46875 144.929688 Z M 272.96875 143.429688 L 272.96875 142.683594 L 274.46875 142.683594 L 274.46875 143.429688 Z M 272.96875 141.933594 L 272.96875 141.183594 L 274.46875 141.183594 L 274.46875 141.933594 Z M 272.96875 140.4375 L 272.96875 139.6875 L 274.46875 139.6875 L 274.46875 140.4375 Z M 272.96875 138.9375 L 272.96875 138.191406 L 274.46875 138.191406 L 274.46875 138.9375 Z M 272.96875 137.441406 L 272.96875 136.691406 L 274.46875 136.691406 L 274.46875 137.441406 Z M 272.96875 135.945312 L 272.96875 135.195312 L 274.46875 135.195312 L 274.46875 135.945312 Z M 272.96875 134.449219 L 272.96875 133.699219 L 274.46875 133.699219 L 274.46875 134.449219 Z M 272.96875 132.949219 L 272.96875 132.203125 L 274.46875 132.203125 L 274.46875 132.949219 Z M 272.96875 131.453125 L 272.96875 130.703125 L 274.46875 130.703125 L 274.46875 131.453125 Z M 272.96875 129.957031 L 272.96875 129.207031 L 274.46875 129.207031 L 274.46875 129.957031 Z M 272.96875 128.457031 L 272.96875 127.710938 L 274.46875 127.710938 L 274.46875 128.457031 Z M 272.96875 126.960938 L 272.96875 126.210938 L 274.46875 126.210938 L 274.46875 126.960938 Z M 272.96875 125.464844 L 272.96875 124.714844 L 274.46875 124.714844 L 274.46875 125.464844 Z M 272.96875 123.964844 L 272.96875 123.21875 L 274.46875 123.21875 L 274.46875 123.964844 Z M 272.96875 122.46875 L 272.96875 121.71875 L 274.46875 121.71875 L 274.46875 122.46875 Z M 272.96875 120.972656 L 272.96875 120.222656 L 274.46875 120.222656 L 274.46875 120.972656 Z M 272.96875 119.472656 L 272.96875 118.726562 L 274.46875 118.726562 L 274.46875 119.472656 Z M 272.96875 117.976562 L 272.96875 117.226562 L 274.46875 117.226562 L 274.46875 117.976562 Z M 272.96875 116.480469 L 272.96875 115.730469 L 274.46875 115.730469 L 274.46875 116.480469 Z M 272.96875 114.984375 L 272.96875 114.234375 L 274.46875 114.234375 L 274.46875 114.984375 Z M 272.96875 113.484375 L 272.96875 112.738281 L 274.46875 112.738281 L 274.46875 113.484375 Z M 272.96875 111.988281 L 272.96875 111.238281 L 274.46875 111.238281 L 274.46875 111.988281 Z M 272.96875 110.492188 L 272.96875 109.742188 L 274.46875 109.742188 L 274.46875 110.492188 Z M 272.96875 108.992188 L 272.96875 108.246094 L 274.46875 108.246094 L 274.46875 108.992188 Z M 272.96875 107.496094 L 272.96875 106.746094 L 274.46875 106.746094 L 274.46875 107.496094 Z M 272.96875 106 L 272.96875 105.25 L 274.46875 105.25 L 274.46875 106 Z M 272.96875 104.5 L 272.96875 103.753906 L 274.46875 103.753906 L 274.46875 104.5 Z M 272.96875 103.003906 L 272.96875 102.253906 L 274.46875 102.253906 L 274.46875 103.003906 Z M 272.96875 101.507812 L 272.96875 100.757812 L 274.46875 100.757812 L 274.46875 101.507812 Z M 272.96875 100.007812 L 272.96875 99.261719 L 274.46875 99.261719 L 274.46875 100.007812 Z M 272.96875 98.511719 L 272.96875 97.761719 L 274.46875 97.761719 L 274.46875 98.511719 Z M 272.96875 97.015625 L 272.96875 96.265625 L 274.46875 96.265625 L 274.46875 97.015625 Z M 272.96875 95.515625 L 272.96875 94.769531 L 274.46875 94.769531 L 274.46875 95.515625 Z M 272.96875 94.019531 L 272.96875 93.273438 L 274.46875 93.273438 L 274.46875 94.019531 Z M 272.96875 92.523438 L 272.96875 91.773438 L 274.46875 91.773438 L 274.46875 92.523438 Z M 272.96875 91.027344 L 272.96875 90.277344 L 274.46875 90.277344 L 274.46875 91.027344 Z M 272.96875 89.527344 L 272.96875 88.78125 L 274.46875 88.78125 L 274.46875 89.527344 Z M 272.96875 88.03125 L 272.96875 87.28125 L 274.46875 87.28125 L 274.46875 88.03125 Z M 272.96875 86.535156 L 272.96875 85.785156 L 274.46875 85.785156 L 274.46875 86.535156 Z M 272.96875 85.035156 L 272.96875 84.289062 L 274.46875 84.289062 L 274.46875 85.035156 Z M 272.96875 83.539062 L 272.96875 82.789062 L 274.46875 82.789062 L 274.46875 83.539062 Z M 272.96875 82.042969 L 272.96875 81.292969 L 274.46875 81.292969 L 274.46875 82.042969 Z M 272.96875 80.542969 L 272.96875 79.796875 L 274.46875 79.796875 L 274.46875 80.542969 Z M 272.96875 79.046875 L 272.96875 78.296875 L 274.46875 78.296875 L 274.46875 79.046875 Z M 272.96875 77.550781 L 272.96875 76.800781 L 274.46875 76.800781 L 274.46875 77.550781 Z M 272.96875 76.050781 L 272.96875 75.304688 L 274.46875 75.304688 L 274.46875 76.050781 Z M 272.96875 74.554688 L 272.96875 73.808594 L 274.46875 73.808594 L 274.46875 74.554688 Z M 272.96875 73.058594 L 272.96875 72.308594 L 274.46875 72.308594 L 274.46875 73.058594 Z M 272.96875 71.5625 L 272.96875 70.8125 L 274.46875 70.8125 L 274.46875 71.5625 Z M 272.96875 70.0625 L 272.96875 69.316406 L 274.46875 69.316406 L 274.46875 70.0625 Z M 272.96875 68.566406 L 272.96875 67.816406 L 274.46875 67.816406 L 274.46875 68.566406 Z M 272.96875 67.070312 L 272.96875 66.320312 L 274.46875 66.320312 L 274.46875 67.070312 Z M 272.96875 65.570312 L 272.96875 64.824219 L 274.46875 64.824219 L 274.46875 65.570312 Z M 272.96875 64.074219 L 272.96875 63.324219 L 274.46875 63.324219 L 274.46875 64.074219 Z M 272.96875 62.578125 L 272.96875 61.828125 L 274.46875 61.828125 L 274.46875 62.578125 Z M 272.96875 61.078125 L 272.96875 60.332031 L 274.46875 60.332031 L 274.46875 61.078125 Z M 272.96875 59.582031 L 272.96875 58.832031 L 274.46875 58.832031 L 274.46875 59.582031 Z M 272.96875 58.085938 L 272.96875 57.335938 L 274.46875 57.335938 L 274.46875 58.085938 Z M 272.96875 56.585938 L 272.96875 55.839844 L 274.46875 55.839844 L 274.46875 56.585938 Z M 272.96875 55.089844 L 272.96875 54.339844 L 274.46875 54.339844 L 274.46875 55.089844 Z M 272.96875 53.59375 L 272.96875 52.84375 L 274.46875 52.84375 L 274.46875 53.59375 Z M 272.96875 52.097656 L 272.96875 51.347656 L 274.46875 51.347656 L 274.46875 52.097656 Z M 272.96875 50.597656 L 272.96875 49.851562 L 274.46875 49.851562 L 274.46875 50.597656 Z M 272.96875 49.101562 L 272.96875 48.351562 L 274.46875 48.351562 L 274.46875 49.101562 Z M 272.96875 47.605469 L 272.96875 46.855469 L 274.46875 46.855469 L 274.46875 47.605469 Z M 272.96875 46.105469 L 272.96875 45.359375 L 274.46875 45.359375 L 274.46875 46.105469 Z M 272.96875 44.609375 L 272.96875 43.859375 L 274.46875 43.859375 L 274.46875 44.609375 Z M 272.96875 43.113281 L 272.96875 42.363281 L 274.46875 42.363281 L 274.46875 43.113281 Z M 272.96875 41.613281 L 272.96875 40.867188 L 274.46875 40.867188 L 274.46875 41.613281 Z M 272.96875 40.117188 L 272.96875 39.367188 L 274.46875 39.367188 L 274.46875 40.117188 Z M 272.96875 38.621094 L 272.96875 37.871094 L 274.46875 37.871094 L 274.46875 38.621094 Z M 272.96875 37.121094 L 272.96875 36.375 L 274.46875 36.375 L 274.46875 37.121094 Z M 272.96875 35.625 L 272.96875 34.875 L 274.46875 34.875 L 274.46875 35.625 Z M 272.96875 34.128906 L 272.96875 33.378906 L 274.46875 33.378906 L 274.46875 34.128906 Z M 272.96875 32.628906 L 272.96875 31.882812 L 274.46875 31.882812 L 274.46875 32.628906 Z M 272.96875 31.132812 L 272.96875 30.386719 L 274.46875 30.386719 L 274.46875 31.132812 Z M 272.96875 29.636719 L 272.96875 28.886719 L 274.46875 28.886719 L 274.46875 29.636719 Z M 272.96875 28.140625 L 272.96875 27.390625 L 274.46875 27.390625 L 274.46875 28.140625 Z M 272.96875 26.640625 L 272.96875 25.894531 L 274.46875 25.894531 L 274.46875 26.640625 Z M 272.96875 25.144531 L 272.96875 24.394531 L 274.46875 24.394531 L 274.46875 25.144531 Z M 272.96875 23.648438 L 272.96875 22.898438 L 274.46875 22.898438 L 274.46875 23.648438 Z M 272.96875 22.148438 L 272.96875 21.402344 L 274.46875 21.402344 L 274.46875 22.148438 Z M 272.96875 20.652344 L 272.96875 19.902344 L 274.46875 19.902344 L 274.46875 20.652344 Z M 272.96875 19.15625 L 272.96875 18.40625 L 274.46875 18.40625 L 274.46875 19.15625 Z M 272.96875 17.65625 L 272.96875 16.910156 L 274.46875 16.910156 L 274.46875 17.65625 Z M 272.96875 16.160156 L 272.96875 15.410156 L 274.46875 15.410156 L 274.46875 16.160156 Z M 272.96875 14.664062 L 272.96875 13.914062 L 274.46875 13.914062 L 274.46875 14.664062 Z M 273.0625 14.484375 C 272.789062 14.46875 272.519531 14.441406 272.246094 14.402344 L 272.449219 12.917969 C 272.683594 12.953125 272.917969 12.976562 273.15625 12.988281 Z M 271.449219 14.261719 C 271.1875 14.207031 270.925781 14.140625 270.667969 14.0625 L 271.09375 12.628906 C 271.316406 12.691406 271.539062 12.75 271.765625 12.796875 Z M 269.914062 13.808594 C 269.664062 13.710938 269.417969 13.609375 269.175781 13.492188 L 269.808594 12.136719 C 270.019531 12.234375 270.230469 12.328125 270.445312 12.40625 Z M 268.453125 13.121094 C 268.214844 12.988281 267.988281 12.847656 267.761719 12.695312 L 268.597656 11.453125 C 268.789062 11.582031 268.988281 11.703125 269.1875 11.816406 Z M 267.109375 12.222656 C 266.898438 12.054688 266.691406 11.878906 266.492188 11.699219 L 267.503906 10.59375 C 267.675781 10.75 267.851562 10.898438 268.035156 11.042969 Z M 265.921875 11.132812 C 265.734375 10.9375 265.558594 10.734375 265.390625 10.527344 L 266.554688 9.585938 C 266.699219 9.765625 266.851562 9.9375 267.011719 10.109375 Z M 264.90625 9.878906 C 264.753906 9.660156 264.609375 9.429688 264.472656 9.199219 L 265.765625 8.441406 C 265.882812 8.640625 266.007812 8.839844 266.136719 9.027344 Z M 264.089844 8.480469 C 263.96875 8.238281 263.863281 7.992188 263.761719 7.738281 L 265.15625 7.1875 C 265.242188 7.40625 265.332031 7.617188 265.433594 7.824219 Z M 263.5 6.992188 C 263.417969 6.734375 263.347656 6.476562 263.289062 6.21875 L 264.75 5.882812 C 264.800781 6.105469 264.859375 6.328125 264.929688 6.546875 Z M 263.136719 5.421875 C 263.097656 5.152344 263.066406 4.878906 263.046875 4.605469 L 264.539062 4.496094 C 264.554688 4.730469 264.582031 4.964844 264.617188 5.199219 Z M 263.765625 4.550781 L 263.015625 4.550781 L 263.015625 3.050781 L 263.765625 3.050781 Z M 263.765625 4.550781 " fill-opacity="1" fill-rule="nonzero"/></g></g></svg>