<svg xmlns="http://www.w3.org/2000/svg" xmlns:xlink="http://www.w3.org/1999/xlink" width="1698" zoomAndPan="magnify" viewBox="0 0 1273.5 579.750005" height="773" preserveAspectRatio="xMidYMid meet" version="1.0"><defs><clipPath id="ec7ec6bc9f"><path d="M 632.765625 0 L 1272.976562 0 L 1272.976562 578.75 L 632.765625 578.75 Z M 632.765625 0 " clip-rule="nonzero"/></clipPath><clipPath id="91f7aeb5a9"><path d="M 0.765625 0 L 640.964844 0 L 640.964844 578.75 L 0.765625 578.75 Z M 0.765625 0 " clip-rule="nonzero"/></clipPath><clipPath id="00f98517b7"><path d="M 0.765625 13 L 627 13 L 627 566 L 0.765625 566 Z M 0.765625 13 " clip-rule="nonzero"/></clipPath><clipPath id="56ea3c041e"><path d="M 0.765625 38 L 602 38 L 602 541 L 0.765625 541 Z M 0.765625 38 " clip-rule="nonzero"/></clipPath><clipPath id="6a25536783"><path d="M 0.765625 47 L 530 47 L 530 50 L 0.765625 50 Z M 0.765625 47 " clip-rule="nonzero"/></clipPath><clipPath id="477321e48f"><path d="M 0.765625 528 L 530 528 L 530 532 L 0.765625 532 Z M 0.765625 528 " clip-rule="nonzero"/></clipPath><clipPath id="62340b5508"><rect x="0" width="641" y="0" height="579"/></clipPath><clipPath id="bec267ba29"><path d="M 0.0234375 0 L 640.25 0 L 640.25 578.75 L 0.0234375 578.75 Z M 0.0234375 0 " clip-rule="nonzero"/></clipPath><clipPath id="2b40a3d988"><path d="M 14 13 L 640.25 13 L 640.25 566 L 14 566 Z M 14 13 " clip-rule="nonzero"/></clipPath><clipPath id="2e1f8ad865"><path d="M 39 38 L 640.25 38 L 640.25 541 L 39 541 Z M 39 38 " clip-rule="nonzero"/></clipPath><clipPath id="cd1fe2b71a"><path d="M 111 47 L 640.25 47 L 640.25 50 L 111 50 Z M 111 47 " clip-rule="nonzero"/></clipPath><clipPath id="355b1c57fe"><path d="M 111 528 L 640.25 528 L 640.25 532 L 111 532 Z M 111 528 " clip-rule="nonzero"/></clipPath></defs><g clip-path="url(#ec7ec6bc9f)"><g transform="matrix(1, 0, 0, 1, 632, -0.000000000000000157)"><g clip-path="url(#62340b5508)"><g clip-path="url(#91f7aeb5a9)"><path fill="#ffffff" d="M -335.195312 0 L -335.195312 578.726562 L 640.296875 578.726562 L 640.296875 0 Z M -335.195312 0 " fill-opacity="1" fill-rule="nonzero"/></g><g clip-path="url(#00f98517b7)"><path fill="#113c25" d="M -321.773438 565.332031 L 626.902344 565.332031 L 626.902344 13.398438 L -321.773438 13.398438 Z M 624.199219 562.628906 L -319.070312 562.628906 L -319.070312 16.097656 L 624.199219 16.097656 Z M 624.199219 562.628906 " fill-opacity="1" fill-rule="nonzero"/></g><g clip-path="url(#56ea3c041e)"><path fill="#113c25" d="M -237.449219 540.023438 L 542.550781 540.023438 L 542.550781 538.671875 C 542.550781 506.855469 568.425781 480.980469 600.242188 480.980469 L 601.59375 480.980469 L 601.59375 97.746094 L 600.242188 97.746094 C 568.425781 97.746094 542.550781 71.871094 542.550781 40.054688 L 542.550781 38.703125 L -237.449219 38.703125 L -237.449219 40.054688 C -237.449219 71.871094 -263.324219 97.746094 -295.140625 97.746094 L -296.492188 97.746094 L -296.492188 481.007812 L -295.140625 481.007812 C -263.324219 481.007812 -237.449219 506.882812 -237.449219 538.699219 L -237.449219 540.050781 Z M 539.878906 537.324219 L -234.75 537.324219 C -235.453125 505.101562 -261.542969 479.007812 -293.765625 478.308594 L -293.765625 100.421875 C -261.542969 99.71875 -235.453125 73.628906 -234.75 41.40625 L 539.878906 41.40625 C 540.578125 73.628906 566.671875 99.71875 598.890625 100.421875 L 598.890625 478.308594 C 566.671875 479.007812 540.578125 505.101562 539.878906 537.324219 Z M 539.878906 537.324219 " fill-opacity="1" fill-rule="nonzero"/></g><path fill="#113c25" d="M 531.9375 531.597656 L 534.476562 531.597656 L 534.800781 529.113281 L 532.125 528.707031 L 532.125 528.894531 L 531.9375 528.894531 Z M 531.9375 531.597656 " fill-opacity="1" fill-rule="nonzero"/><path fill="#113c25" d="M 535.257812 526.410156 C 535.421875 525.519531 535.609375 524.628906 535.824219 523.738281 L 533.207031 523.117188 C 532.988281 524.035156 532.800781 524.953125 532.613281 525.898438 L 535.257812 526.382812 Z M 536.5 521.089844 C 536.742188 520.199219 537.015625 519.335938 537.285156 518.46875 L 534.71875 517.632812 C 534.421875 518.523438 534.152344 519.441406 533.90625 520.359375 Z M 538.175781 515.90625 C 538.5 515.039062 538.824219 514.203125 539.175781 513.367188 L 536.691406 512.339844 C 536.339844 513.203125 535.988281 514.09375 535.664062 514.984375 L 538.203125 515.929688 Z M 540.253906 510.855469 C 540.632812 510.015625 541.039062 509.207031 541.46875 508.394531 L 539.066406 507.152344 C 538.632812 507.992188 538.203125 508.855469 537.824219 509.691406 L 540.28125 510.828125 Z M 542.765625 505.992188 C 543.226562 505.207031 543.683594 504.425781 544.171875 503.640625 L 541.875 502.210938 C 541.390625 503.019531 540.902344 503.832031 540.417969 504.640625 Z M 545.683594 501.375 C 546.195312 500.617188 546.738281 499.886719 547.277344 499.160156 L 545.117188 497.539062 C 544.550781 498.292969 543.984375 499.078125 543.46875 499.859375 L 545.683594 501.402344 Z M 548.953125 496.996094 C 549.519531 496.296875 550.113281 495.59375 550.707031 494.917969 L 548.683594 493.136719 C 548.0625 493.835938 547.441406 494.566406 546.84375 495.296875 Z M 552.570312 492.917969 C 553.191406 492.269531 553.839844 491.621094 554.488281 491 L 552.625 489.058594 C 551.949219 489.707031 551.273438 490.378906 550.625 491.054688 Z M 556.515625 489.136719 C 557.191406 488.542969 557.890625 487.949219 558.59375 487.382812 L 556.894531 485.277344 C 556.164062 485.871094 555.433594 486.492188 554.730469 487.113281 Z M 560.726562 485.707031 C 561.457031 485.167969 562.1875 484.628906 562.941406 484.113281 L 561.402344 481.898438 C 560.621094 482.441406 559.863281 482.980469 559.109375 483.546875 Z M 565.238281 482.601562 C 566.023438 482.117188 566.777344 481.65625 567.589844 481.199219 L 566.238281 478.847656 C 565.429688 479.308594 564.617188 479.792969 563.808594 480.304688 Z M 569.964844 479.902344 C 570.777344 479.496094 571.585938 479.089844 572.421875 478.6875 L 571.289062 476.226562 C 570.425781 476.632812 569.585938 477.039062 568.75 477.46875 L 569.992188 479.875 Z M 574.90625 477.605469 C 575.746094 477.253906 576.582031 476.929688 577.445312 476.605469 L 576.5 474.066406 C 575.609375 474.390625 574.746094 474.742188 573.855469 475.09375 L 574.882812 477.578125 Z M 580.011719 475.714844 C 580.878906 475.445312 581.742188 475.175781 582.605469 474.929688 L 581.875 472.339844 C 580.957031 472.582031 580.066406 472.851562 579.148438 473.148438 L 579.984375 475.714844 Z M 585.28125 474.28125 C 586.171875 474.066406 587.0625 473.878906 587.953125 473.714844 L 587.441406 471.070312 C 586.496094 471.230469 585.578125 471.445312 584.660156 471.664062 Z M 585.28125 474.28125 " fill-opacity="1" fill-rule="nonzero"/><path fill="#113c25" d="M 590.65625 473.257812 C 591.085938 473.203125 591.519531 473.121094 591.976562 473.066406 L 593.167969 472.933594 L 593.167969 470.394531 L 590.464844 470.394531 L 590.464844 470.554688 C 590.464844 470.554688 590.359375 470.554688 590.277344 470.554688 L 590.65625 473.230469 Z M 590.65625 473.257812 " fill-opacity="1" fill-rule="nonzero"/><path fill="#113c25" d="M 590.464844 467.691406 L 593.167969 467.691406 L 593.167969 465.019531 L 590.464844 465.019531 Z M 590.464844 462.34375 L 593.167969 462.34375 L 593.167969 459.671875 L 590.464844 459.671875 Z M 590.464844 456.96875 L 593.167969 456.96875 L 593.167969 454.296875 L 590.464844 454.296875 Z M 590.464844 451.621094 L 593.167969 451.621094 L 593.167969 448.949219 L 590.464844 448.949219 Z M 590.464844 446.246094 L 593.167969 446.246094 L 593.167969 443.574219 L 590.464844 443.574219 Z M 590.464844 440.898438 L 593.167969 440.898438 L 593.167969 438.226562 L 590.464844 438.226562 Z M 590.464844 435.523438 L 593.167969 435.523438 L 593.167969 432.851562 L 590.464844 432.851562 Z M 590.464844 430.148438 L 593.167969 430.148438 L 593.167969 427.476562 L 590.464844 427.476562 Z M 590.464844 424.800781 L 593.167969 424.800781 L 593.167969 422.128906 L 590.464844 422.128906 Z M 590.464844 419.425781 L 593.167969 419.425781 L 593.167969 416.753906 L 590.464844 416.753906 Z M 590.464844 414.078125 L 593.167969 414.078125 L 593.167969 411.40625 L 590.464844 411.40625 Z M 590.464844 408.703125 L 593.167969 408.703125 L 593.167969 406.03125 L 590.464844 406.03125 Z M 590.464844 403.355469 L 593.167969 403.355469 L 593.167969 400.683594 L 590.464844 400.683594 Z M 590.464844 397.980469 L 593.167969 397.980469 L 593.167969 395.308594 L 590.464844 395.308594 Z M 590.464844 392.605469 L 593.167969 392.605469 L 593.167969 389.933594 L 590.464844 389.933594 Z M 590.464844 387.257812 L 593.167969 387.257812 L 593.167969 384.585938 L 590.464844 384.585938 Z M 590.464844 381.882812 L 593.167969 381.882812 L 593.167969 379.210938 L 590.464844 379.210938 Z M 590.464844 376.535156 L 593.167969 376.535156 L 593.167969 373.863281 L 590.464844 373.863281 Z M 590.464844 371.160156 L 593.167969 371.160156 L 593.167969 368.488281 L 590.464844 368.488281 Z M 590.464844 365.785156 L 593.167969 365.785156 L 593.167969 363.113281 L 590.464844 363.113281 Z M 590.464844 360.4375 L 593.167969 360.4375 L 593.167969 357.765625 L 590.464844 357.765625 Z M 590.464844 355.0625 L 593.167969 355.0625 L 593.167969 352.390625 L 590.464844 352.390625 Z M 590.464844 349.714844 L 593.167969 349.714844 L 593.167969 347.042969 L 590.464844 347.042969 Z M 590.464844 344.339844 L 593.167969 344.339844 L 593.167969 341.667969 L 590.464844 341.667969 Z M 590.464844 338.992188 L 593.167969 338.992188 L 593.167969 336.320312 L 590.464844 336.320312 Z M 590.464844 333.617188 L 593.167969 333.617188 L 593.167969 330.945312 L 590.464844 330.945312 Z M 590.464844 328.242188 L 593.167969 328.242188 L 593.167969 325.570312 L 590.464844 325.570312 Z M 590.464844 322.894531 L 593.167969 322.894531 L 593.167969 320.222656 L 590.464844 320.222656 Z M 590.464844 317.519531 L 593.167969 317.519531 L 593.167969 314.847656 L 590.464844 314.847656 Z M 590.464844 312.171875 L 593.167969 312.171875 L 593.167969 309.5 L 590.464844 309.5 Z M 590.464844 306.796875 L 593.167969 306.796875 L 593.167969 304.125 L 590.464844 304.125 Z M 590.464844 301.449219 L 593.167969 301.449219 L 593.167969 298.777344 L 590.464844 298.777344 Z M 590.464844 296.074219 L 593.167969 296.074219 L 593.167969 293.402344 L 590.464844 293.402344 Z M 590.464844 290.699219 L 593.167969 290.699219 L 593.167969 288.027344 L 590.464844 288.027344 Z M 590.464844 285.351562 L 593.167969 285.351562 L 593.167969 282.679688 L 590.464844 282.679688 Z M 590.464844 279.976562 L 593.167969 279.976562 L 593.167969 277.304688 L 590.464844 277.304688 Z M 590.464844 274.628906 L 593.167969 274.628906 L 593.167969 271.957031 L 590.464844 271.957031 Z M 590.464844 269.253906 L 593.167969 269.253906 L 593.167969 266.582031 L 590.464844 266.582031 Z M 590.464844 263.878906 L 593.167969 263.878906 L 593.167969 261.207031 L 590.464844 261.207031 Z M 590.464844 258.53125 L 593.167969 258.53125 L 593.167969 255.859375 L 590.464844 255.859375 Z M 590.464844 253.15625 L 593.167969 253.15625 L 593.167969 250.484375 L 590.464844 250.484375 Z M 590.464844 247.808594 L 593.167969 247.808594 L 593.167969 245.136719 L 590.464844 245.136719 Z M 590.464844 242.433594 L 593.167969 242.433594 L 593.167969 239.761719 L 590.464844 239.761719 Z M 590.464844 237.085938 L 593.167969 237.085938 L 593.167969 234.414062 L 590.464844 234.414062 Z M 590.464844 231.710938 L 593.167969 231.710938 L 593.167969 229.039062 L 590.464844 229.039062 Z M 590.464844 226.335938 L 593.167969 226.335938 L 593.167969 223.664062 L 590.464844 223.664062 Z M 590.464844 220.988281 L 593.167969 220.988281 L 593.167969 218.316406 L 590.464844 218.316406 Z M 590.464844 215.613281 L 593.167969 215.613281 L 593.167969 212.941406 L 590.464844 212.941406 Z M 590.464844 210.265625 L 593.167969 210.265625 L 593.167969 207.59375 L 590.464844 207.59375 Z M 590.464844 204.890625 L 593.167969 204.890625 L 593.167969 202.21875 L 590.464844 202.21875 Z M 590.464844 199.542969 L 593.167969 199.542969 L 593.167969 196.871094 L 590.464844 196.871094 Z M 590.464844 194.167969 L 593.167969 194.167969 L 593.167969 191.496094 L 590.464844 191.496094 Z M 590.464844 188.796875 L 593.167969 188.796875 L 593.167969 186.121094 L 590.464844 186.121094 Z M 590.464844 183.445312 L 593.167969 183.445312 L 593.167969 180.773438 L 590.464844 180.773438 Z M 590.464844 178.070312 L 593.167969 178.070312 L 593.167969 175.398438 L 590.464844 175.398438 Z M 590.464844 172.722656 L 593.167969 172.722656 L 593.167969 170.050781 L 590.464844 170.050781 Z M 590.464844 167.347656 L 593.167969 167.347656 L 593.167969 164.675781 L 590.464844 164.675781 Z M 590.464844 161.976562 L 593.167969 161.976562 L 593.167969 159.300781 L 590.464844 159.300781 Z M 590.464844 156.625 L 593.167969 156.625 L 593.167969 153.953125 L 590.464844 153.953125 Z M 590.464844 151.253906 L 593.167969 151.253906 L 593.167969 148.578125 L 590.464844 148.578125 Z M 590.464844 145.902344 L 593.167969 145.902344 L 593.167969 143.230469 L 590.464844 143.230469 Z M 590.464844 140.53125 L 593.167969 140.53125 L 593.167969 137.855469 L 590.464844 137.855469 Z M 590.464844 135.179688 L 593.167969 135.179688 L 593.167969 132.507812 L 590.464844 132.507812 Z M 590.464844 129.808594 L 593.167969 129.808594 L 593.167969 127.132812 L 590.464844 127.132812 Z M 590.464844 124.433594 L 593.167969 124.433594 L 593.167969 121.757812 L 590.464844 121.757812 Z M 590.464844 119.082031 L 593.167969 119.082031 L 593.167969 116.410156 L 590.464844 116.410156 Z M 590.464844 113.710938 L 593.167969 113.710938 L 593.167969 111.035156 L 590.464844 111.035156 Z M 590.464844 113.710938 " fill-opacity="1" fill-rule="nonzero"/><path fill="#113c25" d="M 590.464844 108.359375 L 593.167969 108.359375 L 593.167969 105.824219 L 590.65625 105.5 L 590.277344 108.144531 L 590.464844 108.171875 Z M 590.464844 108.359375 " fill-opacity="1" fill-rule="nonzero"/><path fill="#113c25" d="M 587.46875 107.6875 L 587.980469 105.039062 C 587.089844 104.878906 586.199219 104.6875 585.308594 104.472656 L 584.710938 107.09375 C 585.628906 107.308594 586.550781 107.496094 587.496094 107.6875 Z M 581.929688 106.417969 L 582.660156 103.824219 C 581.769531 103.582031 580.902344 103.3125 580.039062 103.039062 L 579.203125 105.605469 C 580.09375 105.902344 581.011719 106.171875 581.929688 106.417969 Z M 576.527344 104.660156 L 577.472656 102.121094 C 576.609375 101.796875 575.773438 101.472656 574.933594 101.121094 L 573.910156 103.609375 C 574.773438 103.984375 575.664062 104.308594 576.554688 104.632812 Z M 571.261719 102.472656 L 572.394531 100.015625 C 571.558594 99.636719 570.75 99.230469 569.9375 98.800781 L 568.695312 101.203125 C 569.535156 101.636719 570.398438 102.066406 571.261719 102.445312 Z M 566.210938 99.851562 L 567.5625 97.503906 C 566.777344 97.042969 565.996094 96.585938 565.210938 96.097656 L 563.78125 98.394531 C 564.589844 98.90625 565.402344 99.394531 566.210938 99.851562 Z M 561.402344 96.855469 L 562.941406 94.640625 C 562.1875 94.128906 561.457031 93.585938 560.726562 93.046875 L 559.109375 95.207031 C 559.863281 95.773438 560.648438 96.316406 561.402344 96.855469 Z M 556.867188 93.453125 L 558.566406 91.34375 C 557.867188 90.777344 557.164062 90.183594 556.488281 89.589844 L 554.707031 91.617188 C 555.40625 92.238281 556.136719 92.859375 556.867188 93.453125 Z M 552.597656 89.671875 L 554.460938 87.726562 C 553.8125 87.105469 553.164062 86.457031 552.542969 85.808594 L 550.601562 87.671875 C 551.246094 88.347656 551.921875 89.023438 552.597656 89.671875 Z M 548.65625 85.59375 L 550.679688 83.808594 C 550.085938 83.132812 549.492188 82.433594 548.925781 81.730469 L 546.820312 83.433594 C 547.414062 84.160156 548.035156 84.890625 548.65625 85.59375 Z M 545.089844 81.191406 L 547.25 79.570312 C 546.710938 78.839844 546.171875 78.109375 545.65625 77.355469 L 543.441406 78.894531 C 543.984375 79.675781 544.523438 80.433594 545.089844 81.191406 Z M 541.875 76.492188 L 544.171875 75.058594 C 543.683594 74.300781 543.226562 73.519531 542.765625 72.710938 L 540.417969 74.03125 C 540.875 74.871094 541.363281 75.679688 541.875 76.464844 Z M 539.066406 71.574219 L 541.46875 70.332031 C 541.066406 69.523438 540.660156 68.710938 540.253906 67.875 L 537.796875 69.007812 C 538.203125 69.871094 538.609375 70.710938 539.039062 71.546875 Z M 536.664062 66.441406 L 539.148438 65.417969 C 538.796875 64.578125 538.472656 63.742188 538.148438 62.878906 L 535.609375 63.824219 C 535.933594 64.714844 536.285156 65.578125 536.636719 66.46875 Z M 534.71875 61.121094 L 537.285156 60.285156 C 537.015625 59.421875 536.742188 58.554688 536.5 57.664062 L 533.90625 58.394531 C 534.152344 59.3125 534.421875 60.203125 534.71875 61.121094 Z M 533.207031 55.640625 L 535.824219 55.019531 C 535.609375 54.125 535.449219 53.234375 535.257812 52.34375 L 532.613281 52.855469 C 532.800781 53.777344 532.988281 54.722656 533.207031 55.640625 Z M 533.207031 55.640625 " fill-opacity="1" fill-rule="nonzero"/><path fill="#113c25" d="M 532.125 50.019531 L 534.800781 49.644531 L 534.503906 47.132812 L 531.9375 47.132812 L 531.9375 49.832031 L 532.125 49.832031 Z M 532.125 50.019531 " fill-opacity="1" fill-rule="nonzero"/><g clip-path="url(#6a25536783)"><path fill="#113c25" d="M -224.132812 49.832031 L -221.433594 49.832031 L -221.433594 47.132812 L -224.132812 47.132812 Z M -218.734375 49.832031 L -216.03125 49.832031 L -216.03125 47.132812 L -218.734375 47.132812 Z M -213.332031 49.832031 L -210.628906 49.832031 L -210.628906 47.132812 L -213.332031 47.132812 Z M -207.929688 49.832031 L -205.226562 49.832031 L -205.226562 47.132812 L -207.929688 47.132812 Z M -202.527344 49.832031 L -199.828125 49.832031 L -199.828125 47.132812 L -202.527344 47.132812 Z M -197.125 49.832031 L -194.425781 49.832031 L -194.425781 47.132812 L -197.125 47.132812 Z M -191.722656 49.832031 L -189.023438 49.832031 L -189.023438 47.132812 L -191.722656 47.132812 Z M -186.320312 49.832031 L -183.621094 49.832031 L -183.621094 47.132812 L -186.320312 47.132812 Z M -180.917969 49.832031 L -178.21875 49.832031 L -178.21875 47.132812 L -180.917969 47.132812 Z M -175.519531 49.832031 L -172.816406 49.832031 L -172.816406 47.132812 L -175.519531 47.132812 Z M -170.117188 49.832031 L -167.414062 49.832031 L -167.414062 47.132812 L -170.117188 47.132812 Z M -164.714844 49.832031 L -162.011719 49.832031 L -162.011719 47.132812 L -164.714844 47.132812 Z M -159.3125 49.832031 L -156.613281 49.832031 L -156.613281 47.132812 L -159.3125 47.132812 Z M -153.9375 49.832031 L -151.238281 49.832031 L -151.238281 47.132812 L -153.9375 47.132812 Z M -148.535156 49.832031 L -145.835938 49.832031 L -145.835938 47.132812 L -148.535156 47.132812 Z M -143.132812 49.832031 L -140.433594 49.832031 L -140.433594 47.132812 L -143.132812 47.132812 Z M -137.730469 49.832031 L -135.03125 49.832031 L -135.03125 47.132812 L -137.730469 47.132812 Z M -132.328125 49.832031 L -129.628906 49.832031 L -129.628906 47.132812 L -132.328125 47.132812 Z M -126.929688 49.832031 L -124.226562 49.832031 L -124.226562 47.132812 L -126.929688 47.132812 Z M -121.527344 49.832031 L -118.824219 49.832031 L -118.824219 47.132812 L -121.527344 47.132812 Z M -116.125 49.832031 L -113.421875 49.832031 L -113.421875 47.132812 L -116.125 47.132812 Z M -110.722656 49.832031 L -108.023438 49.832031 L -108.023438 47.132812 L -110.722656 47.132812 Z M -105.320312 49.832031 L -102.621094 49.832031 L -102.621094 47.132812 L -105.320312 47.132812 Z M -99.917969 49.832031 L -97.21875 49.832031 L -97.21875 47.132812 L -99.917969 47.132812 Z M -94.515625 49.832031 L -91.816406 49.832031 L -91.816406 47.132812 L -94.515625 47.132812 Z M -89.113281 49.832031 L -86.414062 49.832031 L -86.414062 47.132812 L -89.113281 47.132812 Z M -83.714844 49.832031 L -81.011719 49.832031 L -81.011719 47.132812 L -83.714844 47.132812 Z M -78.3125 49.832031 L -75.609375 49.832031 L -75.609375 47.132812 L -78.3125 47.132812 Z M -72.910156 49.832031 L -70.207031 49.832031 L -70.207031 47.132812 L -72.910156 47.132812 Z M -67.507812 49.832031 L -64.808594 49.832031 L -64.808594 47.132812 L -67.507812 47.132812 Z M -62.105469 49.832031 L -59.40625 49.832031 L -59.40625 47.132812 L -62.105469 47.132812 Z M -56.703125 49.832031 L -54.003906 49.832031 L -54.003906 47.132812 L -56.703125 47.132812 Z M -51.300781 49.832031 L -48.601562 49.832031 L -48.601562 47.132812 L -51.300781 47.132812 Z M -45.925781 49.832031 L -43.226562 49.832031 L -43.226562 47.132812 L -45.925781 47.132812 Z M -40.527344 49.832031 L -37.824219 49.832031 L -37.824219 47.132812 L -40.527344 47.132812 Z M -35.125 49.832031 L -32.421875 49.832031 L -32.421875 47.132812 L -35.125 47.132812 Z M -29.722656 49.832031 L -27.019531 49.832031 L -27.019531 47.132812 L -29.722656 47.132812 Z M -24.320312 49.832031 L -21.617188 49.832031 L -21.617188 47.132812 L -24.320312 47.132812 Z M -18.917969 49.832031 L -16.21875 49.832031 L -16.21875 47.132812 L -18.917969 47.132812 Z M -13.515625 49.832031 L -10.816406 49.832031 L -10.816406 47.132812 L -13.515625 47.132812 Z M -8.113281 49.832031 L -5.414062 49.832031 L -5.414062 47.132812 L -8.113281 47.132812 Z M -2.710938 49.832031 L -0.0117188 49.832031 L -0.0117188 47.132812 L -2.710938 47.132812 Z M 2.6875 49.832031 L 5.390625 49.832031 L 5.390625 47.132812 L 2.6875 47.132812 Z M 8.089844 49.832031 L 10.792969 49.832031 L 10.792969 47.132812 L 8.089844 47.132812 Z M 13.492188 49.832031 L 16.195312 49.832031 L 16.195312 47.132812 L 13.492188 47.132812 Z M 18.894531 49.832031 L 21.597656 49.832031 L 21.597656 47.132812 L 18.894531 47.132812 Z M 24.296875 49.832031 L 26.996094 49.832031 L 26.996094 47.132812 L 24.296875 47.132812 Z M 29.699219 49.832031 L 32.398438 49.832031 L 32.398438 47.132812 L 29.699219 47.132812 Z M 35.101562 49.832031 L 37.800781 49.832031 L 37.800781 47.132812 L 35.101562 47.132812 Z M 40.503906 49.832031 L 43.203125 49.832031 L 43.203125 47.132812 L 40.503906 47.132812 Z M 45.902344 49.832031 L 48.605469 49.832031 L 48.605469 47.132812 L 45.902344 47.132812 Z M 51.304688 49.832031 L 54.007812 49.832031 L 54.007812 47.132812 L 51.304688 47.132812 Z M 56.707031 49.832031 L 59.410156 49.832031 L 59.410156 47.132812 L 56.707031 47.132812 Z M 62.109375 49.832031 L 64.8125 49.832031 L 64.8125 47.132812 L 62.109375 47.132812 Z M 67.511719 49.832031 L 70.210938 49.832031 L 70.210938 47.132812 L 67.511719 47.132812 Z M 72.886719 49.832031 L 75.585938 49.832031 L 75.585938 47.132812 L 72.886719 47.132812 Z M 78.289062 49.832031 L 80.988281 49.832031 L 80.988281 47.132812 L 78.289062 47.132812 Z M 83.691406 49.832031 L 86.390625 49.832031 L 86.390625 47.132812 L 83.691406 47.132812 Z M 89.09375 49.832031 L 91.792969 49.832031 L 91.792969 47.132812 L 89.09375 47.132812 Z M 94.492188 49.832031 L 97.195312 49.832031 L 97.195312 47.132812 L 94.492188 47.132812 Z M 99.894531 49.832031 L 102.597656 49.832031 L 102.597656 47.132812 L 99.894531 47.132812 Z M 105.296875 49.832031 L 108 49.832031 L 108 47.132812 L 105.296875 47.132812 Z M 110.699219 49.832031 L 113.402344 49.832031 L 113.402344 47.132812 L 110.699219 47.132812 Z M 116.101562 49.832031 L 118.800781 49.832031 L 118.800781 47.132812 L 116.101562 47.132812 Z M 121.503906 49.832031 L 124.203125 49.832031 L 124.203125 47.132812 L 121.503906 47.132812 Z M 126.90625 49.832031 L 129.605469 49.832031 L 129.605469 47.132812 L 126.90625 47.132812 Z M 132.308594 49.832031 L 135.007812 49.832031 L 135.007812 47.132812 L 132.308594 47.132812 Z M 137.707031 49.832031 L 140.410156 49.832031 L 140.410156 47.132812 L 137.707031 47.132812 Z M 143.109375 49.832031 L 145.8125 49.832031 L 145.8125 47.132812 L 143.109375 47.132812 Z M 148.511719 49.832031 L 151.214844 49.832031 L 151.214844 47.132812 L 148.511719 47.132812 Z M 153.914062 49.832031 L 156.617188 49.832031 L 156.617188 47.132812 L 153.914062 47.132812 Z M 159.316406 49.832031 L 162.015625 49.832031 L 162.015625 47.132812 L 159.316406 47.132812 Z M 164.71875 49.832031 L 167.417969 49.832031 L 167.417969 47.132812 L 164.71875 47.132812 Z M 170.121094 49.832031 L 172.820312 49.832031 L 172.820312 47.132812 L 170.121094 47.132812 Z M 175.523438 49.832031 L 178.222656 49.832031 L 178.222656 47.132812 L 175.523438 47.132812 Z M 180.898438 49.832031 L 183.597656 49.832031 L 183.597656 47.132812 L 180.898438 47.132812 Z M 186.296875 49.832031 L 189 49.832031 L 189 47.132812 L 186.296875 47.132812 Z M 191.699219 49.832031 L 194.402344 49.832031 L 194.402344 47.132812 L 191.699219 47.132812 Z M 197.101562 49.832031 L 199.804688 49.832031 L 199.804688 47.132812 L 197.101562 47.132812 Z M 202.503906 49.832031 L 205.203125 49.832031 L 205.203125 47.132812 L 202.503906 47.132812 Z M 207.90625 49.832031 L 210.605469 49.832031 L 210.605469 47.132812 L 207.90625 47.132812 Z M 213.308594 49.832031 L 216.007812 49.832031 L 216.007812 47.132812 L 213.308594 47.132812 Z M 218.710938 49.832031 L 221.410156 49.832031 L 221.410156 47.132812 L 218.710938 47.132812 Z M 224.113281 49.832031 L 226.8125 49.832031 L 226.8125 47.132812 L 224.113281 47.132812 Z M 229.511719 49.832031 L 232.214844 49.832031 L 232.214844 47.132812 L 229.511719 47.132812 Z M 234.914062 49.832031 L 237.617188 49.832031 L 237.617188 47.132812 L 234.914062 47.132812 Z M 240.316406 49.832031 L 243.019531 49.832031 L 243.019531 47.132812 L 240.316406 47.132812 Z M 245.71875 49.832031 L 248.417969 49.832031 L 248.417969 47.132812 L 245.71875 47.132812 Z M 251.121094 49.832031 L 253.820312 49.832031 L 253.820312 47.132812 L 251.121094 47.132812 Z M 256.523438 49.832031 L 259.222656 49.832031 L 259.222656 47.132812 L 256.523438 47.132812 Z M 261.925781 49.832031 L 264.625 49.832031 L 264.625 47.132812 L 261.925781 47.132812 Z M 267.328125 49.832031 L 270.027344 49.832031 L 270.027344 47.132812 L 267.328125 47.132812 Z M 272.726562 49.832031 L 275.429688 49.832031 L 275.429688 47.132812 L 272.726562 47.132812 Z M 278.128906 49.832031 L 280.832031 49.832031 L 280.832031 47.132812 L 278.128906 47.132812 Z M 283.53125 49.832031 L 286.234375 49.832031 L 286.234375 47.132812 L 283.53125 47.132812 Z M 288.90625 49.832031 L 291.609375 49.832031 L 291.609375 47.132812 L 288.90625 47.132812 Z M 294.308594 49.832031 L 297.007812 49.832031 L 297.007812 47.132812 L 294.308594 47.132812 Z M 299.710938 49.832031 L 302.410156 49.832031 L 302.410156 47.132812 L 299.710938 47.132812 Z M 305.113281 49.832031 L 307.8125 49.832031 L 307.8125 47.132812 L 305.113281 47.132812 Z M 310.515625 49.832031 L 313.214844 49.832031 L 313.214844 47.132812 L 310.515625 47.132812 Z M 315.917969 49.832031 L 318.617188 49.832031 L 318.617188 47.132812 L 315.917969 47.132812 Z M 321.316406 49.832031 L 324.019531 49.832031 L 324.019531 47.132812 L 321.316406 47.132812 Z M 326.71875 49.832031 L 329.421875 49.832031 L 329.421875 47.132812 L 326.71875 47.132812 Z M 332.121094 49.832031 L 334.824219 49.832031 L 334.824219 47.132812 L 332.121094 47.132812 Z M 337.523438 49.832031 L 340.222656 49.832031 L 340.222656 47.132812 L 337.523438 47.132812 Z M 342.925781 49.832031 L 345.625 49.832031 L 345.625 47.132812 L 342.925781 47.132812 Z M 348.328125 49.832031 L 351.027344 49.832031 L 351.027344 47.132812 L 348.328125 47.132812 Z M 353.730469 49.832031 L 356.429688 49.832031 L 356.429688 47.132812 L 353.730469 47.132812 Z M 359.132812 49.832031 L 361.832031 49.832031 L 361.832031 47.132812 L 359.132812 47.132812 Z M 364.53125 49.832031 L 367.234375 49.832031 L 367.234375 47.132812 L 364.53125 47.132812 Z M 369.933594 49.832031 L 372.636719 49.832031 L 372.636719 47.132812 L 369.933594 47.132812 Z M 375.335938 49.832031 L 378.039062 49.832031 L 378.039062 47.132812 L 375.335938 47.132812 Z M 380.738281 49.832031 L 383.4375 49.832031 L 383.4375 47.132812 L 380.738281 47.132812 Z M 386.140625 49.832031 L 388.839844 49.832031 L 388.839844 47.132812 L 386.140625 47.132812 Z M 391.542969 49.832031 L 394.242188 49.832031 L 394.242188 47.132812 L 391.542969 47.132812 Z M 396.917969 49.832031 L 399.617188 49.832031 L 399.617188 47.132812 L 396.917969 47.132812 Z M 402.320312 49.832031 L 405.019531 49.832031 L 405.019531 47.132812 L 402.320312 47.132812 Z M 407.71875 49.832031 L 410.421875 49.832031 L 410.421875 47.132812 L 407.71875 47.132812 Z M 413.121094 49.832031 L 415.824219 49.832031 L 415.824219 47.132812 L 413.121094 47.132812 Z M 418.523438 49.832031 L 421.226562 49.832031 L 421.226562 47.132812 L 418.523438 47.132812 Z M 423.925781 49.832031 L 426.628906 49.832031 L 426.628906 47.132812 L 423.925781 47.132812 Z M 429.328125 49.832031 L 432.027344 49.832031 L 432.027344 47.132812 L 429.328125 47.132812 Z M 434.730469 49.832031 L 437.429688 49.832031 L 437.429688 47.132812 L 434.730469 47.132812 Z M 440.132812 49.832031 L 442.832031 49.832031 L 442.832031 47.132812 L 440.132812 47.132812 Z M 445.535156 49.832031 L 448.234375 49.832031 L 448.234375 47.132812 L 445.535156 47.132812 Z M 450.933594 49.832031 L 453.636719 49.832031 L 453.636719 47.132812 L 450.933594 47.132812 Z M 456.335938 49.832031 L 459.039062 49.832031 L 459.039062 47.132812 L 456.335938 47.132812 Z M 461.738281 49.832031 L 464.441406 49.832031 L 464.441406 47.132812 L 461.738281 47.132812 Z M 467.140625 49.832031 L 469.84375 49.832031 L 469.84375 47.132812 L 467.140625 47.132812 Z M 472.542969 49.832031 L 475.242188 49.832031 L 475.242188 47.132812 L 472.542969 47.132812 Z M 477.945312 49.832031 L 480.644531 49.832031 L 480.644531 47.132812 L 477.945312 47.132812 Z M 483.347656 49.832031 L 486.046875 49.832031 L 486.046875 47.132812 L 483.347656 47.132812 Z M 488.75 49.832031 L 491.449219 49.832031 L 491.449219 47.132812 L 488.75 47.132812 Z M 494.148438 49.832031 L 496.851562 49.832031 L 496.851562 47.132812 L 494.148438 47.132812 Z M 499.550781 49.832031 L 502.253906 49.832031 L 502.253906 47.132812 L 499.550781 47.132812 Z M 504.953125 49.832031 L 507.65625 49.832031 L 507.65625 47.132812 L 504.953125 47.132812 Z M 510.355469 49.832031 L 513.058594 49.832031 L 513.058594 47.132812 L 510.355469 47.132812 Z M 515.730469 49.832031 L 518.433594 49.832031 L 518.433594 47.132812 L 515.730469 47.132812 Z M 521.132812 49.832031 L 523.832031 49.832031 L 523.832031 47.132812 L 521.132812 47.132812 Z M 526.535156 49.832031 L 529.234375 49.832031 L 529.234375 47.132812 L 526.535156 47.132812 Z M 526.535156 49.832031 " fill-opacity="1" fill-rule="nonzero"/></g><g clip-path="url(#477321e48f)"><path fill="#113c25" d="M -224.132812 531.597656 L -221.433594 531.597656 L -221.433594 528.894531 L -224.132812 528.894531 Z M -218.734375 531.597656 L -216.03125 531.597656 L -216.03125 528.894531 L -218.734375 528.894531 Z M -213.332031 531.597656 L -210.628906 531.597656 L -210.628906 528.894531 L -213.332031 528.894531 Z M -207.929688 531.597656 L -205.226562 531.597656 L -205.226562 528.894531 L -207.929688 528.894531 Z M -202.527344 531.597656 L -199.828125 531.597656 L -199.828125 528.894531 L -202.527344 528.894531 Z M -197.125 531.597656 L -194.425781 531.597656 L -194.425781 528.894531 L -197.125 528.894531 Z M -191.722656 531.597656 L -189.023438 531.597656 L -189.023438 528.894531 L -191.722656 528.894531 Z M -186.320312 531.597656 L -183.621094 531.597656 L -183.621094 528.894531 L -186.320312 528.894531 Z M -180.917969 531.597656 L -178.21875 531.597656 L -178.21875 528.894531 L -180.917969 528.894531 Z M -175.519531 531.597656 L -172.816406 531.597656 L -172.816406 528.894531 L -175.519531 528.894531 Z M -170.117188 531.597656 L -167.414062 531.597656 L -167.414062 528.894531 L -170.117188 528.894531 Z M -164.714844 531.597656 L -162.011719 531.597656 L -162.011719 528.894531 L -164.714844 528.894531 Z M -159.3125 531.597656 L -156.613281 531.597656 L -156.613281 528.894531 L -159.3125 528.894531 Z M -153.9375 531.597656 L -151.238281 531.597656 L -151.238281 528.894531 L -153.9375 528.894531 Z M -148.535156 531.597656 L -145.835938 531.597656 L -145.835938 528.894531 L -148.535156 528.894531 Z M -143.132812 531.597656 L -140.433594 531.597656 L -140.433594 528.894531 L -143.132812 528.894531 Z M -137.730469 531.597656 L -135.03125 531.597656 L -135.03125 528.894531 L -137.730469 528.894531 Z M -132.328125 531.597656 L -129.628906 531.597656 L -129.628906 528.894531 L -132.328125 528.894531 Z M -126.929688 531.597656 L -124.226562 531.597656 L -124.226562 528.894531 L -126.929688 528.894531 Z M -121.527344 531.597656 L -118.824219 531.597656 L -118.824219 528.894531 L -121.527344 528.894531 Z M -116.125 531.597656 L -113.421875 531.597656 L -113.421875 528.894531 L -116.125 528.894531 Z M -110.722656 531.597656 L -108.023438 531.597656 L -108.023438 528.894531 L -110.722656 528.894531 Z M -105.320312 531.597656 L -102.621094 531.597656 L -102.621094 528.894531 L -105.320312 528.894531 Z M -99.917969 531.597656 L -97.21875 531.597656 L -97.21875 528.894531 L -99.917969 528.894531 Z M -94.515625 531.597656 L -91.816406 531.597656 L -91.816406 528.894531 L -94.515625 528.894531 Z M -89.113281 531.597656 L -86.414062 531.597656 L -86.414062 528.894531 L -89.113281 528.894531 Z M -83.714844 531.597656 L -81.011719 531.597656 L -81.011719 528.894531 L -83.714844 528.894531 Z M -78.3125 531.597656 L -75.609375 531.597656 L -75.609375 528.894531 L -78.3125 528.894531 Z M -72.910156 531.597656 L -70.207031 531.597656 L -70.207031 528.894531 L -72.910156 528.894531 Z M -67.507812 531.597656 L -64.808594 531.597656 L -64.808594 528.894531 L -67.507812 528.894531 Z M -62.105469 531.597656 L -59.40625 531.597656 L -59.40625 528.894531 L -62.105469 528.894531 Z M -56.703125 531.597656 L -54.003906 531.597656 L -54.003906 528.894531 L -56.703125 528.894531 Z M -51.300781 531.597656 L -48.601562 531.597656 L -48.601562 528.894531 L -51.300781 528.894531 Z M -45.925781 531.597656 L -43.226562 531.597656 L -43.226562 528.894531 L -45.925781 528.894531 Z M -40.527344 531.597656 L -37.824219 531.597656 L -37.824219 528.894531 L -40.527344 528.894531 Z M -35.125 531.597656 L -32.421875 531.597656 L -32.421875 528.894531 L -35.125 528.894531 Z M -29.722656 531.597656 L -27.019531 531.597656 L -27.019531 528.894531 L -29.722656 528.894531 Z M -24.320312 531.597656 L -21.617188 531.597656 L -21.617188 528.894531 L -24.320312 528.894531 Z M -18.917969 531.597656 L -16.21875 531.597656 L -16.21875 528.894531 L -18.917969 528.894531 Z M -13.515625 531.597656 L -10.816406 531.597656 L -10.816406 528.894531 L -13.515625 528.894531 Z M -8.113281 531.597656 L -5.414062 531.597656 L -5.414062 528.894531 L -8.113281 528.894531 Z M -2.710938 531.597656 L -0.0117188 531.597656 L -0.0117188 528.894531 L -2.710938 528.894531 Z M 2.6875 531.597656 L 5.390625 531.597656 L 5.390625 528.894531 L 2.6875 528.894531 Z M 8.089844 531.597656 L 10.792969 531.597656 L 10.792969 528.894531 L 8.089844 528.894531 Z M 13.492188 531.597656 L 16.195312 531.597656 L 16.195312 528.894531 L 13.492188 528.894531 Z M 18.894531 531.597656 L 21.597656 531.597656 L 21.597656 528.894531 L 18.894531 528.894531 Z M 24.296875 531.597656 L 26.996094 531.597656 L 26.996094 528.894531 L 24.296875 528.894531 Z M 29.699219 531.597656 L 32.398438 531.597656 L 32.398438 528.894531 L 29.699219 528.894531 Z M 35.101562 531.597656 L 37.800781 531.597656 L 37.800781 528.894531 L 35.101562 528.894531 Z M 40.503906 531.597656 L 43.203125 531.597656 L 43.203125 528.894531 L 40.503906 528.894531 Z M 45.902344 531.597656 L 48.605469 531.597656 L 48.605469 528.894531 L 45.902344 528.894531 Z M 51.304688 531.597656 L 54.007812 531.597656 L 54.007812 528.894531 L 51.304688 528.894531 Z M 56.707031 531.597656 L 59.410156 531.597656 L 59.410156 528.894531 L 56.707031 528.894531 Z M 62.109375 531.597656 L 64.8125 531.597656 L 64.8125 528.894531 L 62.109375 528.894531 Z M 67.511719 531.597656 L 70.210938 531.597656 L 70.210938 528.894531 L 67.511719 528.894531 Z M 72.886719 531.597656 L 75.585938 531.597656 L 75.585938 528.894531 L 72.886719 528.894531 Z M 78.289062 531.597656 L 80.988281 531.597656 L 80.988281 528.894531 L 78.289062 528.894531 Z M 83.691406 531.597656 L 86.390625 531.597656 L 86.390625 528.894531 L 83.691406 528.894531 Z M 89.09375 531.597656 L 91.792969 531.597656 L 91.792969 528.894531 L 89.09375 528.894531 Z M 94.492188 531.597656 L 97.195312 531.597656 L 97.195312 528.894531 L 94.492188 528.894531 Z M 99.894531 531.597656 L 102.597656 531.597656 L 102.597656 528.894531 L 99.894531 528.894531 Z M 105.296875 531.597656 L 108 531.597656 L 108 528.894531 L 105.296875 528.894531 Z M 110.699219 531.597656 L 113.402344 531.597656 L 113.402344 528.894531 L 110.699219 528.894531 Z M 116.101562 531.597656 L 118.800781 531.597656 L 118.800781 528.894531 L 116.101562 528.894531 Z M 121.503906 531.597656 L 124.203125 531.597656 L 124.203125 528.894531 L 121.503906 528.894531 Z M 126.90625 531.597656 L 129.605469 531.597656 L 129.605469 528.894531 L 126.90625 528.894531 Z M 132.308594 531.597656 L 135.007812 531.597656 L 135.007812 528.894531 L 132.308594 528.894531 Z M 137.707031 531.597656 L 140.410156 531.597656 L 140.410156 528.894531 L 137.707031 528.894531 Z M 143.109375 531.597656 L 145.8125 531.597656 L 145.8125 528.894531 L 143.109375 528.894531 Z M 148.511719 531.597656 L 151.214844 531.597656 L 151.214844 528.894531 L 148.511719 528.894531 Z M 153.914062 531.597656 L 156.617188 531.597656 L 156.617188 528.894531 L 153.914062 528.894531 Z M 159.316406 531.597656 L 162.015625 531.597656 L 162.015625 528.894531 L 159.316406 528.894531 Z M 164.71875 531.597656 L 167.417969 531.597656 L 167.417969 528.894531 L 164.71875 528.894531 Z M 170.121094 531.597656 L 172.820312 531.597656 L 172.820312 528.894531 L 170.121094 528.894531 Z M 175.523438 531.597656 L 178.222656 531.597656 L 178.222656 528.894531 L 175.523438 528.894531 Z M 180.898438 531.597656 L 183.597656 531.597656 L 183.597656 528.894531 L 180.898438 528.894531 Z M 186.296875 531.597656 L 189 531.597656 L 189 528.894531 L 186.296875 528.894531 Z M 191.699219 531.597656 L 194.402344 531.597656 L 194.402344 528.894531 L 191.699219 528.894531 Z M 197.101562 531.597656 L 199.804688 531.597656 L 199.804688 528.894531 L 197.101562 528.894531 Z M 202.503906 531.597656 L 205.203125 531.597656 L 205.203125 528.894531 L 202.503906 528.894531 Z M 207.90625 531.597656 L 210.605469 531.597656 L 210.605469 528.894531 L 207.90625 528.894531 Z M 213.308594 531.597656 L 216.007812 531.597656 L 216.007812 528.894531 L 213.308594 528.894531 Z M 218.710938 531.597656 L 221.410156 531.597656 L 221.410156 528.894531 L 218.710938 528.894531 Z M 224.113281 531.597656 L 226.8125 531.597656 L 226.8125 528.894531 L 224.113281 528.894531 Z M 229.511719 531.597656 L 232.214844 531.597656 L 232.214844 528.894531 L 229.511719 528.894531 Z M 234.914062 531.597656 L 237.617188 531.597656 L 237.617188 528.894531 L 234.914062 528.894531 Z M 240.316406 531.597656 L 243.019531 531.597656 L 243.019531 528.894531 L 240.316406 528.894531 Z M 245.71875 531.597656 L 248.417969 531.597656 L 248.417969 528.894531 L 245.71875 528.894531 Z M 251.121094 531.597656 L 253.820312 531.597656 L 253.820312 528.894531 L 251.121094 528.894531 Z M 256.523438 531.597656 L 259.222656 531.597656 L 259.222656 528.894531 L 256.523438 528.894531 Z M 261.925781 531.597656 L 264.625 531.597656 L 264.625 528.894531 L 261.925781 528.894531 Z M 267.328125 531.597656 L 270.027344 531.597656 L 270.027344 528.894531 L 267.328125 528.894531 Z M 272.726562 531.597656 L 275.429688 531.597656 L 275.429688 528.894531 L 272.726562 528.894531 Z M 278.128906 531.597656 L 280.832031 531.597656 L 280.832031 528.894531 L 278.128906 528.894531 Z M 283.53125 531.597656 L 286.234375 531.597656 L 286.234375 528.894531 L 283.53125 528.894531 Z M 288.90625 531.597656 L 291.609375 531.597656 L 291.609375 528.894531 L 288.90625 528.894531 Z M 294.308594 531.597656 L 297.007812 531.597656 L 297.007812 528.894531 L 294.308594 528.894531 Z M 299.710938 531.597656 L 302.410156 531.597656 L 302.410156 528.894531 L 299.710938 528.894531 Z M 305.113281 531.597656 L 307.8125 531.597656 L 307.8125 528.894531 L 305.113281 528.894531 Z M 310.515625 531.597656 L 313.214844 531.597656 L 313.214844 528.894531 L 310.515625 528.894531 Z M 315.917969 531.597656 L 318.617188 531.597656 L 318.617188 528.894531 L 315.917969 528.894531 Z M 321.316406 531.597656 L 324.019531 531.597656 L 324.019531 528.894531 L 321.316406 528.894531 Z M 326.71875 531.597656 L 329.421875 531.597656 L 329.421875 528.894531 L 326.71875 528.894531 Z M 332.121094 531.597656 L 334.824219 531.597656 L 334.824219 528.894531 L 332.121094 528.894531 Z M 337.523438 531.597656 L 340.222656 531.597656 L 340.222656 528.894531 L 337.523438 528.894531 Z M 342.925781 531.597656 L 345.625 531.597656 L 345.625 528.894531 L 342.925781 528.894531 Z M 348.328125 531.597656 L 351.027344 531.597656 L 351.027344 528.894531 L 348.328125 528.894531 Z M 353.730469 531.597656 L 356.429688 531.597656 L 356.429688 528.894531 L 353.730469 528.894531 Z M 359.132812 531.597656 L 361.832031 531.597656 L 361.832031 528.894531 L 359.132812 528.894531 Z M 364.53125 531.597656 L 367.234375 531.597656 L 367.234375 528.894531 L 364.53125 528.894531 Z M 369.933594 531.597656 L 372.636719 531.597656 L 372.636719 528.894531 L 369.933594 528.894531 Z M 375.335938 531.597656 L 378.039062 531.597656 L 378.039062 528.894531 L 375.335938 528.894531 Z M 380.738281 531.597656 L 383.4375 531.597656 L 383.4375 528.894531 L 380.738281 528.894531 Z M 386.140625 531.597656 L 388.839844 531.597656 L 388.839844 528.894531 L 386.140625 528.894531 Z M 391.542969 531.597656 L 394.242188 531.597656 L 394.242188 528.894531 L 391.542969 528.894531 Z M 396.917969 531.597656 L 399.617188 531.597656 L 399.617188 528.894531 L 396.917969 528.894531 Z M 402.320312 531.597656 L 405.019531 531.597656 L 405.019531 528.894531 L 402.320312 528.894531 Z M 407.71875 531.597656 L 410.421875 531.597656 L 410.421875 528.894531 L 407.71875 528.894531 Z M 413.121094 531.597656 L 415.824219 531.597656 L 415.824219 528.894531 L 413.121094 528.894531 Z M 418.523438 531.597656 L 421.226562 531.597656 L 421.226562 528.894531 L 418.523438 528.894531 Z M 423.925781 531.597656 L 426.628906 531.597656 L 426.628906 528.894531 L 423.925781 528.894531 Z M 429.328125 531.597656 L 432.027344 531.597656 L 432.027344 528.894531 L 429.328125 528.894531 Z M 434.730469 531.597656 L 437.429688 531.597656 L 437.429688 528.894531 L 434.730469 528.894531 Z M 440.132812 531.597656 L 442.832031 531.597656 L 442.832031 528.894531 L 440.132812 528.894531 Z M 445.535156 531.597656 L 448.234375 531.597656 L 448.234375 528.894531 L 445.535156 528.894531 Z M 450.933594 531.597656 L 453.636719 531.597656 L 453.636719 528.894531 L 450.933594 528.894531 Z M 456.335938 531.597656 L 459.039062 531.597656 L 459.039062 528.894531 L 456.335938 528.894531 Z M 461.738281 531.597656 L 464.441406 531.597656 L 464.441406 528.894531 L 461.738281 528.894531 Z M 467.140625 531.597656 L 469.84375 531.597656 L 469.84375 528.894531 L 467.140625 528.894531 Z M 472.542969 531.597656 L 475.242188 531.597656 L 475.242188 528.894531 L 472.542969 528.894531 Z M 477.945312 531.597656 L 480.644531 531.597656 L 480.644531 528.894531 L 477.945312 528.894531 Z M 483.347656 531.597656 L 486.046875 531.597656 L 486.046875 528.894531 L 483.347656 528.894531 Z M 488.75 531.597656 L 491.449219 531.597656 L 491.449219 528.894531 L 488.75 528.894531 Z M 494.148438 531.597656 L 496.851562 531.597656 L 496.851562 528.894531 L 494.148438 528.894531 Z M 499.550781 531.597656 L 502.253906 531.597656 L 502.253906 528.894531 L 499.550781 528.894531 Z M 504.953125 531.597656 L 507.65625 531.597656 L 507.65625 528.894531 L 504.953125 528.894531 Z M 510.355469 531.597656 L 513.058594 531.597656 L 513.058594 528.894531 L 510.355469 528.894531 Z M 515.730469 531.597656 L 518.433594 531.597656 L 518.433594 528.894531 L 515.730469 528.894531 Z M 521.132812 531.597656 L 523.832031 531.597656 L 523.832031 528.894531 L 521.132812 528.894531 Z M 526.535156 531.597656 L 529.234375 531.597656 L 529.234375 528.894531 L 526.535156 528.894531 Z M 526.535156 531.597656 " fill-opacity="1" fill-rule="nonzero"/></g><path fill="#113c25" d="M 579.878906 53.964844 C 573.367188 61.609375 573.179688 72.167969 573.179688 72.167969 C 573.179688 72.167969 583.578125 70.332031 590.085938 62.714844 C 596.597656 55.097656 596.785156 44.511719 596.785156 44.511719 C 596.785156 44.511719 586.386719 46.347656 579.878906 53.964844 Z M 579.878906 53.964844 " fill-opacity="1" fill-rule="nonzero"/><path fill="#113c25" d="M 589.574219 69.523438 C 582.390625 70.089844 576.960938 75.355469 576.960938 75.355469 C 576.960938 75.355469 583.171875 79.703125 590.359375 79.136719 C 597.542969 78.570312 602.972656 73.304688 602.972656 73.304688 C 602.972656 73.304688 596.757812 68.953125 589.574219 69.523438 Z M 589.574219 69.523438 " fill-opacity="1" fill-rule="nonzero"/><path fill="#113c25" d="M 572.800781 55.207031 C 573.367188 62.390625 569.019531 68.605469 569.019531 68.605469 C 569.019531 68.605469 563.753906 63.175781 563.1875 55.992188 C 562.617188 48.804688 566.96875 42.59375 566.96875 42.59375 C 566.96875 42.59375 572.234375 48.023438 572.800781 55.207031 Z M 572.800781 55.207031 " fill-opacity="1" fill-rule="nonzero"/><path fill="#113c25" d="M 591.574219 517.550781 C 583.929688 511.042969 573.367188 510.855469 573.367188 510.855469 C 573.367188 510.855469 575.207031 521.253906 582.820312 527.761719 C 590.4375 534.269531 601.027344 534.460938 601.027344 534.460938 C 601.027344 534.460938 599.191406 524.0625 591.574219 517.550781 Z M 591.574219 517.550781 " fill-opacity="1" fill-rule="nonzero"/><path fill="#113c25" d="M 576.015625 527.222656 C 575.449219 520.035156 570.179688 514.609375 570.179688 514.609375 C 570.179688 514.609375 565.832031 520.820312 566.398438 528.003906 C 566.96875 535.1875 572.234375 540.617188 572.234375 540.617188 C 572.234375 540.617188 576.582031 534.40625 576.015625 527.222656 Z M 576.015625 527.222656 " fill-opacity="1" fill-rule="nonzero"/><path fill="#113c25" d="M 590.332031 510.449219 C 583.144531 511.015625 576.933594 506.667969 576.933594 506.667969 C 576.933594 506.667969 582.363281 501.402344 589.546875 500.832031 C 596.730469 500.265625 602.945312 504.613281 602.945312 504.613281 C 602.945312 504.613281 597.515625 509.882812 590.332031 510.449219 Z M 590.332031 510.449219 " fill-opacity="1" fill-rule="nonzero"/></g></g></g><g clip-path="url(#bec267ba29)"><path fill="#ffffff" d="M 976.1875 0 L 976.1875 578.726562 L 0.691406 578.726562 L 0.691406 0 Z M 976.1875 0 " fill-opacity="1" fill-rule="nonzero"/></g><g clip-path="url(#2b40a3d988)"><path fill="#113c25" d="M 962.761719 565.332031 L 14.089844 565.332031 L 14.089844 13.398438 L 962.761719 13.398438 Z M 16.789062 562.628906 L 960.0625 562.628906 L 960.0625 16.097656 L 16.789062 16.097656 Z M 16.789062 562.628906 " fill-opacity="1" fill-rule="nonzero"/></g><g clip-path="url(#2e1f8ad865)"><path fill="#113c25" d="M 878.441406 540.023438 L 98.4375 540.023438 L 98.4375 538.671875 C 98.4375 506.855469 72.5625 480.980469 40.746094 480.980469 L 39.398438 480.980469 L 39.398438 97.746094 L 40.746094 97.746094 C 72.5625 97.746094 98.4375 71.871094 98.4375 40.054688 L 98.4375 38.703125 L 878.441406 38.703125 L 878.441406 40.054688 C 878.441406 71.871094 904.316406 97.746094 936.132812 97.746094 L 937.480469 97.746094 L 937.480469 481.007812 L 936.132812 481.007812 C 904.316406 481.007812 878.441406 506.882812 878.441406 538.699219 L 878.441406 540.050781 Z M 101.113281 537.324219 L 875.738281 537.324219 C 876.441406 505.101562 902.53125 479.007812 934.753906 478.308594 L 934.753906 100.421875 C 902.53125 99.71875 876.441406 73.628906 875.738281 41.40625 L 101.113281 41.40625 C 100.410156 73.628906 74.320312 99.71875 42.097656 100.421875 L 42.097656 478.308594 C 74.320312 479.007812 100.410156 505.101562 101.113281 537.324219 Z M 101.113281 537.324219 " fill-opacity="1" fill-rule="nonzero"/></g><path fill="#113c25" d="M 109.054688 531.597656 L 106.515625 531.597656 L 106.191406 529.113281 L 108.863281 528.707031 L 108.863281 528.894531 L 109.054688 528.894531 Z M 109.054688 531.597656 " fill-opacity="1" fill-rule="nonzero"/><path fill="#113c25" d="M 105.730469 526.410156 C 105.570312 525.519531 105.378906 524.628906 105.164062 523.738281 L 107.785156 523.117188 C 108 524.035156 108.1875 524.953125 108.378906 525.898438 L 105.730469 526.382812 Z M 104.488281 521.089844 C 104.246094 520.199219 103.976562 519.335938 103.707031 518.46875 L 106.273438 517.632812 C 106.570312 518.523438 106.839844 519.441406 107.082031 520.359375 Z M 102.8125 515.90625 C 102.492188 515.039062 102.167969 514.203125 101.816406 513.367188 L 104.300781 512.339844 C 104.652344 513.203125 105.003906 514.09375 105.328125 514.984375 L 102.789062 515.929688 Z M 100.734375 510.855469 C 100.355469 510.015625 99.953125 509.207031 99.519531 508.394531 L 101.921875 507.152344 C 102.355469 507.992188 102.789062 508.855469 103.164062 509.691406 L 100.707031 510.828125 Z M 98.222656 505.992188 C 97.761719 505.207031 97.304688 504.425781 96.816406 503.640625 L 99.113281 502.210938 C 99.601562 503.019531 100.085938 503.832031 100.574219 504.640625 Z M 95.304688 501.375 C 94.792969 500.617188 94.253906 499.886719 93.710938 499.160156 L 95.871094 497.539062 C 96.441406 498.292969 97.007812 499.078125 97.519531 499.859375 L 95.304688 501.402344 Z M 92.039062 496.996094 C 91.46875 496.296875 90.875 495.59375 90.28125 494.917969 L 92.308594 493.136719 C 92.929688 493.835938 93.550781 494.566406 94.144531 495.296875 Z M 88.417969 492.917969 C 87.796875 492.269531 87.148438 491.621094 86.5 491 L 88.363281 489.058594 C 89.039062 489.707031 89.714844 490.378906 90.363281 491.054688 Z M 84.476562 489.136719 C 83.800781 488.542969 83.097656 487.949219 82.394531 487.382812 L 84.097656 485.277344 C 84.824219 485.871094 85.554688 486.492188 86.257812 487.113281 Z M 80.261719 485.707031 C 79.53125 485.167969 78.804688 484.628906 78.046875 484.113281 L 79.585938 481.898438 C 80.371094 482.441406 81.125 482.980469 81.882812 483.546875 Z M 75.75 482.601562 C 74.96875 482.117188 74.210938 481.65625 73.402344 481.199219 L 74.75 478.847656 C 75.5625 479.308594 76.371094 479.792969 77.183594 480.304688 Z M 71.023438 479.902344 C 70.214844 479.496094 69.402344 479.089844 68.566406 478.6875 L 69.699219 476.226562 C 70.566406 476.632812 71.402344 477.039062 72.238281 477.46875 L 70.996094 479.875 Z M 66.082031 477.605469 C 65.246094 477.253906 64.40625 476.929688 63.542969 476.605469 L 64.488281 474.066406 C 65.378906 474.390625 66.242188 474.742188 67.136719 475.09375 L 66.109375 477.578125 Z M 60.976562 475.714844 C 60.113281 475.445312 59.25 475.175781 58.382812 474.929688 L 59.113281 472.339844 C 60.03125 472.582031 60.921875 472.851562 61.839844 473.148438 L 61.003906 475.714844 Z M 55.710938 474.28125 C 54.820312 474.066406 53.925781 473.878906 53.035156 473.714844 L 53.550781 471.070312 C 54.496094 471.230469 55.414062 471.445312 56.332031 471.664062 Z M 55.710938 474.28125 " fill-opacity="1" fill-rule="nonzero"/><path fill="#113c25" d="M 50.335938 473.257812 C 49.902344 473.203125 49.472656 473.121094 49.011719 473.066406 L 47.824219 472.933594 L 47.824219 470.394531 L 50.523438 470.394531 L 50.523438 470.554688 C 50.523438 470.554688 50.632812 470.554688 50.714844 470.554688 L 50.335938 473.230469 Z M 50.335938 473.257812 " fill-opacity="1" fill-rule="nonzero"/><path fill="#113c25" d="M 50.523438 467.691406 L 47.824219 467.691406 L 47.824219 465.019531 L 50.523438 465.019531 Z M 50.523438 462.34375 L 47.824219 462.34375 L 47.824219 459.671875 L 50.523438 459.671875 Z M 50.523438 456.96875 L 47.824219 456.96875 L 47.824219 454.296875 L 50.523438 454.296875 Z M 50.523438 451.621094 L 47.824219 451.621094 L 47.824219 448.949219 L 50.523438 448.949219 Z M 50.523438 446.246094 L 47.824219 446.246094 L 47.824219 443.574219 L 50.523438 443.574219 Z M 50.523438 440.898438 L 47.824219 440.898438 L 47.824219 438.226562 L 50.523438 438.226562 Z M 50.523438 435.523438 L 47.824219 435.523438 L 47.824219 432.851562 L 50.523438 432.851562 Z M 50.523438 430.148438 L 47.824219 430.148438 L 47.824219 427.476562 L 50.523438 427.476562 Z M 50.523438 424.800781 L 47.824219 424.800781 L 47.824219 422.128906 L 50.523438 422.128906 Z M 50.523438 419.425781 L 47.824219 419.425781 L 47.824219 416.753906 L 50.523438 416.753906 Z M 50.523438 414.078125 L 47.824219 414.078125 L 47.824219 411.40625 L 50.523438 411.40625 Z M 50.523438 408.703125 L 47.824219 408.703125 L 47.824219 406.03125 L 50.523438 406.03125 Z M 50.523438 403.355469 L 47.824219 403.355469 L 47.824219 400.683594 L 50.523438 400.683594 Z M 50.523438 397.980469 L 47.824219 397.980469 L 47.824219 395.308594 L 50.523438 395.308594 Z M 50.523438 392.605469 L 47.824219 392.605469 L 47.824219 389.933594 L 50.523438 389.933594 Z M 50.523438 387.257812 L 47.824219 387.257812 L 47.824219 384.585938 L 50.523438 384.585938 Z M 50.523438 381.882812 L 47.824219 381.882812 L 47.824219 379.210938 L 50.523438 379.210938 Z M 50.523438 376.535156 L 47.824219 376.535156 L 47.824219 373.863281 L 50.523438 373.863281 Z M 50.523438 371.160156 L 47.824219 371.160156 L 47.824219 368.488281 L 50.523438 368.488281 Z M 50.523438 365.785156 L 47.824219 365.785156 L 47.824219 363.113281 L 50.523438 363.113281 Z M 50.523438 360.4375 L 47.824219 360.4375 L 47.824219 357.765625 L 50.523438 357.765625 Z M 50.523438 355.0625 L 47.824219 355.0625 L 47.824219 352.390625 L 50.523438 352.390625 Z M 50.523438 349.714844 L 47.824219 349.714844 L 47.824219 347.042969 L 50.523438 347.042969 Z M 50.523438 344.339844 L 47.824219 344.339844 L 47.824219 341.667969 L 50.523438 341.667969 Z M 50.523438 338.992188 L 47.824219 338.992188 L 47.824219 336.320312 L 50.523438 336.320312 Z M 50.523438 333.617188 L 47.824219 333.617188 L 47.824219 330.945312 L 50.523438 330.945312 Z M 50.523438 328.242188 L 47.824219 328.242188 L 47.824219 325.570312 L 50.523438 325.570312 Z M 50.523438 322.894531 L 47.824219 322.894531 L 47.824219 320.222656 L 50.523438 320.222656 Z M 50.523438 317.519531 L 47.824219 317.519531 L 47.824219 314.847656 L 50.523438 314.847656 Z M 50.523438 312.171875 L 47.824219 312.171875 L 47.824219 309.5 L 50.523438 309.5 Z M 50.523438 306.796875 L 47.824219 306.796875 L 47.824219 304.125 L 50.523438 304.125 Z M 50.523438 301.449219 L 47.824219 301.449219 L 47.824219 298.777344 L 50.523438 298.777344 Z M 50.523438 296.074219 L 47.824219 296.074219 L 47.824219 293.402344 L 50.523438 293.402344 Z M 50.523438 290.699219 L 47.824219 290.699219 L 47.824219 288.027344 L 50.523438 288.027344 Z M 50.523438 285.351562 L 47.824219 285.351562 L 47.824219 282.679688 L 50.523438 282.679688 Z M 50.523438 279.976562 L 47.824219 279.976562 L 47.824219 277.304688 L 50.523438 277.304688 Z M 50.523438 274.628906 L 47.824219 274.628906 L 47.824219 271.957031 L 50.523438 271.957031 Z M 50.523438 269.253906 L 47.824219 269.253906 L 47.824219 266.582031 L 50.523438 266.582031 Z M 50.523438 263.878906 L 47.824219 263.878906 L 47.824219 261.207031 L 50.523438 261.207031 Z M 50.523438 258.53125 L 47.824219 258.53125 L 47.824219 255.859375 L 50.523438 255.859375 Z M 50.523438 253.15625 L 47.824219 253.15625 L 47.824219 250.484375 L 50.523438 250.484375 Z M 50.523438 247.808594 L 47.824219 247.808594 L 47.824219 245.136719 L 50.523438 245.136719 Z M 50.523438 242.433594 L 47.824219 242.433594 L 47.824219 239.761719 L 50.523438 239.761719 Z M 50.523438 237.085938 L 47.824219 237.085938 L 47.824219 234.414062 L 50.523438 234.414062 Z M 50.523438 231.710938 L 47.824219 231.710938 L 47.824219 229.039062 L 50.523438 229.039062 Z M 50.523438 226.335938 L 47.824219 226.335938 L 47.824219 223.664062 L 50.523438 223.664062 Z M 50.523438 220.988281 L 47.824219 220.988281 L 47.824219 218.316406 L 50.523438 218.316406 Z M 50.523438 215.613281 L 47.824219 215.613281 L 47.824219 212.941406 L 50.523438 212.941406 Z M 50.523438 210.265625 L 47.824219 210.265625 L 47.824219 207.59375 L 50.523438 207.59375 Z M 50.523438 204.890625 L 47.824219 204.890625 L 47.824219 202.21875 L 50.523438 202.21875 Z M 50.523438 199.542969 L 47.824219 199.542969 L 47.824219 196.871094 L 50.523438 196.871094 Z M 50.523438 194.167969 L 47.824219 194.167969 L 47.824219 191.496094 L 50.523438 191.496094 Z M 50.523438 188.796875 L 47.824219 188.796875 L 47.824219 186.121094 L 50.523438 186.121094 Z M 50.523438 183.445312 L 47.824219 183.445312 L 47.824219 180.773438 L 50.523438 180.773438 Z M 50.523438 178.070312 L 47.824219 178.070312 L 47.824219 175.398438 L 50.523438 175.398438 Z M 50.523438 172.722656 L 47.824219 172.722656 L 47.824219 170.050781 L 50.523438 170.050781 Z M 50.523438 167.347656 L 47.824219 167.347656 L 47.824219 164.675781 L 50.523438 164.675781 Z M 50.523438 161.976562 L 47.824219 161.976562 L 47.824219 159.300781 L 50.523438 159.300781 Z M 50.523438 156.625 L 47.824219 156.625 L 47.824219 153.953125 L 50.523438 153.953125 Z M 50.523438 151.253906 L 47.824219 151.253906 L 47.824219 148.578125 L 50.523438 148.578125 Z M 50.523438 145.902344 L 47.824219 145.902344 L 47.824219 143.230469 L 50.523438 143.230469 Z M 50.523438 140.53125 L 47.824219 140.53125 L 47.824219 137.855469 L 50.523438 137.855469 Z M 50.523438 135.179688 L 47.824219 135.179688 L 47.824219 132.507812 L 50.523438 132.507812 Z M 50.523438 129.808594 L 47.824219 129.808594 L 47.824219 127.132812 L 50.523438 127.132812 Z M 50.523438 124.433594 L 47.824219 124.433594 L 47.824219 121.757812 L 50.523438 121.757812 Z M 50.523438 119.082031 L 47.824219 119.082031 L 47.824219 116.410156 L 50.523438 116.410156 Z M 50.523438 113.710938 L 47.824219 113.710938 L 47.824219 111.035156 L 50.523438 111.035156 Z M 50.523438 113.710938 " fill-opacity="1" fill-rule="nonzero"/><path fill="#113c25" d="M 50.523438 108.359375 L 47.824219 108.359375 L 47.824219 105.824219 L 50.335938 105.5 L 50.714844 108.144531 L 50.523438 108.171875 Z M 50.523438 108.359375 " fill-opacity="1" fill-rule="nonzero"/><path fill="#113c25" d="M 53.523438 107.6875 L 53.007812 105.039062 C 53.902344 104.878906 54.792969 104.6875 55.683594 104.472656 L 56.277344 107.09375 C 55.359375 107.308594 54.441406 107.496094 53.496094 107.6875 Z M 59.058594 106.417969 L 58.328125 103.824219 C 59.222656 103.582031 60.085938 103.3125 60.949219 103.039062 L 61.789062 105.605469 C 60.894531 105.902344 59.976562 106.171875 59.058594 106.417969 Z M 64.460938 104.660156 L 63.515625 102.121094 C 64.378906 101.796875 65.21875 101.472656 66.054688 101.121094 L 67.082031 103.609375 C 66.214844 103.984375 65.324219 104.308594 64.433594 104.632812 Z M 69.726562 102.472656 L 68.59375 100.015625 C 69.429688 99.636719 70.242188 99.230469 71.050781 98.800781 L 72.292969 101.203125 C 71.457031 101.636719 70.59375 102.066406 69.726562 102.445312 Z M 74.777344 99.851562 L 73.429688 97.503906 C 74.210938 97.042969 74.996094 96.585938 75.777344 96.097656 L 77.210938 98.394531 C 76.398438 98.90625 75.589844 99.394531 74.777344 99.851562 Z M 79.585938 96.855469 L 78.046875 94.640625 C 78.804688 94.128906 79.53125 93.585938 80.261719 93.046875 L 81.882812 95.207031 C 81.125 95.773438 80.34375 96.316406 79.585938 96.855469 Z M 84.125 93.453125 L 82.421875 91.34375 C 83.125 90.777344 83.828125 90.183594 84.503906 89.589844 L 86.285156 91.617188 C 85.582031 92.238281 84.851562 92.859375 84.125 93.453125 Z M 88.390625 89.671875 L 86.527344 87.726562 C 87.175781 87.105469 87.824219 86.457031 88.445312 85.808594 L 90.390625 87.671875 C 89.742188 88.347656 89.066406 89.023438 88.390625 89.671875 Z M 92.335938 85.59375 L 90.308594 83.808594 C 90.902344 83.132812 91.496094 82.433594 92.066406 81.730469 L 94.171875 83.433594 C 93.578125 84.160156 92.957031 84.890625 92.335938 85.59375 Z M 95.898438 81.191406 L 93.738281 79.570312 C 94.28125 78.839844 94.820312 78.109375 95.332031 77.355469 L 97.546875 78.894531 C 97.007812 79.675781 96.46875 80.433594 95.898438 81.191406 Z M 99.113281 76.492188 L 96.816406 75.058594 C 97.304688 74.300781 97.761719 73.519531 98.222656 72.710938 L 100.574219 74.03125 C 100.113281 74.871094 99.628906 75.679688 99.113281 76.464844 Z M 101.921875 71.574219 L 99.519531 70.332031 C 99.925781 69.523438 100.328125 68.710938 100.734375 67.875 L 103.191406 69.007812 C 102.789062 69.871094 102.382812 70.710938 101.949219 71.546875 Z M 104.328125 66.441406 L 101.84375 65.417969 C 102.191406 64.578125 102.515625 63.742188 102.839844 62.878906 L 105.378906 63.824219 C 105.054688 64.714844 104.703125 65.578125 104.355469 66.46875 Z M 106.273438 61.121094 L 103.707031 60.285156 C 103.976562 59.421875 104.246094 58.554688 104.488281 57.664062 L 107.082031 58.394531 C 106.839844 59.3125 106.570312 60.203125 106.273438 61.121094 Z M 107.785156 55.640625 L 105.164062 55.019531 C 105.378906 54.125 105.542969 53.234375 105.730469 52.34375 L 108.378906 52.855469 C 108.1875 53.777344 108 54.722656 107.785156 55.640625 Z M 107.785156 55.640625 " fill-opacity="1" fill-rule="nonzero"/><path fill="#113c25" d="M 108.863281 50.019531 L 106.191406 49.644531 L 106.488281 47.132812 L 109.054688 47.132812 L 109.054688 49.832031 L 108.863281 49.832031 Z M 108.863281 50.019531 " fill-opacity="1" fill-rule="nonzero"/><g clip-path="url(#cd1fe2b71a)"><path fill="#113c25" d="M 865.125 49.832031 L 862.421875 49.832031 L 862.421875 47.132812 L 865.125 47.132812 Z M 859.722656 49.832031 L 857.023438 49.832031 L 857.023438 47.132812 L 859.722656 47.132812 Z M 854.320312 49.832031 L 851.621094 49.832031 L 851.621094 47.132812 L 854.320312 47.132812 Z M 848.917969 49.832031 L 846.21875 49.832031 L 846.21875 47.132812 L 848.917969 47.132812 Z M 843.515625 49.832031 L 840.816406 49.832031 L 840.816406 47.132812 L 843.515625 47.132812 Z M 838.113281 49.832031 L 835.414062 49.832031 L 835.414062 47.132812 L 838.113281 47.132812 Z M 832.714844 49.832031 L 830.011719 49.832031 L 830.011719 47.132812 L 832.714844 47.132812 Z M 827.3125 49.832031 L 824.609375 49.832031 L 824.609375 47.132812 L 827.3125 47.132812 Z M 821.910156 49.832031 L 819.207031 49.832031 L 819.207031 47.132812 L 821.910156 47.132812 Z M 816.507812 49.832031 L 813.808594 49.832031 L 813.808594 47.132812 L 816.507812 47.132812 Z M 811.105469 49.832031 L 808.40625 49.832031 L 808.40625 47.132812 L 811.105469 47.132812 Z M 805.703125 49.832031 L 803.003906 49.832031 L 803.003906 47.132812 L 805.703125 47.132812 Z M 800.300781 49.832031 L 797.601562 49.832031 L 797.601562 47.132812 L 800.300781 47.132812 Z M 794.925781 49.832031 L 792.226562 49.832031 L 792.226562 47.132812 L 794.925781 47.132812 Z M 789.527344 49.832031 L 786.824219 49.832031 L 786.824219 47.132812 L 789.527344 47.132812 Z M 784.125 49.832031 L 781.421875 49.832031 L 781.421875 47.132812 L 784.125 47.132812 Z M 778.722656 49.832031 L 776.019531 49.832031 L 776.019531 47.132812 L 778.722656 47.132812 Z M 773.320312 49.832031 L 770.617188 49.832031 L 770.617188 47.132812 L 773.320312 47.132812 Z M 767.917969 49.832031 L 765.21875 49.832031 L 765.21875 47.132812 L 767.917969 47.132812 Z M 762.515625 49.832031 L 759.816406 49.832031 L 759.816406 47.132812 L 762.515625 47.132812 Z M 757.113281 49.832031 L 754.414062 49.832031 L 754.414062 47.132812 L 757.113281 47.132812 Z M 751.710938 49.832031 L 749.011719 49.832031 L 749.011719 47.132812 L 751.710938 47.132812 Z M 746.3125 49.832031 L 743.609375 49.832031 L 743.609375 47.132812 L 746.3125 47.132812 Z M 740.910156 49.832031 L 738.207031 49.832031 L 738.207031 47.132812 L 740.910156 47.132812 Z M 735.507812 49.832031 L 732.804688 49.832031 L 732.804688 47.132812 L 735.507812 47.132812 Z M 730.105469 49.832031 L 727.402344 49.832031 L 727.402344 47.132812 L 730.105469 47.132812 Z M 724.703125 49.832031 L 722.003906 49.832031 L 722.003906 47.132812 L 724.703125 47.132812 Z M 719.300781 49.832031 L 716.601562 49.832031 L 716.601562 47.132812 L 719.300781 47.132812 Z M 713.898438 49.832031 L 711.199219 49.832031 L 711.199219 47.132812 L 713.898438 47.132812 Z M 708.496094 49.832031 L 705.796875 49.832031 L 705.796875 47.132812 L 708.496094 47.132812 Z M 703.097656 49.832031 L 700.394531 49.832031 L 700.394531 47.132812 L 703.097656 47.132812 Z M 697.695312 49.832031 L 694.992188 49.832031 L 694.992188 47.132812 L 697.695312 47.132812 Z M 692.292969 49.832031 L 689.589844 49.832031 L 689.589844 47.132812 L 692.292969 47.132812 Z M 686.917969 49.832031 L 684.214844 49.832031 L 684.214844 47.132812 L 686.917969 47.132812 Z M 681.515625 49.832031 L 678.8125 49.832031 L 678.8125 47.132812 L 681.515625 47.132812 Z M 676.113281 49.832031 L 673.414062 49.832031 L 673.414062 47.132812 L 676.113281 47.132812 Z M 670.710938 49.832031 L 668.011719 49.832031 L 668.011719 47.132812 L 670.710938 47.132812 Z M 665.308594 49.832031 L 662.609375 49.832031 L 662.609375 47.132812 L 665.308594 47.132812 Z M 659.90625 49.832031 L 657.207031 49.832031 L 657.207031 47.132812 L 659.90625 47.132812 Z M 654.507812 49.832031 L 651.804688 49.832031 L 651.804688 47.132812 L 654.507812 47.132812 Z M 649.105469 49.832031 L 646.402344 49.832031 L 646.402344 47.132812 L 649.105469 47.132812 Z M 643.703125 49.832031 L 641 49.832031 L 641 47.132812 L 643.703125 47.132812 Z M 638.300781 49.832031 L 635.597656 49.832031 L 635.597656 47.132812 L 638.300781 47.132812 Z M 632.898438 49.832031 L 630.199219 49.832031 L 630.199219 47.132812 L 632.898438 47.132812 Z M 627.496094 49.832031 L 624.796875 49.832031 L 624.796875 47.132812 L 627.496094 47.132812 Z M 622.09375 49.832031 L 619.394531 49.832031 L 619.394531 47.132812 L 622.09375 47.132812 Z M 616.691406 49.832031 L 613.992188 49.832031 L 613.992188 47.132812 L 616.691406 47.132812 Z M 611.292969 49.832031 L 608.589844 49.832031 L 608.589844 47.132812 L 611.292969 47.132812 Z M 605.890625 49.832031 L 603.1875 49.832031 L 603.1875 47.132812 L 605.890625 47.132812 Z M 600.488281 49.832031 L 597.785156 49.832031 L 597.785156 47.132812 L 600.488281 47.132812 Z M 595.085938 49.832031 L 592.382812 49.832031 L 592.382812 47.132812 L 595.085938 47.132812 Z M 589.683594 49.832031 L 586.984375 49.832031 L 586.984375 47.132812 L 589.683594 47.132812 Z M 584.28125 49.832031 L 581.582031 49.832031 L 581.582031 47.132812 L 584.28125 47.132812 Z M 578.878906 49.832031 L 576.179688 49.832031 L 576.179688 47.132812 L 578.878906 47.132812 Z M 573.476562 49.832031 L 570.777344 49.832031 L 570.777344 47.132812 L 573.476562 47.132812 Z M 568.101562 49.832031 L 565.402344 49.832031 L 565.402344 47.132812 L 568.101562 47.132812 Z M 562.703125 49.832031 L 560 49.832031 L 560 47.132812 L 562.703125 47.132812 Z M 557.300781 49.832031 L 554.597656 49.832031 L 554.597656 47.132812 L 557.300781 47.132812 Z M 551.898438 49.832031 L 549.195312 49.832031 L 549.195312 47.132812 L 551.898438 47.132812 Z M 546.496094 49.832031 L 543.796875 49.832031 L 543.796875 47.132812 L 546.496094 47.132812 Z M 541.09375 49.832031 L 538.394531 49.832031 L 538.394531 47.132812 L 541.09375 47.132812 Z M 535.691406 49.832031 L 532.992188 49.832031 L 532.992188 47.132812 L 535.691406 47.132812 Z M 530.289062 49.832031 L 527.589844 49.832031 L 527.589844 47.132812 L 530.289062 47.132812 Z M 524.886719 49.832031 L 522.1875 49.832031 L 522.1875 47.132812 L 524.886719 47.132812 Z M 519.488281 49.832031 L 516.785156 49.832031 L 516.785156 47.132812 L 519.488281 47.132812 Z M 514.085938 49.832031 L 511.382812 49.832031 L 511.382812 47.132812 L 514.085938 47.132812 Z M 508.683594 49.832031 L 505.980469 49.832031 L 505.980469 47.132812 L 508.683594 47.132812 Z M 503.28125 49.832031 L 500.582031 49.832031 L 500.582031 47.132812 L 503.28125 47.132812 Z M 497.878906 49.832031 L 495.179688 49.832031 L 495.179688 47.132812 L 497.878906 47.132812 Z M 492.476562 49.832031 L 489.777344 49.832031 L 489.777344 47.132812 L 492.476562 47.132812 Z M 487.074219 49.832031 L 484.375 49.832031 L 484.375 47.132812 L 487.074219 47.132812 Z M 481.671875 49.832031 L 478.972656 49.832031 L 478.972656 47.132812 L 481.671875 47.132812 Z M 476.273438 49.832031 L 473.570312 49.832031 L 473.570312 47.132812 L 476.273438 47.132812 Z M 470.871094 49.832031 L 468.167969 49.832031 L 468.167969 47.132812 L 470.871094 47.132812 Z M 465.46875 49.832031 L 462.765625 49.832031 L 462.765625 47.132812 L 465.46875 47.132812 Z M 460.09375 49.832031 L 457.390625 49.832031 L 457.390625 47.132812 L 460.09375 47.132812 Z M 454.691406 49.832031 L 451.992188 49.832031 L 451.992188 47.132812 L 454.691406 47.132812 Z M 449.289062 49.832031 L 446.589844 49.832031 L 446.589844 47.132812 L 449.289062 47.132812 Z M 443.886719 49.832031 L 441.1875 49.832031 L 441.1875 47.132812 L 443.886719 47.132812 Z M 438.484375 49.832031 L 435.785156 49.832031 L 435.785156 47.132812 L 438.484375 47.132812 Z M 433.082031 49.832031 L 430.382812 49.832031 L 430.382812 47.132812 L 433.082031 47.132812 Z M 427.683594 49.832031 L 424.980469 49.832031 L 424.980469 47.132812 L 427.683594 47.132812 Z M 422.28125 49.832031 L 419.578125 49.832031 L 419.578125 47.132812 L 422.28125 47.132812 Z M 416.878906 49.832031 L 414.175781 49.832031 L 414.175781 47.132812 L 416.878906 47.132812 Z M 411.476562 49.832031 L 408.777344 49.832031 L 408.777344 47.132812 L 411.476562 47.132812 Z M 406.074219 49.832031 L 403.375 49.832031 L 403.375 47.132812 L 406.074219 47.132812 Z M 400.671875 49.832031 L 397.972656 49.832031 L 397.972656 47.132812 L 400.671875 47.132812 Z M 395.269531 49.832031 L 392.570312 49.832031 L 392.570312 47.132812 L 395.269531 47.132812 Z M 389.867188 49.832031 L 387.167969 49.832031 L 387.167969 47.132812 L 389.867188 47.132812 Z M 384.46875 49.832031 L 381.765625 49.832031 L 381.765625 47.132812 L 384.46875 47.132812 Z M 379.066406 49.832031 L 376.363281 49.832031 L 376.363281 47.132812 L 379.066406 47.132812 Z M 373.664062 49.832031 L 370.960938 49.832031 L 370.960938 47.132812 L 373.664062 47.132812 Z M 368.261719 49.832031 L 365.5625 49.832031 L 365.5625 47.132812 L 368.261719 47.132812 Z M 362.859375 49.832031 L 360.160156 49.832031 L 360.160156 47.132812 L 362.859375 47.132812 Z M 357.457031 49.832031 L 354.757812 49.832031 L 354.757812 47.132812 L 357.457031 47.132812 Z M 352.082031 49.832031 L 349.382812 49.832031 L 349.382812 47.132812 L 352.082031 47.132812 Z M 346.679688 49.832031 L 343.980469 49.832031 L 343.980469 47.132812 L 346.679688 47.132812 Z M 341.28125 49.832031 L 338.578125 49.832031 L 338.578125 47.132812 L 341.28125 47.132812 Z M 335.878906 49.832031 L 333.175781 49.832031 L 333.175781 47.132812 L 335.878906 47.132812 Z M 330.476562 49.832031 L 327.773438 49.832031 L 327.773438 47.132812 L 330.476562 47.132812 Z M 325.074219 49.832031 L 322.371094 49.832031 L 322.371094 47.132812 L 325.074219 47.132812 Z M 319.671875 49.832031 L 316.972656 49.832031 L 316.972656 47.132812 L 319.671875 47.132812 Z M 314.269531 49.832031 L 311.570312 49.832031 L 311.570312 47.132812 L 314.269531 47.132812 Z M 308.867188 49.832031 L 306.167969 49.832031 L 306.167969 47.132812 L 308.867188 47.132812 Z M 303.464844 49.832031 L 300.765625 49.832031 L 300.765625 47.132812 L 303.464844 47.132812 Z M 298.066406 49.832031 L 295.363281 49.832031 L 295.363281 47.132812 L 298.066406 47.132812 Z M 292.664062 49.832031 L 289.960938 49.832031 L 289.960938 47.132812 L 292.664062 47.132812 Z M 287.261719 49.832031 L 284.558594 49.832031 L 284.558594 47.132812 L 287.261719 47.132812 Z M 281.859375 49.832031 L 279.15625 49.832031 L 279.15625 47.132812 L 281.859375 47.132812 Z M 276.457031 49.832031 L 273.757812 49.832031 L 273.757812 47.132812 L 276.457031 47.132812 Z M 271.054688 49.832031 L 268.355469 49.832031 L 268.355469 47.132812 L 271.054688 47.132812 Z M 265.652344 49.832031 L 262.953125 49.832031 L 262.953125 47.132812 L 265.652344 47.132812 Z M 260.25 49.832031 L 257.550781 49.832031 L 257.550781 47.132812 L 260.25 47.132812 Z M 254.847656 49.832031 L 252.148438 49.832031 L 252.148438 47.132812 L 254.847656 47.132812 Z M 249.449219 49.832031 L 246.746094 49.832031 L 246.746094 47.132812 L 249.449219 47.132812 Z M 244.074219 49.832031 L 241.371094 49.832031 L 241.371094 47.132812 L 244.074219 47.132812 Z M 238.671875 49.832031 L 235.96875 49.832031 L 235.96875 47.132812 L 238.671875 47.132812 Z M 233.269531 49.832031 L 230.566406 49.832031 L 230.566406 47.132812 L 233.269531 47.132812 Z M 227.867188 49.832031 L 225.167969 49.832031 L 225.167969 47.132812 L 227.867188 47.132812 Z M 222.464844 49.832031 L 219.765625 49.832031 L 219.765625 47.132812 L 222.464844 47.132812 Z M 217.0625 49.832031 L 214.363281 49.832031 L 214.363281 47.132812 L 217.0625 47.132812 Z M 211.660156 49.832031 L 208.960938 49.832031 L 208.960938 47.132812 L 211.660156 47.132812 Z M 206.261719 49.832031 L 203.558594 49.832031 L 203.558594 47.132812 L 206.261719 47.132812 Z M 200.859375 49.832031 L 198.15625 49.832031 L 198.15625 47.132812 L 200.859375 47.132812 Z M 195.457031 49.832031 L 192.753906 49.832031 L 192.753906 47.132812 L 195.457031 47.132812 Z M 190.054688 49.832031 L 187.351562 49.832031 L 187.351562 47.132812 L 190.054688 47.132812 Z M 184.652344 49.832031 L 181.953125 49.832031 L 181.953125 47.132812 L 184.652344 47.132812 Z M 179.25 49.832031 L 176.550781 49.832031 L 176.550781 47.132812 L 179.25 47.132812 Z M 173.847656 49.832031 L 171.148438 49.832031 L 171.148438 47.132812 L 173.847656 47.132812 Z M 168.445312 49.832031 L 165.746094 49.832031 L 165.746094 47.132812 L 168.445312 47.132812 Z M 163.046875 49.832031 L 160.34375 49.832031 L 160.34375 47.132812 L 163.046875 47.132812 Z M 157.644531 49.832031 L 154.941406 49.832031 L 154.941406 47.132812 L 157.644531 47.132812 Z M 152.242188 49.832031 L 149.539062 49.832031 L 149.539062 47.132812 L 152.242188 47.132812 Z M 146.839844 49.832031 L 144.136719 49.832031 L 144.136719 47.132812 L 146.839844 47.132812 Z M 141.4375 49.832031 L 138.738281 49.832031 L 138.738281 47.132812 L 141.4375 47.132812 Z M 136.035156 49.832031 L 133.335938 49.832031 L 133.335938 47.132812 L 136.035156 47.132812 Z M 130.632812 49.832031 L 127.933594 49.832031 L 127.933594 47.132812 L 130.632812 47.132812 Z M 125.257812 49.832031 L 122.558594 49.832031 L 122.558594 47.132812 L 125.257812 47.132812 Z M 119.855469 49.832031 L 117.15625 49.832031 L 117.15625 47.132812 L 119.855469 47.132812 Z M 114.457031 49.832031 L 111.753906 49.832031 L 111.753906 47.132812 L 114.457031 47.132812 Z M 114.457031 49.832031 " fill-opacity="1" fill-rule="nonzero"/></g><g clip-path="url(#355b1c57fe)"><path fill="#113c25" d="M 865.125 531.597656 L 862.421875 531.597656 L 862.421875 528.894531 L 865.125 528.894531 Z M 859.722656 531.597656 L 857.023438 531.597656 L 857.023438 528.894531 L 859.722656 528.894531 Z M 854.320312 531.597656 L 851.621094 531.597656 L 851.621094 528.894531 L 854.320312 528.894531 Z M 848.917969 531.597656 L 846.21875 531.597656 L 846.21875 528.894531 L 848.917969 528.894531 Z M 843.515625 531.597656 L 840.816406 531.597656 L 840.816406 528.894531 L 843.515625 528.894531 Z M 838.113281 531.597656 L 835.414062 531.597656 L 835.414062 528.894531 L 838.113281 528.894531 Z M 832.714844 531.597656 L 830.011719 531.597656 L 830.011719 528.894531 L 832.714844 528.894531 Z M 827.3125 531.597656 L 824.609375 531.597656 L 824.609375 528.894531 L 827.3125 528.894531 Z M 821.910156 531.597656 L 819.207031 531.597656 L 819.207031 528.894531 L 821.910156 528.894531 Z M 816.507812 531.597656 L 813.808594 531.597656 L 813.808594 528.894531 L 816.507812 528.894531 Z M 811.105469 531.597656 L 808.40625 531.597656 L 808.40625 528.894531 L 811.105469 528.894531 Z M 805.703125 531.597656 L 803.003906 531.597656 L 803.003906 528.894531 L 805.703125 528.894531 Z M 800.300781 531.597656 L 797.601562 531.597656 L 797.601562 528.894531 L 800.300781 528.894531 Z M 794.925781 531.597656 L 792.226562 531.597656 L 792.226562 528.894531 L 794.925781 528.894531 Z M 789.527344 531.597656 L 786.824219 531.597656 L 786.824219 528.894531 L 789.527344 528.894531 Z M 784.125 531.597656 L 781.421875 531.597656 L 781.421875 528.894531 L 784.125 528.894531 Z M 778.722656 531.597656 L 776.019531 531.597656 L 776.019531 528.894531 L 778.722656 528.894531 Z M 773.320312 531.597656 L 770.617188 531.597656 L 770.617188 528.894531 L 773.320312 528.894531 Z M 767.917969 531.597656 L 765.21875 531.597656 L 765.21875 528.894531 L 767.917969 528.894531 Z M 762.515625 531.597656 L 759.816406 531.597656 L 759.816406 528.894531 L 762.515625 528.894531 Z M 757.113281 531.597656 L 754.414062 531.597656 L 754.414062 528.894531 L 757.113281 528.894531 Z M 751.710938 531.597656 L 749.011719 531.597656 L 749.011719 528.894531 L 751.710938 528.894531 Z M 746.3125 531.597656 L 743.609375 531.597656 L 743.609375 528.894531 L 746.3125 528.894531 Z M 740.910156 531.597656 L 738.207031 531.597656 L 738.207031 528.894531 L 740.910156 528.894531 Z M 735.507812 531.597656 L 732.804688 531.597656 L 732.804688 528.894531 L 735.507812 528.894531 Z M 730.105469 531.597656 L 727.402344 531.597656 L 727.402344 528.894531 L 730.105469 528.894531 Z M 724.703125 531.597656 L 722.003906 531.597656 L 722.003906 528.894531 L 724.703125 528.894531 Z M 719.300781 531.597656 L 716.601562 531.597656 L 716.601562 528.894531 L 719.300781 528.894531 Z M 713.898438 531.597656 L 711.199219 531.597656 L 711.199219 528.894531 L 713.898438 528.894531 Z M 708.496094 531.597656 L 705.796875 531.597656 L 705.796875 528.894531 L 708.496094 528.894531 Z M 703.097656 531.597656 L 700.394531 531.597656 L 700.394531 528.894531 L 703.097656 528.894531 Z M 697.695312 531.597656 L 694.992188 531.597656 L 694.992188 528.894531 L 697.695312 528.894531 Z M 692.292969 531.597656 L 689.589844 531.597656 L 689.589844 528.894531 L 692.292969 528.894531 Z M 686.917969 531.597656 L 684.214844 531.597656 L 684.214844 528.894531 L 686.917969 528.894531 Z M 681.515625 531.597656 L 678.8125 531.597656 L 678.8125 528.894531 L 681.515625 528.894531 Z M 676.113281 531.597656 L 673.414062 531.597656 L 673.414062 528.894531 L 676.113281 528.894531 Z M 670.710938 531.597656 L 668.011719 531.597656 L 668.011719 528.894531 L 670.710938 528.894531 Z M 665.308594 531.597656 L 662.609375 531.597656 L 662.609375 528.894531 L 665.308594 528.894531 Z M 659.90625 531.597656 L 657.207031 531.597656 L 657.207031 528.894531 L 659.90625 528.894531 Z M 654.507812 531.597656 L 651.804688 531.597656 L 651.804688 528.894531 L 654.507812 528.894531 Z M 649.105469 531.597656 L 646.402344 531.597656 L 646.402344 528.894531 L 649.105469 528.894531 Z M 643.703125 531.597656 L 641 531.597656 L 641 528.894531 L 643.703125 528.894531 Z M 638.300781 531.597656 L 635.597656 531.597656 L 635.597656 528.894531 L 638.300781 528.894531 Z M 632.898438 531.597656 L 630.199219 531.597656 L 630.199219 528.894531 L 632.898438 528.894531 Z M 627.496094 531.597656 L 624.796875 531.597656 L 624.796875 528.894531 L 627.496094 528.894531 Z M 622.09375 531.597656 L 619.394531 531.597656 L 619.394531 528.894531 L 622.09375 528.894531 Z M 616.691406 531.597656 L 613.992188 531.597656 L 613.992188 528.894531 L 616.691406 528.894531 Z M 611.292969 531.597656 L 608.589844 531.597656 L 608.589844 528.894531 L 611.292969 528.894531 Z M 605.890625 531.597656 L 603.1875 531.597656 L 603.1875 528.894531 L 605.890625 528.894531 Z M 600.488281 531.597656 L 597.785156 531.597656 L 597.785156 528.894531 L 600.488281 528.894531 Z M 595.085938 531.597656 L 592.382812 531.597656 L 592.382812 528.894531 L 595.085938 528.894531 Z M 589.683594 531.597656 L 586.984375 531.597656 L 586.984375 528.894531 L 589.683594 528.894531 Z M 584.28125 531.597656 L 581.582031 531.597656 L 581.582031 528.894531 L 584.28125 528.894531 Z M 578.878906 531.597656 L 576.179688 531.597656 L 576.179688 528.894531 L 578.878906 528.894531 Z M 573.476562 531.597656 L 570.777344 531.597656 L 570.777344 528.894531 L 573.476562 528.894531 Z M 568.101562 531.597656 L 565.402344 531.597656 L 565.402344 528.894531 L 568.101562 528.894531 Z M 562.703125 531.597656 L 560 531.597656 L 560 528.894531 L 562.703125 528.894531 Z M 557.300781 531.597656 L 554.597656 531.597656 L 554.597656 528.894531 L 557.300781 528.894531 Z M 551.898438 531.597656 L 549.195312 531.597656 L 549.195312 528.894531 L 551.898438 528.894531 Z M 546.496094 531.597656 L 543.796875 531.597656 L 543.796875 528.894531 L 546.496094 528.894531 Z M 541.09375 531.597656 L 538.394531 531.597656 L 538.394531 528.894531 L 541.09375 528.894531 Z M 535.691406 531.597656 L 532.992188 531.597656 L 532.992188 528.894531 L 535.691406 528.894531 Z M 530.289062 531.597656 L 527.589844 531.597656 L 527.589844 528.894531 L 530.289062 528.894531 Z M 524.886719 531.597656 L 522.1875 531.597656 L 522.1875 528.894531 L 524.886719 528.894531 Z M 519.488281 531.597656 L 516.785156 531.597656 L 516.785156 528.894531 L 519.488281 528.894531 Z M 514.085938 531.597656 L 511.382812 531.597656 L 511.382812 528.894531 L 514.085938 528.894531 Z M 508.683594 531.597656 L 505.980469 531.597656 L 505.980469 528.894531 L 508.683594 528.894531 Z M 503.28125 531.597656 L 500.582031 531.597656 L 500.582031 528.894531 L 503.28125 528.894531 Z M 497.878906 531.597656 L 495.179688 531.597656 L 495.179688 528.894531 L 497.878906 528.894531 Z M 492.476562 531.597656 L 489.777344 531.597656 L 489.777344 528.894531 L 492.476562 528.894531 Z M 487.074219 531.597656 L 484.375 531.597656 L 484.375 528.894531 L 487.074219 528.894531 Z M 481.671875 531.597656 L 478.972656 531.597656 L 478.972656 528.894531 L 481.671875 528.894531 Z M 476.273438 531.597656 L 473.570312 531.597656 L 473.570312 528.894531 L 476.273438 528.894531 Z M 470.871094 531.597656 L 468.167969 531.597656 L 468.167969 528.894531 L 470.871094 528.894531 Z M 465.46875 531.597656 L 462.765625 531.597656 L 462.765625 528.894531 L 465.46875 528.894531 Z M 460.09375 531.597656 L 457.390625 531.597656 L 457.390625 528.894531 L 460.09375 528.894531 Z M 454.691406 531.597656 L 451.992188 531.597656 L 451.992188 528.894531 L 454.691406 528.894531 Z M 449.289062 531.597656 L 446.589844 531.597656 L 446.589844 528.894531 L 449.289062 528.894531 Z M 443.886719 531.597656 L 441.1875 531.597656 L 441.1875 528.894531 L 443.886719 528.894531 Z M 438.484375 531.597656 L 435.785156 531.597656 L 435.785156 528.894531 L 438.484375 528.894531 Z M 433.082031 531.597656 L 430.382812 531.597656 L 430.382812 528.894531 L 433.082031 528.894531 Z M 427.683594 531.597656 L 424.980469 531.597656 L 424.980469 528.894531 L 427.683594 528.894531 Z M 422.28125 531.597656 L 419.578125 531.597656 L 419.578125 528.894531 L 422.28125 528.894531 Z M 416.878906 531.597656 L 414.175781 531.597656 L 414.175781 528.894531 L 416.878906 528.894531 Z M 411.476562 531.597656 L 408.777344 531.597656 L 408.777344 528.894531 L 411.476562 528.894531 Z M 406.074219 531.597656 L 403.375 531.597656 L 403.375 528.894531 L 406.074219 528.894531 Z M 400.671875 531.597656 L 397.972656 531.597656 L 397.972656 528.894531 L 400.671875 528.894531 Z M 395.269531 531.597656 L 392.570312 531.597656 L 392.570312 528.894531 L 395.269531 528.894531 Z M 389.867188 531.597656 L 387.167969 531.597656 L 387.167969 528.894531 L 389.867188 528.894531 Z M 384.46875 531.597656 L 381.765625 531.597656 L 381.765625 528.894531 L 384.46875 528.894531 Z M 379.066406 531.597656 L 376.363281 531.597656 L 376.363281 528.894531 L 379.066406 528.894531 Z M 373.664062 531.597656 L 370.960938 531.597656 L 370.960938 528.894531 L 373.664062 528.894531 Z M 368.261719 531.597656 L 365.5625 531.597656 L 365.5625 528.894531 L 368.261719 528.894531 Z M 362.859375 531.597656 L 360.160156 531.597656 L 360.160156 528.894531 L 362.859375 528.894531 Z M 357.457031 531.597656 L 354.757812 531.597656 L 354.757812 528.894531 L 357.457031 528.894531 Z M 352.082031 531.597656 L 349.382812 531.597656 L 349.382812 528.894531 L 352.082031 528.894531 Z M 346.679688 531.597656 L 343.980469 531.597656 L 343.980469 528.894531 L 346.679688 528.894531 Z M 341.28125 531.597656 L 338.578125 531.597656 L 338.578125 528.894531 L 341.28125 528.894531 Z M 335.878906 531.597656 L 333.175781 531.597656 L 333.175781 528.894531 L 335.878906 528.894531 Z M 330.476562 531.597656 L 327.773438 531.597656 L 327.773438 528.894531 L 330.476562 528.894531 Z M 325.074219 531.597656 L 322.371094 531.597656 L 322.371094 528.894531 L 325.074219 528.894531 Z M 319.671875 531.597656 L 316.972656 531.597656 L 316.972656 528.894531 L 319.671875 528.894531 Z M 314.269531 531.597656 L 311.570312 531.597656 L 311.570312 528.894531 L 314.269531 528.894531 Z M 308.867188 531.597656 L 306.167969 531.597656 L 306.167969 528.894531 L 308.867188 528.894531 Z M 303.464844 531.597656 L 300.765625 531.597656 L 300.765625 528.894531 L 303.464844 528.894531 Z M 298.066406 531.597656 L 295.363281 531.597656 L 295.363281 528.894531 L 298.066406 528.894531 Z M 292.664062 531.597656 L 289.960938 531.597656 L 289.960938 528.894531 L 292.664062 528.894531 Z M 287.261719 531.597656 L 284.558594 531.597656 L 284.558594 528.894531 L 287.261719 528.894531 Z M 281.859375 531.597656 L 279.15625 531.597656 L 279.15625 528.894531 L 281.859375 528.894531 Z M 276.457031 531.597656 L 273.757812 531.597656 L 273.757812 528.894531 L 276.457031 528.894531 Z M 271.054688 531.597656 L 268.355469 531.597656 L 268.355469 528.894531 L 271.054688 528.894531 Z M 265.652344 531.597656 L 262.953125 531.597656 L 262.953125 528.894531 L 265.652344 528.894531 Z M 260.25 531.597656 L 257.550781 531.597656 L 257.550781 528.894531 L 260.25 528.894531 Z M 254.847656 531.597656 L 252.148438 531.597656 L 252.148438 528.894531 L 254.847656 528.894531 Z M 249.449219 531.597656 L 246.746094 531.597656 L 246.746094 528.894531 L 249.449219 528.894531 Z M 244.074219 531.597656 L 241.371094 531.597656 L 241.371094 528.894531 L 244.074219 528.894531 Z M 238.671875 531.597656 L 235.96875 531.597656 L 235.96875 528.894531 L 238.671875 528.894531 Z M 233.269531 531.597656 L 230.566406 531.597656 L 230.566406 528.894531 L 233.269531 528.894531 Z M 227.867188 531.597656 L 225.167969 531.597656 L 225.167969 528.894531 L 227.867188 528.894531 Z M 222.464844 531.597656 L 219.765625 531.597656 L 219.765625 528.894531 L 222.464844 528.894531 Z M 217.0625 531.597656 L 214.363281 531.597656 L 214.363281 528.894531 L 217.0625 528.894531 Z M 211.660156 531.597656 L 208.960938 531.597656 L 208.960938 528.894531 L 211.660156 528.894531 Z M 206.261719 531.597656 L 203.558594 531.597656 L 203.558594 528.894531 L 206.261719 528.894531 Z M 200.859375 531.597656 L 198.15625 531.597656 L 198.15625 528.894531 L 200.859375 528.894531 Z M 195.457031 531.597656 L 192.753906 531.597656 L 192.753906 528.894531 L 195.457031 528.894531 Z M 190.054688 531.597656 L 187.351562 531.597656 L 187.351562 528.894531 L 190.054688 528.894531 Z M 184.652344 531.597656 L 181.953125 531.597656 L 181.953125 528.894531 L 184.652344 528.894531 Z M 179.25 531.597656 L 176.550781 531.597656 L 176.550781 528.894531 L 179.25 528.894531 Z M 173.847656 531.597656 L 171.148438 531.597656 L 171.148438 528.894531 L 173.847656 528.894531 Z M 168.445312 531.597656 L 165.746094 531.597656 L 165.746094 528.894531 L 168.445312 528.894531 Z M 163.046875 531.597656 L 160.34375 531.597656 L 160.34375 528.894531 L 163.046875 528.894531 Z M 157.644531 531.597656 L 154.941406 531.597656 L 154.941406 528.894531 L 157.644531 528.894531 Z M 152.242188 531.597656 L 149.539062 531.597656 L 149.539062 528.894531 L 152.242188 528.894531 Z M 146.839844 531.597656 L 144.136719 531.597656 L 144.136719 528.894531 L 146.839844 528.894531 Z M 141.4375 531.597656 L 138.738281 531.597656 L 138.738281 528.894531 L 141.4375 528.894531 Z M 136.035156 531.597656 L 133.335938 531.597656 L 133.335938 528.894531 L 136.035156 528.894531 Z M 130.632812 531.597656 L 127.933594 531.597656 L 127.933594 528.894531 L 130.632812 528.894531 Z M 125.257812 531.597656 L 122.558594 531.597656 L 122.558594 528.894531 L 125.257812 528.894531 Z M 119.855469 531.597656 L 117.15625 531.597656 L 117.15625 528.894531 L 119.855469 528.894531 Z M 114.457031 531.597656 L 111.753906 531.597656 L 111.753906 528.894531 L 114.457031 528.894531 Z M 114.457031 531.597656 " fill-opacity="1" fill-rule="nonzero"/></g><path fill="#113c25" d="M 61.113281 53.964844 C 67.621094 61.609375 67.808594 72.167969 67.808594 72.167969 C 67.808594 72.167969 57.410156 70.332031 50.902344 62.714844 C 44.394531 55.097656 44.203125 44.511719 44.203125 44.511719 C 44.203125 44.511719 54.601562 46.347656 61.113281 53.964844 Z M 61.113281 53.964844 " fill-opacity="1" fill-rule="nonzero"/><path fill="#113c25" d="M 51.414062 69.523438 C 58.601562 70.089844 64.027344 75.355469 64.027344 75.355469 C 64.027344 75.355469 57.816406 79.703125 50.632812 79.136719 C 43.449219 78.570312 38.019531 73.304688 38.019531 73.304688 C 38.019531 73.304688 44.230469 68.953125 51.414062 69.523438 Z M 51.414062 69.523438 " fill-opacity="1" fill-rule="nonzero"/><path fill="#113c25" d="M 68.1875 55.207031 C 67.621094 62.390625 71.96875 68.605469 71.96875 68.605469 C 71.96875 68.605469 77.238281 63.175781 77.804688 55.992188 C 78.371094 48.804688 74.023438 42.59375 74.023438 42.59375 C 74.023438 42.59375 68.753906 48.023438 68.1875 55.207031 Z M 68.1875 55.207031 " fill-opacity="1" fill-rule="nonzero"/><path fill="#113c25" d="M 49.417969 517.550781 C 57.0625 511.042969 67.621094 510.855469 67.621094 510.855469 C 67.621094 510.855469 65.785156 521.253906 58.167969 527.761719 C 50.550781 534.269531 39.964844 534.460938 39.964844 534.460938 C 39.964844 534.460938 41.800781 524.0625 49.417969 517.550781 Z M 49.417969 517.550781 " fill-opacity="1" fill-rule="nonzero"/><path fill="#113c25" d="M 64.972656 527.222656 C 65.542969 520.035156 70.808594 514.609375 70.808594 514.609375 C 70.808594 514.609375 75.15625 520.820312 74.589844 528.003906 C 74.023438 535.1875 68.753906 540.617188 68.753906 540.617188 C 68.753906 540.617188 64.40625 534.40625 64.972656 527.222656 Z M 64.972656 527.222656 " fill-opacity="1" fill-rule="nonzero"/><path fill="#113c25" d="M 50.660156 510.449219 C 57.84375 511.015625 64.054688 506.667969 64.054688 506.667969 C 64.054688 506.667969 58.628906 501.402344 51.441406 500.832031 C 44.257812 500.265625 38.046875 504.613281 38.046875 504.613281 C 38.046875 504.613281 43.476562 509.882812 50.660156 510.449219 Z M 50.660156 510.449219 " fill-opacity="1" fill-rule="nonzero"/></svg>